<?xml version="1.0" encoding="utf-8"?>
<!-- Generator: Adobe Illustrator 19.0.0, SVG Export Plug-In . SVG Version: 6.00 Build 0)  -->
<svg version="1.1" id="Layer_1" xmlns="http://www.w3.org/2000/svg" xmlns:xlink="http://www.w3.org/1999/xlink" x="0px" y="0px"
	 viewBox="0 0 16 16" enable-background="new 0 0 16 16" xml:space="preserve">
<rect id="XMLID_25_" fill-rule="evenodd" clip-rule="evenodd" fill="#FFFFFF" width="16" height="16"/>
<g id="XMLID_27_">
	
		<ellipse id="XMLID_24_" transform="matrix(-0.032 0.9995 -0.9995 -0.032 22.5253 -7.6038)" fill-rule="evenodd" clip-rule="evenodd" fill="#E6E6E6" cx="14.945" cy="7.106" rx="0.193" ry="0.684"/>
	
		<ellipse id="XMLID_23_" transform="matrix(0.1229 -0.9924 0.9924 0.1229 -2.4497 18.7104)" fill-rule="evenodd" clip-rule="evenodd" fill="#E6E6E6" cx="9.36" cy="10.741" rx="0.193" ry="2.271"/>
	
		<ellipse id="XMLID_22_" transform="matrix(0.2275 -0.9738 0.9738 0.2275 -6.8314 10.8025)" fill-rule="evenodd" clip-rule="evenodd" fill="#E6E6E6" cx="3.393" cy="9.707" rx="0.193" ry="2.271"/>
	<path id="XMLID_21_" fill-rule="evenodd" clip-rule="evenodd" fill="#E6E6E6" d="M7.973,6.757C8.464,6.6,8.657,6.45,8.639,6.336
		C8.622,6.222,7.92,6.196,7.832,6.486C7.745,6.775,7.876,6.793,7.973,6.757z"/>
	<path id="XMLID_20_" fill-rule="evenodd" clip-rule="evenodd" fill="#75B1B3" d="M5.738,8.238c0,0.013,0.013,0.219,0.013,0.219
		s-0.07,0.722-0.403,1.075C5.014,9.885,4.757,9.854,4.757,9.854L5.3,9.197l0.11-0.478C5.41,8.719,5.566,8.265,5.738,8.238z"/>
	<path id="XMLID_19_" fill-rule="evenodd" clip-rule="evenodd" fill="#5F9EA0" d="M3.093,9.71c0.519,0.175,1.46,0.161,1.663,0.144
		c0.204-0.018,0.456-0.14,0.586-0.54c0.13-0.4,0.14-0.716,0.232-0.804C5.666,8.422,5.96,8.454,6.227,8.507S6.634,8.77,6.68,8.931
		c0.046,0.161,0.151,0.453,0.232,0.681c0.081,0.228,0.239,0.432,0.372,0.568c0.133,0.137,0.8,0.368,1.849,0.526
		c1.049,0.158,2.197-0.081,2.263-0.14c0.067-0.06,0.193-0.105,0.246-0.568c0.053-0.463,0.356-0.569,0.432-0.602
		c0.075-0.033,0.17-0.046,0.17-0.046V8.565c0,0-0.587-0.07-0.995-0.162C10.84,8.311,9.735,8.061,8.375,8.025
		C7.015,7.99,6.594,8.047,6.348,8.052C6.103,8.056,5.818,8.069,5.638,7.986C5.458,7.902,5.019,7.709,4.624,7.6
		C4.23,7.49,2.874,7.262,2.361,7.179C1.848,7.095,1.523,7.135,1.449,7.135c-0.075,0-0.154-0.101-0.154-0.101L1.203,7.065v0.553
		c0,0,0.009,0.092,0.132,0.219c0.363,0.376,0.249,0.654,0.43,1.068C1.915,9.248,2.758,9.597,3.093,9.71z"/>
	<path id="XMLID_18_" fill-rule="evenodd" clip-rule="evenodd" fill="#FFFFFF" d="M1.865,8.637C1.9,8.734,1.935,8.883,2.067,8.992
		c0.132,0.11,0.579,0.509,1.377,0.64C4.243,9.764,4.681,9.756,4.87,9.646c0.189-0.11,0.303-0.474,0.36-0.732
		c0.037-0.168,0.1-0.778-0.052-0.882c-0.26-0.249-1.248-0.443-1.514-0.495c-0.557-0.11-0.886-0.184-1.176-0.215
		C2.285,7.3,2.071,7.289,1.942,7.31C1.887,7.319,1.847,7.334,1.83,7.356c-0.034,0.044-0.038,0.299-0.029,0.57
		C1.812,8.237,1.841,8.571,1.865,8.637z"/>
	<path id="XMLID_17_" fill-rule="evenodd" clip-rule="evenodd" fill="#FFFFFF" d="M7.667,8.132c-0.373,0.004-0.811,0.022-0.798,0.36
		s0.088,0.636,0.219,0.987c0.132,0.351,0.268,0.605,0.632,0.741c0.364,0.136,0.86,0.246,1.478,0.338
		c0.354,0.053,0.901,0.073,1.322,0.044c0.229-0.016,0.758-0.048,0.831-0.343c0.015-0.059,0.047-0.324,0.044-0.61
		c-0.003-0.247-0.019-0.583-0.055-0.831c-0.018-0.123-0.083-0.199-0.409-0.296C10.001,8.246,8.634,8.12,7.667,8.132z"/>
	<path id="XMLID_16_" fill-rule="evenodd" clip-rule="evenodd" fill="#75B1B3" d="M6.987,8.248C6.91,8.301,6.864,8.378,6.868,8.491
		c0.013,0.338,0.088,0.636,0.219,0.987c0.114,0.305,0.232,0.536,0.499,0.681C7.366,9.927,7.25,9.55,7.184,9.173
		c-0.088-0.5-0.211-0.579-0.232-0.68C6.93,8.394,6.986,8.252,6.987,8.248z"/>
	<path id="XMLID_15_" fill-rule="evenodd" clip-rule="evenodd" fill="#558E90" d="M1.486,7.033L1.391,6.914
		c0,0,0.387-0.12,0.562-0.179c0.175-0.059,2.706-1.088,3.158-1.263C5.563,5.296,6.081,5.177,6.91,5.309
		C7.739,5.44,8.392,5.717,8.418,5.721C8.445,5.726,8.563,5.78,8.57,5.883c0.005,0.075-0.132,0.265-0.208,0.364
		c-0.064,0.084-0.098,0.1-0.217,0.053C8.05,6.264,7.497,6.047,7.23,5.981C6.962,5.915,6.293,5.773,5.337,6.11
		C4.381,6.448,2.661,7.165,2.661,7.165L1.486,7.033z"/>
	<path id="XMLID_14_" fill-rule="evenodd" clip-rule="evenodd" fill="#558E90" d="M11.991,8.429l0.298-0.001
		c0,0,0.816-0.604,1.316-1.086c0.5-0.482,1.132-1.272,1.132-1.272s0.094-0.039,0.09,0.079c-0.004,0.118-0.007,0.575-0.007,0.575
		s-0.015,0.053-0.097,0.182c-0.54,0.861-1.397,1.619-2.184,2.246v0.123c0,0-0.151,0.049-0.296,0.078
		c-0.04,0.008-0.067-0.004-0.106,0.003C12.064,9.368,12.125,8.752,11.991,8.429z"/>
	<path id="XMLID_13_" fill-rule="evenodd" clip-rule="evenodd" fill="#75B1B3" d="M1.203,7.065c0,0,0.123-0.147,0.21-0.156
		C1.501,6.9,1.633,6.953,1.861,6.979s2.11,0.338,2.847,0.544c0.737,0.206,1.044,0.325,1.162,0.39
		c0.118,0.066,0.768,0.053,1.105,0.022c0.338-0.031,1.917-0.031,3.013,0.118s2.18,0.347,2.259,0.364
		c0.079,0.018,0.167,0.039,0.167,0.039l-0.171,0.108c0,0-0.587-0.07-0.995-0.162C10.84,8.311,9.735,8.061,8.375,8.025
		C7.015,7.99,6.594,8.047,6.348,8.052C6.103,8.056,5.818,8.069,5.638,7.986C5.458,7.902,5.019,7.709,4.624,7.6
		C4.23,7.49,2.874,7.262,2.361,7.179C1.848,7.095,1.523,7.135,1.449,7.135c-0.075,0-0.154-0.101-0.154-0.101L1.203,7.065z"/>
	<path id="XMLID_28_" fill-rule="evenodd" clip-rule="evenodd" fill="#FFFFFF" d="M3.082,6.391C3.06,6.399,3.043,6.41,3.028,6.424
		C3.015,6.437,3.006,6.452,3.002,6.469C2.998,6.485,2.999,6.502,3.006,6.517c0.002,0.006,0.005,0.011,0.009,0.016
		c0.008,0.01,0.016,0.019,0.025,0.026c0.006,0.005,0.01,0.009,0.011,0.013c0.002,0.006,0.001,0.013-0.003,0.022
		c-0.02,0.039-0.024,0.083-0.012,0.132c0.002,0.009,0.004,0.018,0.009,0.028C3.06,6.789,3.087,6.815,3.126,6.831
		c0.015,0.006,0.031,0.008,0.047,0.008c0.016,0,0.031-0.004,0.045-0.011c0.027-0.015,0.047-0.026,0.061-0.035
		c0.014-0.009,0.028-0.02,0.041-0.034C3.341,6.736,3.356,6.71,3.364,6.682c0.013-0.049,0.021-0.091,0.025-0.125
		c0-0.015,0-0.025-0.001-0.031c0-0.003-0.001-0.005-0.001-0.006C3.385,6.515,3.38,6.511,3.374,6.51
		C3.37,6.509,3.366,6.509,3.362,6.511C3.358,6.513,3.354,6.516,3.35,6.521C3.345,6.528,3.342,6.536,3.34,6.545
		c-0.002,0.009-0.003,0.019-0.004,0.03C3.335,6.59,3.332,6.607,3.328,6.628c-0.002,0.007-0.003,0.017-0.006,0.03
		c-0.003,0.02-0.01,0.037-0.021,0.053C3.29,6.726,3.276,6.741,3.258,6.754c-0.007,0.006-0.014,0.01-0.019,0.012
		C3.225,6.773,3.21,6.774,3.196,6.771C3.181,6.767,3.168,6.76,3.156,6.747c-0.01-0.01-0.017-0.02-0.022-0.032
		C3.129,6.704,3.126,6.693,3.125,6.68C3.124,6.667,3.124,6.653,3.124,6.636C3.125,6.61,3.137,6.589,3.16,6.574
		C3.176,6.565,3.185,6.56,3.19,6.557c0.008-0.006,0.015-0.013,0.018-0.02C3.212,6.53,3.213,6.524,3.211,6.518
		c-0.003-0.006-0.007-0.01-0.013-0.013C3.192,6.503,3.185,6.501,3.176,6.501c-0.003,0-0.009,0-0.018,0.001
		c-0.009,0.001-0.017,0-0.024-0.001C3.129,6.5,3.123,6.498,3.118,6.495C3.114,6.492,3.11,6.487,3.108,6.482
		c-0.001-0.004-0.002-0.007-0.002-0.01c-0.001-0.015,0.006-0.026,0.02-0.035c0.007-0.004,0.013-0.006,0.02-0.006
		c0.007,0,0.013,0.003,0.018,0.008c0.002,0.002,0.004,0.004,0.006,0.007c0.002,0.003,0.005,0.005,0.007,0.006
		c0.008,0.006,0.016,0.007,0.024,0.003c0.006-0.003,0.01-0.008,0.013-0.016C3.22,6.428,3.22,6.417,3.216,6.406
		C3.213,6.398,3.208,6.392,3.201,6.387C3.188,6.379,3.174,6.375,3.158,6.374C3.133,6.372,3.108,6.378,3.082,6.391L3.082,6.391z
		 M3.54,6.529C3.539,6.527,3.536,6.523,3.531,6.514S3.521,6.498,3.515,6.49C3.508,6.481,3.5,6.475,3.489,6.472
		C3.479,6.47,3.468,6.471,3.457,6.476C3.454,6.477,3.449,6.48,3.444,6.485C3.433,6.494,3.425,6.504,3.42,6.516
		c-0.007,0.02-0.013,0.038-0.017,0.056C3.399,6.59,3.398,6.607,3.399,6.624C3.4,6.636,3.403,6.649,3.408,6.66
		c0.007,0.017,0.016,0.029,0.027,0.035C3.446,6.701,3.46,6.702,3.476,6.698c0.002,0,0.004-0.001,0.007-0.002
		c0.003-0.001,0.005-0.002,0.009-0.003c0.005-0.002,0.009-0.005,0.013-0.01c0.005-0.005,0.009-0.009,0.014-0.011
		c0.008-0.004,0.017-0.003,0.029,0.001C3.565,6.68,3.582,6.68,3.598,6.672c0.015-0.007,0.026-0.018,0.034-0.033
		c0.014-0.025,0.019-0.055,0.015-0.09l0-0.003C3.645,6.543,3.642,6.541,3.637,6.541c-0.001,0-0.002,0-0.004,0.001
		C3.631,6.543,3.628,6.545,3.626,6.549c-0.002,0.003-0.003,0.007-0.004,0.01L3.619,6.579C3.617,6.593,3.614,6.606,3.611,6.618
		c-0.002,0.005-0.003,0.01-0.005,0.013C3.605,6.634,3.603,6.636,3.6,6.638c-0.006,0.003-0.01,0.003-0.014,0
		C3.582,6.634,3.579,6.63,3.576,6.624c-0.002-0.004-0.005-0.01-0.008-0.019L3.55,6.558L3.54,6.529L3.54,6.529z M3.475,6.535
		c0.005,0,0.008,0.002,0.009,0.006c0.007,0.027,0.012,0.047,0.016,0.06C3.503,6.62,3.501,6.636,3.494,6.65
		C3.491,6.655,3.487,6.658,3.483,6.659c-0.006,0.002-0.01,0-0.013-0.008L3.467,6.643C3.464,6.638,3.463,6.634,3.463,6.632
		C3.46,6.603,3.464,6.571,3.475,6.535L3.475,6.535z M3.738,6.59C3.717,6.596,3.7,6.599,3.687,6.597
		C3.674,6.595,3.662,6.588,3.653,6.574C3.651,6.571,3.649,6.568,3.647,6.562C3.644,6.556,3.642,6.548,3.642,6.538
		c0-0.013,0.001-0.033,0.003-0.06c0-0.006,0-0.01-0.001-0.011C3.643,6.464,3.641,6.463,3.639,6.462
		C3.637,6.461,3.634,6.46,3.63,6.46C3.615,6.457,3.606,6.45,3.601,6.438C3.599,6.432,3.597,6.427,3.597,6.421
		c-0.001-0.006,0-0.012,0.003-0.017C3.602,6.4,3.606,6.396,3.61,6.394c0.002-0.001,0.004-0.001,0.007-0.002
		c0.011-0.002,0.018,0.002,0.022,0.012C3.64,6.407,3.641,6.411,3.641,6.415c0,0.002,0,0.004,0,0.007c0,0.003,0,0.005,0,0.006
		c0,0.004,0.003,0.005,0.008,0.003C3.652,6.43,3.655,6.428,3.657,6.425c0.002-0.003,0.004-0.005,0.004-0.006
		c0.002-0.002,0.004-0.006,0.007-0.011c0.003-0.005,0.006-0.009,0.009-0.013C3.68,6.392,3.682,6.39,3.686,6.388
		c0.005-0.002,0.011-0.002,0.018,0c0.005,0.002,0.009,0.005,0.011,0.01C3.716,6.402,3.717,6.406,3.716,6.41
		c0,0.009-0.001,0.017-0.003,0.025C3.71,6.462,3.709,6.497,3.711,6.54c0,0.002,0,0.005,0,0.009c0,0.004,0,0.008,0.001,0.011
		c0.002,0.005,0.006,0.008,0.012,0.008c0.003,0,0.006,0,0.008-0.002C3.736,6.565,3.739,6.563,3.742,6.56
		C3.744,6.557,3.747,6.552,3.75,6.547C3.755,6.54,3.759,6.531,3.762,6.52l0.022-0.068c0.004-0.012,0.007-0.021,0.01-0.027
		C3.796,6.422,3.798,6.419,3.8,6.418c0.003-0.001,0.006-0.002,0.008-0.001C3.812,6.418,3.815,6.42,3.816,6.423
		C3.817,6.425,3.817,6.427,3.817,6.43c0,0.001,0,0.004-0.001,0.007C3.811,6.46,3.805,6.479,3.8,6.496
		C3.795,6.512,3.788,6.527,3.781,6.542C3.776,6.553,3.769,6.563,3.761,6.571C3.754,6.58,3.746,6.586,3.738,6.59L3.738,6.59z
		 M3.956,6.394c0.005-0.015,0.006-0.027,0.003-0.035C3.958,6.356,3.956,6.355,3.954,6.356C3.953,6.357,3.951,6.359,3.95,6.363
		C3.948,6.371,3.943,6.383,3.936,6.399C3.928,6.416,3.92,6.431,3.911,6.445C3.902,6.459,3.896,6.467,3.891,6.47
		c-0.003,0.001-0.006,0-0.009-0.005C3.878,6.459,3.875,6.452,3.871,6.442C3.864,6.425,3.857,6.406,3.851,6.386L3.847,6.373
		C3.84,6.352,3.833,6.331,3.827,6.31c0.013-0.072,0.009-0.129-0.01-0.172C3.814,6.133,3.811,6.13,3.806,6.128
		C3.802,6.127,3.797,6.128,3.792,6.13C3.788,6.132,3.783,6.136,3.779,6.142C3.771,6.153,3.766,6.167,3.765,6.183
		c-0.001,0.016-0.001,0.034,0,0.053c0.006,0.082,0.02,0.157,0.043,0.226C3.811,6.47,3.817,6.479,3.825,6.49
		C3.834,6.5,3.843,6.509,3.854,6.516c0.011,0.007,0.021,0.009,0.03,0.007C3.903,6.518,3.927,6.475,3.956,6.394L3.956,6.394z
		 M3.806,6.225C3.8,6.198,3.797,6.177,3.796,6.164l0-0.013C3.797,6.147,3.798,6.144,3.8,6.143C3.802,6.143,3.805,6.148,3.808,6.16
		c0.004,0.011,0.007,0.022,0.009,0.032C3.822,6.207,3.824,6.223,3.824,6.24c0,0.017,0,0.036-0.001,0.058
		C3.815,6.265,3.809,6.241,3.806,6.225L3.806,6.225z M4.123,6.504C4.101,6.516,4.08,6.517,4.062,6.507
		C4.05,6.501,4.042,6.493,4.038,6.483C4.034,6.473,4.033,6.463,4.036,6.45c0.003-0.01,0.006-0.019,0.01-0.026
		c0.004-0.01,0.007-0.018,0.008-0.023c0.001-0.005,0.001-0.009,0-0.011C4.054,6.386,4.051,6.384,4.046,6.383
		C4.042,6.382,4.034,6.381,4.022,6.381c-0.001,0-0.005-0.001-0.013-0.002C4.007,6.379,4,6.378,3.988,6.377
		c0,0-0.002-0.001-0.006-0.002C3.953,6.37,3.935,6.357,3.927,6.338C3.921,6.323,3.92,6.306,3.924,6.285
		c0.005-0.029,0.023-0.053,0.053-0.073c0.007-0.005,0.016-0.007,0.027-0.006C4.019,6.207,4.028,6.211,4.031,6.22
		c0.003,0.007,0.002,0.015-0.003,0.025L4.014,6.27C4.009,6.28,4.006,6.288,4.005,6.296C4.003,6.31,4.003,6.321,4.006,6.328
		c0.002,0.005,0.005,0.008,0.011,0.011c0.005,0.003,0.013,0.005,0.023,0.007C4.046,6.348,4.051,6.349,4.056,6.35
		C4.063,6.35,4.068,6.352,4.073,6.353C4.08,6.354,4.086,6.355,4.09,6.355c0.004,0,0.009-0.001,0.015-0.004
		C4.112,6.348,4.12,6.342,4.13,6.335l0.01-0.009C4.14,6.324,4.144,6.322,4.152,6.317l0.007-0.004
		C4.166,6.31,4.174,6.308,4.182,6.309c0.006,0,0.009,0.002,0.011,0.005c0.002,0.005,0.001,0.009-0.004,0.013
		C4.186,6.33,4.18,6.334,4.172,6.339L4.16,6.345l0.007-0.003C4.172,6.34,4.17,6.341,4.162,6.346
		C4.155,6.351,4.149,6.355,4.146,6.357c-0.005,0.005-0.009,0.009-0.01,0.012C4.134,6.372,4.134,6.375,4.135,6.378
		c0.001,0.003,0.003,0.006,0.007,0.01c0.002,0.002,0.004,0.005,0.007,0.008c0.003,0.003,0.006,0.006,0.009,0.01
		c0.004,0.005,0.007,0.011,0.01,0.017c0.006,0.015,0.006,0.03-0.001,0.043C4.16,6.479,4.149,6.49,4.134,6.499
		C4.132,6.5,4.13,6.501,4.129,6.502C4.127,6.503,4.125,6.503,4.123,6.504L4.123,6.504z M4.071,6.469
		c0.001,0.003,0.003,0.005,0.006,0.006c0.003,0.001,0.005,0.001,0.008,0l0.002-0.002c0.005-0.005,0.008-0.011,0.01-0.019
		c0.001-0.008,0-0.015-0.003-0.022C4.091,6.43,4.088,6.429,4.085,6.429C4.08,6.43,4.077,6.433,4.074,6.439
		C4.071,6.446,4.069,6.453,4.069,6.462C4.069,6.464,4.07,6.467,4.071,6.469L4.071,6.469z M4.17,6.286
		c0.008,0.021,0.021,0.037,0.037,0.049C4.22,6.344,4.232,6.349,4.245,6.351C4.259,6.352,4.271,6.35,4.283,6.345
		c0.011-0.005,0.02-0.012,0.027-0.021C4.356,6.27,4.375,6.208,4.367,6.136c0-0.001-0.001-0.003-0.001-0.005
		C4.364,6.125,4.36,6.122,4.354,6.121c-0.003,0-0.006,0-0.008,0.002c-0.004,0.002-0.007,0.005-0.01,0.009
		C4.331,6.143,4.326,6.159,4.321,6.181C4.316,6.207,4.311,6.23,4.304,6.252C4.3,6.269,4.293,6.282,4.286,6.291
		c0,0.001-0.001,0.001-0.003,0.002C4.28,6.294,4.278,6.294,4.276,6.293C4.273,6.293,4.272,6.291,4.271,6.289
		c-0.003-0.006-0.005-0.013-0.006-0.02C4.254,6.203,4.245,6.154,4.24,6.12C4.239,6.113,4.238,6.108,4.238,6.105
		c-0.002-0.01-0.002-0.017-0.002-0.022c0.001-0.005,0.003-0.01,0.009-0.014c0.005-0.004,0.014-0.01,0.027-0.016L4.279,6.05
		C4.285,6.047,4.288,6.045,4.29,6.043c0.007-0.006,0.013-0.011,0.016-0.015C4.315,6.019,4.318,6.01,4.314,6.001
		C4.311,5.993,4.303,5.988,4.291,5.985C4.28,5.984,4.27,5.986,4.262,5.99C4.249,5.997,4.239,6,4.232,6.001
		C4.226,6.001,4.22,5.999,4.216,5.995C4.212,5.99,4.207,5.983,4.203,5.971C4.203,5.969,4.201,5.967,4.199,5.964
		C4.194,5.957,4.188,5.953,4.181,5.951C4.173,5.949,4.165,5.95,4.157,5.954C4.144,5.96,4.135,5.97,4.131,5.985
		c-0.003,0.016-0.005,0.03-0.005,0.042c0,0.009-0.002,0.016-0.006,0.022C4.116,6.055,4.109,6.06,4.101,6.064
		C4.087,6.07,4.075,6.075,4.066,6.082C4.058,6.086,4.046,6.095,4.03,6.106C4.028,6.109,4.025,6.112,4.024,6.115
		c-0.001,0.003-0.001,0.007,0,0.011c0.003,0.006,0.008,0.01,0.017,0.01c0.008,0.001,0.017,0,0.026-0.003
		c0.01-0.002,0.016-0.004,0.02-0.005c0.002-0.001,0.005-0.002,0.01-0.004L4.11,6.118c0.007-0.002,0.013-0.002,0.017,0
		c0.005,0.002,0.008,0.005,0.01,0.01C4.139,6.131,4.14,6.137,4.14,6.145l0.002,0.013L4.17,6.286L4.17,6.286z M4.522,6.199
		c0.013-0.006,0.023-0.016,0.032-0.03c0.008-0.013,0.013-0.03,0.013-0.048c0-0.002,0-0.006,0-0.01c0-0.005-0.001-0.008-0.001-0.011
		c-0.003-0.011-0.003-0.02,0-0.027c0.003-0.007,0.01-0.013,0.021-0.018c0.008-0.004,0.015-0.01,0.021-0.017
		c0.006-0.008,0.01-0.016,0.012-0.025C4.62,6.005,4.62,5.999,4.618,5.994C4.616,5.99,4.614,5.987,4.61,5.984
		C4.607,5.981,4.603,5.98,4.598,5.98c-0.003-0.001-0.007,0-0.011,0.001C4.579,5.985,4.574,5.992,4.571,6.003
		C4.57,6.005,4.57,6.009,4.57,6.013c0,0.004,0,0.008-0.001,0.011C4.568,6.03,4.564,6.034,4.558,6.037
		C4.554,6.038,4.551,6.039,4.547,6.037L4.526,6.025C4.513,6.017,4.502,6.014,4.49,6.016C4.47,6.02,4.451,6.021,4.434,6.02
		c-0.005-0.001-0.009,0-0.013,0.002C4.414,6.025,4.408,6.031,4.405,6.041c-0.006,0.013-0.009,0.028-0.01,0.043
		C4.394,6.096,4.394,6.107,4.396,6.118C4.397,6.129,4.4,6.142,4.403,6.158c0.001,0.006,0.003,0.01,0.004,0.013
		C4.416,6.191,4.431,6.204,4.452,6.21c0.021,0.005,0.043,0.003,0.065-0.008L4.522,6.199L4.522,6.199z M4.519,6.061
		c0.007,0.017,0.008,0.035,0.004,0.053C4.519,6.132,4.511,6.146,4.499,6.157C4.496,6.159,4.493,6.16,4.492,6.161
		c-0.006,0.003-0.012,0-0.016-0.007C4.467,6.132,4.463,6.11,4.462,6.087c0-0.013,0.007-0.027,0.022-0.041
		c0.002-0.002,0.004-0.003,0.006-0.004C4.493,6.04,4.497,6.04,4.501,6.041c0.004,0.001,0.008,0.003,0.01,0.007
		C4.513,6.05,4.515,6.053,4.516,6.055C4.518,6.058,4.519,6.06,4.519,6.061L4.519,6.061z M4.857,6.016
		C4.86,6.011,4.862,6.005,4.863,6c0.001-0.005,0.001-0.012,0.002-0.019c0-0.01,0-0.019,0.001-0.026
		C4.867,5.95,4.869,5.947,4.873,5.946c0.001-0.001,0.003-0.001,0.005-0.001c0.005,0,0.009,0.003,0.012,0.009L4.891,5.96
		C4.889,5.981,4.887,5.998,4.884,6.012C4.88,6.025,4.875,6.039,4.868,6.052c-0.004,0.008-0.01,0.013-0.019,0.017
		C4.841,6.072,4.832,6.073,4.822,6.071C4.813,6.069,4.806,6.065,4.802,6.058C4.798,6.051,4.795,6.045,4.793,6.04
		C4.791,6.034,4.79,6.028,4.789,6.021C4.786,6.005,4.78,5.985,4.772,5.961l-0.011-0.03C4.76,5.929,4.759,5.926,4.758,5.924
		C4.756,5.922,4.755,5.92,4.754,5.918C4.753,5.917,4.752,5.916,4.751,5.916c-0.001,0-0.003,0-0.004,0
		C4.745,5.917,4.744,5.918,4.743,5.92C4.742,5.92,4.741,5.921,4.741,5.922C4.737,5.945,4.734,5.965,4.734,5.983
		c0,0.018,0.002,0.035,0.008,0.051C4.745,6.042,4.751,6.05,4.761,6.06c0.006,0.005,0.01,0.01,0.012,0.015
		c0.001,0.004,0.001,0.008-0.001,0.013C4.768,6.096,4.763,6.102,4.756,6.105C4.753,6.106,4.751,6.106,4.749,6.107
		c-0.002,0-0.004,0.001-0.006,0.001c-0.02,0.003-0.036-0.002-0.048-0.015C4.662,6.059,4.64,6.026,4.629,5.994
		C4.622,5.975,4.618,5.956,4.618,5.936c0-0.006,0.001-0.013,0.002-0.019c0.001-0.008,0.005-0.013,0.012-0.016
		C4.638,5.898,4.644,5.899,4.65,5.902c0.007,0.004,0.012,0.009,0.015,0.015c0.004,0.007,0.008,0.012,0.01,0.018
		C4.678,5.94,4.681,5.944,4.682,5.948L4.689,5.96c0,0.001,0.001,0.001,0.002,0.002c0.001,0.001,0.002,0.001,0.003,0.001
		C4.697,5.963,4.7,5.962,4.7,5.957C4.701,5.951,4.703,5.945,4.705,5.94c0.003-0.006,0.006-0.012,0.01-0.018
		C4.72,5.915,4.723,5.91,4.725,5.907c0.006-0.01,0.013-0.016,0.019-0.019c0.007-0.003,0.017-0.002,0.029,0.003
		c0.022,0.01,0.038,0.025,0.048,0.045c0.001,0.003,0.005,0.009,0.011,0.02c0.006,0.011,0.01,0.021,0.014,0.03
		C4.848,5.994,4.85,6.002,4.851,6.01c0,0.001,0.001,0.002,0.002,0.002C4.854,6.013,4.855,6.015,4.857,6.016z"/>
</g>
</svg>
