<?xml version="1.0" encoding="utf-8"?>
<!-- Generator: Adobe Illustrator 19.0.0, SVG Export Plug-In . SVG Version: 6.00 Build 0)  -->
<svg version="1.1" id="Layer_1" xmlns="http://www.w3.org/2000/svg" xmlns:xlink="http://www.w3.org/1999/xlink" x="0px" y="0px"
	 viewBox="0 0 64 64" enable-background="new 0 0 64 64" xml:space="preserve">
<g id="XMLID_26_">
	<rect id="XMLID_1_" fill="#FFFFFF" width="64" height="64"/>
	<g id="XMLID_27_">
		
			<ellipse id="XMLID_25_" transform="matrix(-0.032 0.9995 -0.9995 -0.032 90.1313 -32.1824)" fill-rule="evenodd" clip-rule="evenodd" fill="#E6E6E6" cx="60.65" cy="27.554" rx="0.792" ry="2.807"/>
		
			<ellipse id="XMLID_24_" transform="matrix(0.1229 -0.9924 0.9924 0.1229 -9.038 74.7041)" fill-rule="evenodd" clip-rule="evenodd" fill="#E6E6E6" cx="37.743" cy="42.465" rx="0.792" ry="9.316"/>
		
			<ellipse id="XMLID_23_" transform="matrix(0.2275 -0.9738 0.9738 0.2275 -26.9722 42.4467)" fill-rule="evenodd" clip-rule="evenodd" fill="#E6E6E6" cx="13.268" cy="38.224" rx="0.792" ry="9.316"/>
		<path id="XMLID_22_" fill-rule="evenodd" clip-rule="evenodd" fill="#E6E6E6" d="M32.052,26.125
			c2.015-0.648,2.807-1.259,2.735-1.727c-0.072-0.468-2.951-0.576-3.31,0.612C31.117,26.197,31.656,26.269,32.052,26.125z"/>
		<path id="XMLID_21_" fill-rule="evenodd" clip-rule="evenodd" fill="#75B1B3" d="M22.886,32.198c0,0.054,0.051,0.897,0.051,0.897
			s-0.285,2.962-1.653,4.41c-1.367,1.448-2.423,1.322-2.423,1.322l2.23-2.694l0.45-1.961C21.541,34.172,22.179,32.31,22.886,32.198z
			"/>
		<path id="XMLID_20_" fill-rule="evenodd" clip-rule="evenodd" fill="#5F9EA0" d="M12.039,38.237c2.13,0.72,5.988,0.662,6.822,0.59
			c0.835-0.072,1.871-0.576,2.404-2.217c0.533-1.641,0.576-2.936,0.95-3.296c0.374-0.36,1.583-0.23,2.677-0.014
			c1.094,0.216,1.67,1.079,1.857,1.742c0.187,0.662,0.619,1.857,0.95,2.792c0.331,0.936,0.979,1.77,1.526,2.332
			c0.547,0.561,3.282,1.511,7.585,2.159c4.304,0.648,9.01-0.331,9.284-0.576c0.273-0.245,0.792-0.432,1.008-2.332
			c0.216-1.9,1.461-2.332,1.77-2.469c0.309-0.137,0.698-0.187,0.698-0.187v-3.223c0,0-2.409-0.288-4.082-0.666
			c-1.673-0.378-6.207-1.403-11.784-1.547c-5.577-0.144-7.305,0.09-8.312,0.108c-1.008,0.018-2.177,0.072-2.915-0.27
			c-0.738-0.342-2.537-1.134-4.157-1.584c-1.619-0.45-7.179-1.385-9.284-1.727c-2.105-0.342-3.436-0.18-3.742-0.18
			c-0.306,0-0.63-0.414-0.63-0.414l-0.378,0.126v2.267c0,0,0.036,0.378,0.54,0.9c1.488,1.541,1.022,2.684,1.764,4.38
			C7.205,36.34,10.661,37.772,12.039,38.237z"/>
		<path id="XMLID_19_" fill-rule="evenodd" clip-rule="evenodd" fill="#FFFFFF" d="M7.001,33.835
			c0.144,0.396,0.288,1.007,0.828,1.457c0.54,0.45,2.375,2.087,5.649,2.627c3.274,0.54,5.074,0.504,5.847,0.054
			c0.774-0.45,1.241-1.943,1.475-3.005c0.152-0.688,0.408-3.192-0.213-3.62c-1.065-1.023-5.121-1.816-6.21-2.03
			c-2.285-0.45-3.634-0.756-4.822-0.882c-0.832-0.088-1.709-0.132-2.239-0.046c-0.226,0.037-0.39,0.098-0.46,0.189
			c-0.139,0.182-0.158,1.225-0.119,2.338C6.782,32.195,6.902,33.564,7.001,33.835z"/>
		<path id="XMLID_18_" fill-rule="evenodd" clip-rule="evenodd" fill="#FFFFFF" d="M30.797,31.761
			c-1.529,0.018-3.328,0.09-3.274,1.475s0.36,2.609,0.899,4.048c0.54,1.439,1.097,2.483,2.591,3.041
			c1.493,0.558,3.526,1.008,6.063,1.385c1.454,0.216,3.696,0.299,5.425,0.182c0.941-0.064,3.108-0.199,3.409-1.405
			c0.06-0.241,0.193-1.33,0.18-2.501c-0.011-1.011-0.079-2.393-0.227-3.41c-0.073-0.503-0.342-0.816-1.68-1.213
			C40.37,32.232,34.766,31.715,30.797,31.761z"/>
		<path id="XMLID_17_" fill-rule="evenodd" clip-rule="evenodd" fill="#75B1B3" d="M28.01,32.241
			c-0.317,0.217-0.506,0.533-0.488,0.996c0.054,1.385,0.36,2.609,0.899,4.048c0.468,1.249,0.95,2.2,2.046,2.794
			c-0.904-0.953-1.379-2.499-1.651-4.045c-0.36-2.051-0.864-2.375-0.953-2.789C27.775,32.836,28.005,32.254,28.01,32.241z"/>
		<path id="XMLID_16_" fill-rule="evenodd" clip-rule="evenodd" fill="#558E90" d="M5.446,27.254l-0.39-0.487
			c0,0,1.587-0.493,2.306-0.736c0.72-0.243,11.1-4.462,12.954-5.182c1.853-0.72,3.976-1.205,7.376-0.666
			c3.4,0.54,6.081,1.673,6.189,1.691s0.594,0.243,0.621,0.666c0.02,0.306-0.542,1.088-0.853,1.494
			c-0.262,0.343-0.403,0.409-0.888,0.219c-0.391-0.153-2.658-1.043-3.756-1.313c-1.097-0.27-3.841-0.855-7.763,0.531
			c-3.922,1.385-10.975,4.327-10.975,4.327L5.446,27.254z"/>
		<path id="XMLID_15_" fill-rule="evenodd" clip-rule="evenodd" fill="#558E90" d="M48.533,32.98l1.223-0.006
			c0,0,3.346-2.477,5.397-4.456c2.051-1.979,4.642-5.217,4.642-5.217s0.387-0.162,0.369,0.324c-0.018,0.486-0.027,2.357-0.027,2.357
			s-0.063,0.216-0.396,0.747c-2.214,3.53-5.732,6.639-8.96,9.212v0.504c0,0-0.618,0.201-1.212,0.319
			c-0.164,0.032-0.277-0.015-0.434,0.014C48.832,36.832,49.083,34.305,48.533,32.98z"/>
		<path id="XMLID_14_" fill-rule="evenodd" clip-rule="evenodd" fill="#75B1B3" d="M4.285,27.385c0,0,0.503-0.603,0.863-0.639
			c0.36-0.036,0.899,0.18,1.835,0.288c0.936,0.108,8.654,1.385,11.676,2.231c3.023,0.846,4.282,1.331,4.768,1.601
			c0.486,0.27,3.148,0.216,4.534,0.09c1.385-0.126,7.862-0.126,12.36,0.486s8.942,1.421,9.266,1.493
			c0.324,0.072,0.684,0.162,0.684,0.162l-0.701,0.442c0,0-2.409-0.288-4.082-0.666c-1.673-0.378-6.207-1.403-11.784-1.547
			c-5.577-0.144-7.305,0.09-8.312,0.108c-1.008,0.018-2.177,0.072-2.915-0.27c-0.738-0.342-2.537-1.134-4.157-1.584
			c-1.619-0.45-7.179-1.385-9.284-1.727c-2.105-0.342-3.436-0.18-3.742-0.18c-0.306,0-0.63-0.414-0.63-0.414L4.285,27.385z"/>
		<path id="XMLID_28_" fill-rule="evenodd" clip-rule="evenodd" fill="#417575" d="M12.504,24.605
			c-0.075,0.03-0.138,0.069-0.187,0.116c-0.048,0.047-0.079,0.099-0.093,0.158c-0.014,0.058-0.009,0.115,0.013,0.17
			c0.008,0.019,0.018,0.038,0.031,0.057c0.028,0.035,0.057,0.065,0.088,0.09c0.02,0.017,0.034,0.032,0.039,0.046
			c0.008,0.019,0.005,0.045-0.009,0.076c-0.07,0.136-0.084,0.29-0.042,0.461c0.006,0.03,0.016,0.063,0.03,0.097
			c0.052,0.126,0.147,0.216,0.286,0.271c0.054,0.02,0.108,0.029,0.163,0.028c0.055-0.001,0.107-0.013,0.156-0.038
			c0.093-0.051,0.165-0.093,0.215-0.124c0.049-0.031,0.097-0.07,0.143-0.118c0.076-0.083,0.127-0.172,0.155-0.269
			c0.045-0.172,0.074-0.318,0.087-0.438c0.001-0.051,0-0.088-0.002-0.11c-0.001-0.01-0.002-0.017-0.004-0.023
			c-0.007-0.018-0.022-0.029-0.044-0.034c-0.014-0.005-0.028-0.004-0.042,0.002c-0.014,0.007-0.028,0.019-0.041,0.036
			c-0.018,0.025-0.031,0.053-0.038,0.083c-0.007,0.03-0.011,0.066-0.013,0.106c-0.004,0.053-0.013,0.114-0.027,0.185
			c-0.005,0.024-0.012,0.059-0.02,0.105c-0.01,0.069-0.035,0.131-0.074,0.186c-0.039,0.055-0.089,0.105-0.152,0.15
			c-0.025,0.02-0.048,0.035-0.068,0.044c-0.05,0.023-0.1,0.028-0.151,0.017c-0.051-0.012-0.098-0.039-0.141-0.082
			c-0.034-0.034-0.06-0.071-0.077-0.113c-0.016-0.039-0.026-0.08-0.03-0.125c-0.004-0.044-0.005-0.095-0.004-0.154
			c0.002-0.093,0.045-0.165,0.128-0.217c0.053-0.031,0.088-0.051,0.104-0.06c0.03-0.022,0.051-0.045,0.065-0.069
			c0.014-0.024,0.016-0.046,0.008-0.066c-0.011-0.021-0.026-0.037-0.046-0.045c-0.02-0.009-0.046-0.014-0.075-0.017
			c-0.01,0-0.031,0.001-0.062,0.003c-0.031,0.002-0.059,0.001-0.084-0.002c-0.021-0.002-0.04-0.009-0.057-0.021
			c-0.017-0.012-0.029-0.027-0.036-0.045c-0.005-0.012-0.008-0.025-0.007-0.036c-0.003-0.051,0.021-0.093,0.07-0.124
			c0.023-0.014,0.046-0.021,0.07-0.02c0.024,0.001,0.045,0.01,0.064,0.027c0.006,0.007,0.014,0.016,0.022,0.026
			c0.008,0.01,0.016,0.018,0.023,0.023c0.028,0.02,0.056,0.024,0.083,0.011c0.021-0.01,0.036-0.028,0.045-0.056
			c0.02-0.041,0.022-0.08,0.006-0.119c-0.011-0.026-0.028-0.048-0.052-0.065c-0.043-0.028-0.094-0.043-0.151-0.047
			C12.684,24.538,12.595,24.558,12.504,24.605L12.504,24.605z M14.11,25.088c-0.004-0.005-0.014-0.022-0.03-0.051
			c-0.016-0.029-0.035-0.057-0.057-0.085C14,24.92,13.97,24.899,13.933,24.89c-0.036-0.009-0.074-0.004-0.112,0.013
			c-0.011,0.005-0.027,0.016-0.047,0.032c-0.038,0.031-0.066,0.067-0.083,0.11c-0.025,0.069-0.045,0.135-0.058,0.196
			c-0.013,0.061-0.018,0.122-0.014,0.181c0.003,0.045,0.013,0.087,0.03,0.127c0.025,0.061,0.057,0.102,0.095,0.124
			c0.038,0.022,0.087,0.025,0.144,0.01c0.006-0.001,0.014-0.003,0.023-0.006c0.009-0.003,0.019-0.006,0.031-0.012
			c0.017-0.008,0.033-0.019,0.047-0.034c0.016-0.019,0.032-0.032,0.049-0.04c0.027-0.012,0.061-0.011,0.103,0.004
			c0.06,0.023,0.119,0.022,0.175-0.004c0.051-0.024,0.091-0.063,0.121-0.118c0.051-0.089,0.068-0.194,0.052-0.315l-0.001-0.009
			c-0.005-0.012-0.016-0.019-0.033-0.019c-0.003,0-0.009,0.001-0.016,0.005c-0.008,0.004-0.016,0.012-0.023,0.023
			c-0.007,0.011-0.011,0.023-0.013,0.036l-0.013,0.073c-0.007,0.049-0.016,0.094-0.027,0.136c-0.006,0.019-0.011,0.034-0.016,0.044
			c-0.005,0.011-0.013,0.018-0.024,0.024c-0.02,0.009-0.036,0.009-0.049-0.001c-0.013-0.01-0.024-0.025-0.034-0.045
			c-0.007-0.013-0.017-0.035-0.029-0.065l-0.062-0.169L14.11,25.088L14.11,25.088z M13.882,25.112c0.018,0,0.029,0.007,0.032,0.022
			c0.025,0.094,0.043,0.164,0.055,0.212c0.014,0.061,0.007,0.118-0.019,0.169c-0.01,0.016-0.023,0.026-0.038,0.03
			c-0.02,0.008-0.036-0.001-0.047-0.028l-0.011-0.027c-0.007-0.018-0.011-0.032-0.012-0.041
			C13.83,25.348,13.843,25.235,13.882,25.112L13.882,25.112z M14.806,25.303c-0.073,0.022-0.133,0.031-0.179,0.025
			c-0.046-0.006-0.086-0.033-0.12-0.082c-0.007-0.008-0.014-0.022-0.021-0.04c-0.01-0.024-0.015-0.052-0.016-0.087
			c0.001-0.047,0.004-0.117,0.009-0.211c0-0.021-0.002-0.035-0.004-0.04c-0.002-0.006-0.008-0.01-0.016-0.014
			c-0.008-0.004-0.019-0.007-0.032-0.009c-0.051-0.009-0.085-0.034-0.101-0.074c-0.009-0.021-0.013-0.041-0.015-0.06
			c-0.002-0.022,0.001-0.042,0.01-0.059c0.009-0.017,0.021-0.029,0.037-0.037c0.006-0.003,0.013-0.004,0.023-0.006
			c0.038-0.006,0.064,0.008,0.078,0.041c0.005,0.011,0.007,0.024,0.008,0.038c0.001,0.008,0.001,0.016,0,0.025
			c-0.001,0.009-0.002,0.016-0.001,0.023c0.002,0.012,0.011,0.016,0.028,0.012c0.011-0.005,0.021-0.014,0.029-0.026
			c0.008-0.012,0.013-0.019,0.015-0.022c0.005-0.007,0.014-0.02,0.025-0.038c0.011-0.018,0.022-0.033,0.032-0.045
			c0.008-0.01,0.017-0.018,0.028-0.023c0.017-0.008,0.038-0.008,0.063-0.002c0.018,0.007,0.031,0.019,0.038,0.037
			c0.006,0.014,0.008,0.028,0.007,0.041c-0.001,0.03-0.004,0.059-0.01,0.086c-0.013,0.095-0.016,0.219-0.008,0.372
			c0.001,0.006,0.001,0.017,0.001,0.032c-0.001,0.015,0.001,0.027,0.005,0.037c0.007,0.017,0.021,0.026,0.043,0.03
			c0.01,0,0.02-0.002,0.028-0.005c0.013-0.006,0.023-0.014,0.031-0.026c0.008-0.011,0.018-0.026,0.031-0.045
			c0.015-0.025,0.029-0.056,0.042-0.094l0.076-0.24c0.013-0.042,0.024-0.074,0.034-0.095c0.007-0.011,0.015-0.019,0.023-0.023
			c0.01-0.005,0.02-0.006,0.029-0.004c0.013,0.004,0.022,0.01,0.026,0.02c0.003,0.007,0.004,0.015,0.003,0.026
			c0,0.005-0.001,0.013-0.003,0.024c-0.019,0.08-0.038,0.148-0.057,0.205c-0.019,0.057-0.041,0.111-0.067,0.163
			c-0.018,0.038-0.041,0.072-0.068,0.102C14.861,25.267,14.833,25.289,14.806,25.303L14.806,25.303z M15.571,24.615
			c0.019-0.053,0.022-0.093,0.011-0.121c-0.005-0.011-0.01-0.015-0.016-0.012c-0.006,0.003-0.012,0.012-0.015,0.027
			c-0.006,0.026-0.023,0.068-0.051,0.126c-0.028,0.058-0.056,0.112-0.087,0.161c-0.03,0.049-0.054,0.078-0.071,0.086
			c-0.01,0.005-0.02-0.002-0.032-0.019c-0.011-0.017-0.024-0.043-0.038-0.077c-0.025-0.061-0.048-0.126-0.068-0.196l-0.017-0.047
			c-0.025-0.073-0.047-0.146-0.068-0.22c0.045-0.251,0.033-0.452-0.036-0.603c-0.009-0.019-0.022-0.03-0.037-0.035
			c-0.015-0.004-0.032-0.003-0.048,0.005c-0.017,0.008-0.032,0.022-0.046,0.041c-0.029,0.041-0.045,0.089-0.05,0.144
			c-0.005,0.055-0.005,0.118,0,0.188c0.021,0.288,0.072,0.552,0.152,0.792c0.01,0.028,0.03,0.061,0.06,0.098
			c0.03,0.037,0.064,0.067,0.102,0.09c0.038,0.023,0.073,0.031,0.106,0.024C15.386,25.052,15.47,24.901,15.571,24.615L15.571,24.615
			z M15.044,24.023c-0.02-0.096-0.03-0.168-0.033-0.214l0.002-0.045c0.002-0.016,0.005-0.025,0.009-0.027
			c0.007-0.003,0.017,0.016,0.031,0.057c0.013,0.039,0.024,0.076,0.033,0.111c0.014,0.054,0.022,0.111,0.023,0.17
			c0.001,0.059,0,0.127-0.003,0.204C15.075,24.163,15.054,24.078,15.044,24.023L15.044,24.023z M16.157,25.002
			c-0.079,0.042-0.151,0.046-0.216,0.012c-0.041-0.022-0.07-0.051-0.085-0.087c-0.014-0.033-0.016-0.071-0.005-0.114
			c0.01-0.036,0.022-0.067,0.035-0.093c0.015-0.037,0.025-0.064,0.029-0.081c0.005-0.017,0.005-0.03,0.001-0.04
			c-0.005-0.011-0.015-0.018-0.031-0.022c-0.016-0.003-0.044-0.006-0.084-0.009c-0.003,0-0.019-0.002-0.046-0.006
			c-0.007,0-0.032-0.002-0.076-0.006c0,0-0.007-0.003-0.021-0.008c-0.099-0.018-0.163-0.062-0.192-0.13
			c-0.021-0.051-0.025-0.113-0.01-0.186c0.018-0.101,0.08-0.186,0.185-0.255c0.025-0.017,0.057-0.024,0.095-0.022
			c0.052,0.004,0.084,0.02,0.097,0.049c0.01,0.023,0.006,0.052-0.012,0.087l-0.049,0.09c-0.018,0.033-0.029,0.063-0.033,0.09
			c-0.007,0.051-0.006,0.089,0.004,0.112c0.007,0.017,0.019,0.03,0.037,0.04c0.018,0.01,0.044,0.018,0.079,0.025
			c0.023,0.007,0.043,0.011,0.058,0.012c0.025,0.003,0.045,0.007,0.061,0.011c0.026,0.006,0.047,0.009,0.062,0.008
			c0.015,0,0.032-0.005,0.052-0.015c0.023-0.011,0.051-0.03,0.085-0.057l0.035-0.031c0.003-0.005,0.017-0.015,0.043-0.03
			l0.025-0.014c0.027-0.013,0.054-0.018,0.082-0.016c0.02,0,0.033,0.007,0.039,0.019c0.007,0.017,0.002,0.032-0.014,0.046
			c-0.011,0.01-0.031,0.023-0.059,0.04l-0.044,0.023l0.025-0.012c0.016-0.007,0.01-0.002-0.017,0.015
			c-0.026,0.017-0.045,0.03-0.057,0.039c-0.018,0.017-0.03,0.03-0.036,0.04c-0.006,0.01-0.007,0.021-0.002,0.032
			c0.004,0.01,0.012,0.022,0.023,0.036c0.007,0.008,0.015,0.017,0.025,0.027c0.01,0.009,0.02,0.021,0.031,0.034
			c0.014,0.018,0.026,0.038,0.035,0.06c0.023,0.054,0.022,0.104-0.002,0.152c-0.024,0.048-0.063,0.086-0.116,0.116
			c-0.007,0.005-0.013,0.008-0.02,0.011C16.169,24.997,16.163,24.999,16.157,25.002L16.157,25.002z M15.974,24.88
			c0.004,0.01,0.011,0.017,0.02,0.021c0.01,0.005,0.019,0.005,0.027,0.001l0.008-0.006c0.018-0.017,0.03-0.039,0.034-0.067
			c0.004-0.028,0.001-0.054-0.011-0.078c-0.007-0.008-0.017-0.013-0.031-0.013c-0.014,0.002-0.027,0.014-0.038,0.036
			c-0.011,0.022-0.016,0.048-0.015,0.078C15.968,24.861,15.97,24.87,15.974,24.88L15.974,24.88z M16.322,24.235
			c0.03,0.072,0.073,0.13,0.129,0.173c0.044,0.033,0.089,0.051,0.134,0.057c0.046,0.005,0.09-0.002,0.133-0.021
			c0.037-0.017,0.069-0.042,0.096-0.074c0.161-0.187,0.227-0.407,0.199-0.659c0-0.005-0.002-0.011-0.005-0.018
			c-0.008-0.019-0.022-0.03-0.041-0.033c-0.01,0-0.019,0.002-0.028,0.006c-0.014,0.007-0.026,0.017-0.035,0.031
			c-0.02,0.039-0.037,0.096-0.053,0.172c-0.017,0.09-0.037,0.173-0.059,0.249c-0.016,0.058-0.038,0.104-0.065,0.136
			c-0.001,0.002-0.004,0.004-0.01,0.007c-0.008,0.004-0.017,0.005-0.026,0.002c-0.009-0.003-0.014-0.008-0.015-0.015
			c-0.009-0.022-0.016-0.045-0.021-0.069c-0.041-0.231-0.071-0.405-0.088-0.522c-0.003-0.025-0.006-0.042-0.009-0.053
			c-0.006-0.035-0.008-0.061-0.006-0.079c0.002-0.017,0.012-0.034,0.03-0.05c0.018-0.016,0.05-0.034,0.095-0.055l0.028-0.013
			c0.018-0.008,0.031-0.016,0.039-0.023c0.026-0.02,0.044-0.038,0.057-0.053c0.03-0.03,0.039-0.062,0.026-0.096
			c-0.011-0.028-0.039-0.045-0.083-0.053c-0.039-0.004-0.072,0.002-0.102,0.017c-0.045,0.022-0.079,0.034-0.103,0.036
			c-0.024,0.002-0.043-0.005-0.058-0.02c-0.015-0.015-0.029-0.043-0.044-0.082c-0.003-0.007-0.008-0.015-0.015-0.025
			c-0.016-0.024-0.038-0.039-0.064-0.046c-0.026-0.007-0.054-0.004-0.082,0.009c-0.047,0.021-0.077,0.058-0.092,0.109
			c-0.011,0.056-0.016,0.105-0.017,0.149c0,0.032-0.008,0.058-0.022,0.078c-0.014,0.021-0.036,0.038-0.066,0.051
			c-0.049,0.019-0.09,0.04-0.122,0.061c-0.03,0.017-0.072,0.046-0.126,0.087c-0.01,0.008-0.017,0.018-0.022,0.03
			c-0.004,0.012-0.005,0.024-0.001,0.037c0.009,0.022,0.029,0.034,0.06,0.034c0.028,0.002,0.058-0.001,0.092-0.01
			c0.033-0.009,0.056-0.014,0.069-0.017c0.008-0.002,0.019-0.006,0.035-0.014l0.047-0.021c0.024-0.008,0.044-0.008,0.06-0.001
			c0.017,0.007,0.028,0.019,0.035,0.036c0.005,0.012,0.009,0.033,0.01,0.062l0.006,0.046L16.322,24.235L16.322,24.235z
			 M17.558,23.932c0.045-0.022,0.082-0.057,0.112-0.104c0.03-0.047,0.044-0.104,0.044-0.169c0-0.008,0-0.02-0.001-0.037
			c-0.001-0.016-0.002-0.029-0.005-0.04c-0.01-0.038-0.01-0.07,0-0.095c0.011-0.025,0.035-0.047,0.073-0.064
			c0.028-0.014,0.052-0.035,0.072-0.061c0.02-0.027,0.034-0.056,0.041-0.089c0.006-0.022,0.005-0.043-0.002-0.061
			c-0.006-0.014-0.015-0.025-0.027-0.035c-0.012-0.009-0.027-0.014-0.044-0.014c-0.011-0.003-0.024-0.001-0.038,0.005
			c-0.028,0.013-0.047,0.038-0.055,0.075c-0.003,0.01-0.005,0.022-0.005,0.037c-0.001,0.015-0.001,0.028-0.002,0.038
			c-0.005,0.02-0.018,0.035-0.037,0.044c-0.014,0.006-0.027,0.007-0.039,0.003l-0.075-0.042c-0.043-0.028-0.085-0.039-0.124-0.032
			c-0.071,0.013-0.137,0.017-0.199,0.014c-0.016-0.002-0.031,0-0.046,0.006c-0.024,0.011-0.043,0.033-0.057,0.065
			c-0.02,0.047-0.031,0.097-0.034,0.151c-0.003,0.041-0.002,0.081,0.003,0.119c0.006,0.038,0.015,0.085,0.027,0.14
			c0.005,0.021,0.01,0.036,0.014,0.046c0.029,0.072,0.082,0.117,0.156,0.136c0.075,0.018,0.151,0.009,0.228-0.028L17.558,23.932
			L17.558,23.932z M17.547,23.449c0.023,0.06,0.027,0.122,0.014,0.185c-0.014,0.063-0.043,0.113-0.087,0.149
			c-0.01,0.008-0.018,0.013-0.024,0.016c-0.023,0.01-0.041,0.002-0.056-0.026c-0.03-0.075-0.046-0.153-0.048-0.235
			c-0.001-0.047,0.024-0.095,0.075-0.143c0.007-0.007,0.014-0.011,0.02-0.014c0.013-0.006,0.027-0.007,0.042-0.003
			c0.015,0.004,0.027,0.012,0.035,0.025c0.006,0.007,0.012,0.015,0.018,0.025C17.542,23.438,17.545,23.445,17.547,23.449
			L17.547,23.449z M18.73,23.289c0.012-0.018,0.019-0.036,0.022-0.055c0.003-0.019,0.005-0.042,0.006-0.068
			c-0.001-0.035,0.001-0.066,0.005-0.092c0.003-0.016,0.011-0.026,0.023-0.031c0.004-0.002,0.01-0.002,0.017-0.002
			c0.019-0.001,0.033,0.009,0.041,0.032l0.007,0.019c-0.007,0.074-0.016,0.135-0.027,0.183c-0.011,0.048-0.029,0.095-0.054,0.141
			c-0.014,0.027-0.036,0.046-0.066,0.058c-0.03,0.012-0.062,0.015-0.095,0.008c-0.033-0.007-0.057-0.022-0.072-0.047
			c-0.013-0.022-0.023-0.043-0.029-0.061c-0.008-0.021-0.013-0.043-0.016-0.066c-0.011-0.057-0.031-0.127-0.06-0.211l-0.037-0.104
			c-0.004-0.01-0.007-0.019-0.012-0.027c-0.004-0.008-0.009-0.015-0.013-0.022c-0.003-0.004-0.007-0.006-0.012-0.007
			c-0.005-0.001-0.01-0.001-0.014,0.001c-0.006,0.002-0.01,0.007-0.013,0.013c-0.004,0.002-0.007,0.004-0.007,0.008
			c-0.014,0.08-0.022,0.151-0.023,0.213c-0.001,0.062,0.009,0.122,0.029,0.18c0.01,0.027,0.031,0.058,0.065,0.092
			c0.021,0.017,0.035,0.034,0.041,0.051c0.004,0.013,0.004,0.028-0.003,0.047c-0.012,0.027-0.031,0.046-0.057,0.057
			c-0.009,0.003-0.017,0.006-0.025,0.008c-0.008,0.002-0.015,0.003-0.021,0.004c-0.072,0.011-0.127-0.005-0.167-0.051
			c-0.116-0.121-0.193-0.237-0.232-0.347c-0.024-0.068-0.037-0.136-0.038-0.205c0-0.023,0.002-0.045,0.006-0.068
			c0.005-0.028,0.019-0.047,0.042-0.056c0.022-0.009,0.043-0.007,0.064,0.006c0.024,0.013,0.042,0.031,0.054,0.053
			c0.015,0.023,0.027,0.044,0.037,0.061c0.01,0.018,0.017,0.033,0.024,0.045l0.022,0.042c0.001,0.003,0.003,0.005,0.006,0.007
			c0.003,0.002,0.006,0.003,0.01,0.003c0.014,0.002,0.022-0.004,0.025-0.02c0.003-0.02,0.009-0.041,0.018-0.061
			c0.009-0.02,0.021-0.041,0.035-0.064c0.014-0.023,0.025-0.04,0.033-0.051c0.022-0.035,0.044-0.057,0.066-0.066
			c0.026-0.011,0.06-0.007,0.103,0.011c0.077,0.036,0.133,0.089,0.167,0.157c0.005,0.009,0.017,0.033,0.037,0.07
			c0.02,0.037,0.036,0.073,0.048,0.107c0.009,0.025,0.016,0.053,0.022,0.083c0.001,0.003,0.003,0.006,0.007,0.008
			C18.721,23.281,18.725,23.285,18.73,23.289z"/>
	</g>
</g>
</svg>
