<?xml version="1.0" encoding="utf-8"?>
<!-- Generator: Adobe Illustrator 19.0.0, SVG Export Plug-In . SVG Version: 6.00 Build 0)  -->
<svg version="1.1" id="Layer_1" xmlns="http://www.w3.org/2000/svg" xmlns:xlink="http://www.w3.org/1999/xlink" x="0px" y="0px"
	 viewBox="0 0 1100 740" enable-background="new 0 0 1100 740" xml:space="preserve">
<g>
	<rect x="0" y="0" fill="#FFFFFF" width="1100" height="740"/>
	<g>
		<g>
			<g>
				<path fill="#5F9EA0" d="M575.64,714.252c-0.258,0-0.461-0.065-0.611-0.192c-0.152-0.129-0.252-0.293-0.299-0.49
					c-0.045-0.197-0.039-0.397,0.018-0.594c0.059-0.199,0.182-0.367,0.367-0.508l0.981-0.734c0.744-0.535,1.479-1.076,2.201-1.625
					c0.723-0.547,1.457-1.102,2.203-1.66c0.815-0.605,1.631-1.213,2.447-1.818c0.814-0.606,1.631-1.211,2.447-1.818
					c0.162-0.115,0.35-0.273,0.559-0.471c0.211-0.199,0.432-0.391,0.664-0.578c0.232-0.186,0.473-0.35,0.717-0.488
					c0.244-0.141,0.473-0.211,0.682-0.211c0.256,0,0.461,0.07,0.611,0.211c0.152,0.139,0.258,0.303,0.316,0.488
					c0.057,0.188,0.057,0.379,0,0.578c-0.059,0.197-0.182,0.367-0.367,0.506l-0.98,0.734c-0.746,0.559-1.481,1.113-2.201,1.66
					c-0.723,0.549-1.457,1.09-2.203,1.627l-4.895,3.67c-0.162,0.117-0.35,0.267-0.559,0.455c-0.211,0.186-0.438,0.371-0.682,0.559
					c-0.246,0.186-0.49,0.35-0.734,0.49C576.078,714.182,575.849,714.252,575.64,714.252z"/>
			</g>
			<g>
				<path fill="#5F9EA0" d="M592.218,705.824c0.15-0.022,0.301-0.037,0.451-0.047c0.15-0.012,0.285-0.017,0.402-0.017
					c0.15,0,0.305,0.006,0.459,0.017c0.156,0.01,0.293,0.025,0.412,0.047l1.609,6.75l1.82-6.75c0.119-0.022,0.248-0.037,0.387-0.047
					c0.141-0.012,0.285-0.017,0.436-0.017c0.172,0.012,0.32,0.019,0.443,0.025c0.123,0.006,0.244,0.017,0.361,0.039l1.805,6.637
					l1.611-6.637c0.117-0.022,0.236-0.037,0.353-0.047c0.119-0.012,0.248-0.017,0.387-0.017c0.119,0,0.25,0.006,0.394,0.017
					c0.145,0.01,0.293,0.025,0.443,0.047l-2.465,8.264c-0.139,0.021-0.281,0.037-0.426,0.049c-0.146,0.01-0.277,0.016-0.395,0.016
					c-0.119,0-0.248-0.006-0.387-0.016c-0.141-0.012-0.279-0.027-0.42-0.049l-1.771-6.25l-1.852,6.25
					c-0.152,0.021-0.299,0.037-0.443,0.049c-0.144,0.01-0.277,0.016-0.394,0.016c-0.119,0-0.25-0.006-0.395-0.016
					c-0.146-0.012-0.277-0.027-0.395-0.049L592.218,705.824z"/>
				<path fill="#5F9EA0" d="M604.703,705.824c0.15-0.022,0.301-0.037,0.451-0.047c0.15-0.012,0.285-0.017,0.402-0.017
					c0.15,0,0.305,0.006,0.459,0.017c0.156,0.01,0.293,0.025,0.412,0.047l1.609,6.75l1.82-6.75c0.119-0.022,0.248-0.037,0.387-0.047
					c0.141-0.012,0.285-0.017,0.436-0.017c0.172,0.012,0.32,0.019,0.443,0.025c0.123,0.006,0.244,0.017,0.361,0.039l1.805,6.637
					l1.611-6.637c0.117-0.022,0.236-0.037,0.354-0.047c0.119-0.012,0.248-0.017,0.387-0.017c0.119,0,0.25,0.006,0.395,0.017
					c0.144,0.01,0.293,0.025,0.443,0.047l-2.465,8.264c-0.139,0.021-0.281,0.037-0.426,0.049c-0.146,0.01-0.277,0.016-0.395,0.016
					c-0.119,0-0.248-0.006-0.387-0.016c-0.141-0.012-0.279-0.027-0.42-0.049l-1.772-6.25l-1.852,6.25
					c-0.152,0.021-0.299,0.037-0.443,0.049c-0.145,0.01-0.277,0.016-0.395,0.016c-0.119,0-0.25-0.006-0.394-0.016
					c-0.147-0.012-0.277-0.027-0.395-0.049L604.703,705.824z"/>
				<path fill="#5F9EA0" d="M617.187,705.824c0.15-0.022,0.301-0.037,0.451-0.047c0.15-0.012,0.283-0.017,0.402-0.017
					c0.15,0,0.303,0.006,0.459,0.017c0.154,0.01,0.293,0.025,0.41,0.047l1.611,6.75l1.82-6.75c0.117-0.022,0.246-0.037,0.387-0.047
					c0.139-0.012,0.283-0.017,0.434-0.017c0.172,0.012,0.32,0.019,0.443,0.025c0.123,0.006,0.244,0.017,0.363,0.039l1.805,6.637
					l1.609-6.637c0.119-0.022,0.236-0.037,0.355-0.047c0.117-0.012,0.246-0.017,0.387-0.017c0.117,0,0.25,0.006,0.394,0.017
					c0.145,0.01,0.293,0.025,0.443,0.047l-2.465,8.264c-0.141,0.021-0.283,0.037-0.428,0.049c-0.145,0.01-0.275,0.016-0.395,0.016
					c-0.117,0-0.246-0.006-0.387-0.016c-0.139-0.012-0.279-0.027-0.418-0.049l-1.771-6.25l-1.854,6.25
					c-0.15,0.021-0.299,0.037-0.443,0.049c-0.144,0.01-0.275,0.016-0.394,0.016c-0.117,0-0.25-0.006-0.395-0.016
					c-0.145-0.012-0.277-0.027-0.395-0.049L617.187,705.824z"/>
				<path fill="#5F9EA0" d="M629.718,714.088c-0.022-0.15-0.039-0.297-0.057-0.443c-0.016-0.144-0.023-0.291-0.023-0.441
					c0-0.15,0.008-0.305,0.023-0.459c0.018-0.156,0.035-0.309,0.057-0.459c0.15-0.022,0.299-0.039,0.443-0.049
					c0.144-0.012,0.293-0.016,0.443-0.016s0.301,0.004,0.451,0.016c0.15,0.01,0.301,0.027,0.451,0.049
					c0.021,0.15,0.039,0.301,0.057,0.449c0.016,0.152,0.023,0.301,0.023,0.451c0,0.15-0.008,0.301-0.023,0.451
					c-0.018,0.15-0.035,0.301-0.057,0.451c-0.15,0.021-0.299,0.037-0.443,0.049c-0.145,0.01-0.293,0.016-0.443,0.016
					s-0.301-0.006-0.451-0.016C630.019,714.125,629.869,714.109,629.718,714.088z"/>
				<path fill="#5F9EA0" d="M634.406,707.082h-1.354c-0.043-0.172-0.064-0.381-0.064-0.629c0-0.236,0.021-0.445,0.064-0.629h1.354
					v-0.58c0-1.019,0.303-1.795,0.91-2.326c0.607-0.533,1.441-0.799,2.506-0.799c0.43,0,0.818,0.027,1.168,0.082
					c0.348,0.053,0.742,0.154,1.184,0.305c0,0.248-0.039,0.48-0.113,0.701c-0.074,0.221-0.166,0.422-0.273,0.604
					c-0.322-0.129-0.615-0.219-0.879-0.273c-0.262-0.053-0.582-0.08-0.957-0.08c-0.279,0-0.537,0.023-0.773,0.072
					c-0.236,0.049-0.441,0.141-0.613,0.273c-0.172,0.135-0.309,0.322-0.41,0.565c-0.102,0.242-0.152,0.551-0.152,0.926v0.531h4.977
					v8.264c-0.117,0.021-0.25,0.037-0.395,0.049c-0.144,0.01-0.277,0.016-0.394,0.016c-0.119,0-0.25-0.006-0.395-0.016
					c-0.144-0.012-0.277-0.027-0.394-0.049v-7.006h-3.398v7.006c-0.119,0.021-0.25,0.037-0.395,0.049
					c-0.146,0.01-0.277,0.016-0.394,0.016c-0.119,0-0.254-0.006-0.404-0.016c-0.15-0.012-0.283-0.027-0.402-0.049V707.082z"/>
				<path fill="#5F9EA0" d="M642.54,705.824c0.15-0.022,0.307-0.037,0.467-0.047c0.162-0.012,0.307-0.017,0.436-0.017
					c0.139,0,0.293,0.006,0.459,0.017c0.166,0.01,0.309,0.025,0.426,0.047l2.256,6.814l2.271-6.814
					c0.117-0.022,0.252-0.037,0.402-0.047c0.15-0.012,0.295-0.017,0.436-0.017c0.117,0,0.252,0.006,0.402,0.017
					c0.15,0.01,0.301,0.025,0.451,0.047l-3.223,8.264c-0.139,0.021-0.279,0.037-0.418,0.049c-0.141,0.01-0.268,0.016-0.387,0.016
					c-0.117,0-0.244-0.006-0.379-0.016c-0.135-0.012-0.266-0.027-0.394-0.049L642.54,705.824z"/>
				<path fill="#5F9EA0" d="M652.978,710.352c0.021,0.902,0.256,1.563,0.701,1.98c0.445,0.42,1.104,0.629,1.973,0.629
					c0.764,0,1.488-0.135,2.176-0.402c0.086,0.16,0.154,0.357,0.209,0.588c0.055,0.231,0.086,0.459,0.098,0.684
					c-0.355,0.15-0.744,0.264-1.168,0.338c-0.426,0.076-0.895,0.113-1.41,0.113c-0.752,0-1.396-0.104-1.934-0.315
					c-0.537-0.209-0.98-0.504-1.328-0.885c-0.35-0.381-0.603-0.832-0.766-1.353c-0.16-0.522-0.242-1.092-0.242-1.715
					c0-0.613,0.078-1.186,0.234-1.717c0.156-0.531,0.395-0.992,0.717-1.385c0.322-0.393,0.727-0.703,1.217-0.934
					c0.488-0.232,1.064-0.348,1.73-0.348c0.57,0,1.068,0.098,1.498,0.291c0.43,0.193,0.789,0.459,1.08,0.797
					c0.289,0.338,0.51,0.74,0.66,1.209c0.15,0.467,0.225,0.975,0.225,1.522c0,0.15-0.004,0.309-0.016,0.475
					c-0.01,0.168-0.022,0.309-0.031,0.428H652.978z M657.07,709.16c0-0.301-0.039-0.588-0.121-0.863
					c-0.08-0.273-0.197-0.512-0.354-0.717c-0.156-0.203-0.356-0.367-0.596-0.49c-0.242-0.123-0.529-0.185-0.861-0.185
					c-0.656,0-1.158,0.199-1.508,0.596c-0.348,0.398-0.561,0.951-0.635,1.66H657.07z"/>
				<path fill="#5F9EA0" d="M660.744,705.824c0.117-0.022,0.231-0.037,0.338-0.047c0.107-0.012,0.221-0.017,0.338-0.017
					c0.119,0,0.236,0.006,0.356,0.017c0.117,0.01,0.225,0.025,0.322,0.047c0.031,0.162,0.064,0.373,0.096,0.637
					c0.033,0.264,0.049,0.486,0.049,0.668c0.227-0.363,0.523-0.682,0.895-0.949c0.369-0.269,0.846-0.402,1.426-0.402
					c0.086,0,0.174,0.002,0.266,0.008c0.09,0.006,0.168,0.014,0.232,0.023c0.022,0.098,0.039,0.199,0.049,0.307
					c0.012,0.108,0.016,0.221,0.016,0.338c0,0.129-0.008,0.264-0.023,0.402c-0.016,0.141-0.035,0.273-0.057,0.402
					c-0.086-0.022-0.174-0.031-0.266-0.031s-0.164,0-0.217,0c-0.291,0-0.566,0.039-0.83,0.121c-0.264,0.08-0.5,0.223-0.709,0.426
					c-0.209,0.205-0.375,0.484-0.5,0.838c-0.123,0.356-0.184,0.811-0.184,1.369v4.107c-0.119,0.021-0.25,0.037-0.396,0.049
					c-0.145,0.01-0.275,0.016-0.395,0.016c-0.117,0-0.248-0.006-0.394-0.016c-0.145-0.012-0.281-0.027-0.41-0.049V705.824z"/>
				<path fill="#5F9EA0" d="M666.736,705.824c0.117-0.022,0.231-0.037,0.338-0.047c0.107-0.012,0.221-0.017,0.338-0.017
					c0.119,0,0.236,0.006,0.355,0.017c0.117,0.01,0.225,0.025,0.322,0.047c0.031,0.162,0.065,0.373,0.096,0.637
					c0.033,0.264,0.049,0.486,0.049,0.668c0.227-0.363,0.523-0.682,0.895-0.949c0.369-0.269,0.846-0.402,1.426-0.402
					c0.086,0,0.174,0.002,0.266,0.008c0.09,0.006,0.168,0.014,0.232,0.023c0.021,0.098,0.039,0.199,0.049,0.307
					c0.012,0.108,0.016,0.221,0.016,0.338c0,0.129-0.008,0.264-0.023,0.402c-0.016,0.141-0.035,0.273-0.057,0.402
					c-0.086-0.022-0.174-0.031-0.266-0.031s-0.164,0-0.217,0c-0.291,0-0.566,0.039-0.83,0.121c-0.264,0.08-0.5,0.223-0.709,0.426
					c-0.209,0.205-0.375,0.484-0.5,0.838c-0.123,0.356-0.184,0.811-0.184,1.369v4.107c-0.119,0.021-0.25,0.037-0.397,0.049
					c-0.144,0.01-0.275,0.016-0.394,0.016c-0.117,0-0.248-0.006-0.395-0.016c-0.144-0.012-0.281-0.027-0.41-0.049V705.824z"/>
				<path fill="#5F9EA0" d="M671.23,714.088c-0.021-0.15-0.041-0.297-0.057-0.443c-0.016-0.144-0.023-0.291-0.023-0.441
					c0-0.15,0.008-0.305,0.023-0.459c0.016-0.156,0.035-0.309,0.057-0.459c0.15-0.022,0.297-0.039,0.443-0.049
					c0.145-0.012,0.291-0.016,0.441-0.016s0.301,0.004,0.451,0.016c0.15,0.01,0.301,0.027,0.451,0.049
					c0.021,0.15,0.041,0.301,0.057,0.449c0.016,0.152,0.025,0.301,0.025,0.451c0,0.15-0.01,0.301-0.025,0.451
					c-0.016,0.15-0.035,0.301-0.057,0.451c-0.15,0.021-0.297,0.037-0.443,0.049c-0.144,0.01-0.291,0.016-0.441,0.016
					c-0.15,0-0.301-0.006-0.451-0.016C671.531,714.125,671.38,714.109,671.23,714.088z"/>
				<path fill="#5F9EA0" d="M680.863,712.654c0.086,0.15,0.16,0.338,0.225,0.565c0.064,0.225,0.102,0.457,0.113,0.693
					c-0.635,0.246-1.359,0.369-2.176,0.369c-1.373,0-2.41-0.389-3.107-1.168c-0.699-0.777-1.047-1.828-1.047-3.148
					c0-0.611,0.086-1.182,0.258-1.707c0.17-0.527,0.426-0.982,0.764-1.369c0.34-0.387,0.76-0.693,1.266-0.918
					c0.504-0.227,1.09-0.34,1.756-0.34c0.451,0,0.848,0.027,1.191,0.082c0.344,0.053,0.672,0.139,0.982,0.258
					c0,0.182-0.023,0.394-0.072,0.635c-0.049,0.242-0.115,0.455-0.201,0.637c-0.527-0.182-1.127-0.273-1.805-0.273
					c-0.826,0-1.443,0.273-1.852,0.822c-0.408,0.547-0.613,1.271-0.613,2.174c0,1.031,0.232,1.785,0.693,2.264
					c0.461,0.477,1.096,0.717,1.9,0.717c0.322,0,0.621-0.022,0.895-0.064C680.306,712.838,680.583,712.762,680.863,712.654z"/>
				<path fill="#5F9EA0" d="M686.162,714.281c-0.645,0-1.209-0.109-1.691-0.33c-0.482-0.219-0.887-0.523-1.209-0.91
					c-0.32-0.387-0.56-0.842-0.717-1.369c-0.154-0.525-0.232-1.096-0.232-1.707c0-0.611,0.078-1.182,0.232-1.707
					c0.156-0.527,0.397-0.982,0.717-1.369c0.322-0.387,0.727-0.693,1.209-0.918c0.482-0.227,1.047-0.34,1.691-0.34
					c0.644,0,1.209,0.113,1.691,0.34c0.482,0.225,0.887,0.531,1.209,0.918c0.322,0.387,0.56,0.842,0.717,1.369
					c0.154,0.525,0.232,1.096,0.232,1.707c0,0.611-0.078,1.182-0.232,1.707c-0.156,0.527-0.395,0.982-0.717,1.369
					c-0.322,0.387-0.727,0.691-1.209,0.91C687.371,714.172,686.806,714.281,686.162,714.281z M686.162,713.01
					c0.74,0,1.289-0.27,1.643-0.807c0.356-0.537,0.531-1.283,0.531-2.238c0-0.955-0.176-1.699-0.531-2.23
					c-0.354-0.533-0.902-0.799-1.643-0.799c-0.74,0-1.285,0.266-1.635,0.799c-0.35,0.531-0.523,1.275-0.523,2.23
					c0,0.955,0.174,1.701,0.523,2.238C684.876,712.74,685.421,713.01,686.162,713.01z"/>
				<path fill="#5F9EA0" d="M692.107,705.824c0.117-0.022,0.232-0.037,0.346-0.047c0.113-0.012,0.229-0.017,0.346-0.017
					c0.119,0,0.229,0.006,0.33,0.017c0.102,0.01,0.213,0.025,0.33,0.047c0.033,0.162,0.064,0.373,0.098,0.637
					c0.031,0.264,0.049,0.486,0.049,0.668c0.096-0.193,0.217-0.377,0.361-0.555c0.144-0.178,0.316-0.336,0.516-0.475
					c0.199-0.141,0.428-0.254,0.686-0.34c0.258-0.086,0.541-0.129,0.853-0.129c0.645,0,1.141,0.133,1.49,0.394
					c0.348,0.264,0.613,0.631,0.797,1.104c0.107-0.182,0.238-0.363,0.394-0.547c0.156-0.182,0.33-0.344,0.523-0.482
					c0.193-0.141,0.414-0.254,0.66-0.34c0.246-0.086,0.525-0.129,0.838-0.129c0.955,0,1.65,0.269,2.086,0.807
					c0.436,0.537,0.652,1.332,0.652,2.383v5.268c-0.119,0.021-0.252,0.037-0.402,0.049c-0.15,0.01-0.285,0.016-0.402,0.016
					c-0.119,0-0.25-0.006-0.395-0.016c-0.146-0.012-0.277-0.027-0.396-0.049v-4.799c0-0.742-0.111-1.297-0.338-1.668
					c-0.225-0.371-0.596-0.557-1.111-0.557c-0.547,0-0.99,0.199-1.328,0.598c-0.338,0.396-0.508,0.982-0.508,1.754v4.672
					c-0.119,0.021-0.25,0.037-0.395,0.049c-0.144,0.01-0.277,0.016-0.394,0.016c-0.119,0-0.25-0.006-0.395-0.016
					c-0.144-0.012-0.277-0.027-0.394-0.049v-4.912c0-0.721-0.107-1.26-0.322-1.619c-0.215-0.359-0.559-0.539-1.031-0.539
					c-0.27,0-0.521,0.059-0.758,0.176c-0.236,0.119-0.441,0.297-0.619,0.533c-0.178,0.236-0.316,0.533-0.42,0.892
					c-0.102,0.361-0.152,0.777-0.152,1.248v4.221c-0.119,0.021-0.25,0.037-0.395,0.049c-0.144,0.01-0.277,0.016-0.394,0.016
					c-0.119,0-0.252-0.006-0.402-0.016c-0.15-0.012-0.285-0.027-0.402-0.049V705.824z"/>
			</g>
		</g>
		<g>
			<g>
				<path fill="#5F9EA0" d="M411.14,699.045c-1.306,0.955-2.506,2.039-3.601,3.252c-1.096,1.211-2.156,2.436-3.181,3.67
					c-0.606,0.769-1.206,1.551-1.801,2.342c-0.594,0.793-1.183,1.598-1.765,2.412c-0.28,0.396-0.547,0.805-0.804,1.225
					c-0.256,0.42-0.512,0.838-0.769,1.258l-0.419,0.664c0.466-0.232,0.757-0.408,0.874-0.523c0.327-0.258,0.629-0.531,0.909-0.822
					c0.28-0.291,0.547-0.588,0.804-0.891c0.396-0.42,0.81-0.881,1.241-1.381c0.431-0.502,0.81-1.02,1.136-1.557
					c-0.164-0.115-0.28-0.291-0.35-0.523c-0.094-0.234-0.094-0.455,0-0.664c0.093-0.211,0.232-0.367,0.419-0.473
					c0.186-0.106,0.39-0.158,0.612-0.158c0.221,0,0.425,0.094,0.612,0.281c0.256,0.115,0.536,0.18,0.839,0.191
					c0.303,0.012,0.594,0.029,0.874,0.053c0.606,0.047,1.2,0.064,1.783,0.053c0.583-0.012,1.177-0.041,1.783-0.088
					c0.186,0,0.407-0.017,0.664-0.053c0.256-0.035,0.513-0.041,0.769-0.018c0.256,0.023,0.483,0.082,0.682,0.176
					c0.198,0.092,0.344,0.268,0.437,0.523c0.163,0.49,0.04,0.834-0.367,1.031c-0.408,0.199-0.915,0.326-1.521,0.385
					c-0.606,0.059-1.218,0.07-1.835,0.035c-0.618-0.035-1.043-0.053-1.276-0.053c-0.35,0-0.816,0-1.398,0
					c-0.583,0-1.142-0.059-1.678-0.174c-0.327,0.814-0.757,1.596-1.293,2.342c-0.536,0.746-1.083,1.455-1.643,2.133
					c-0.256,0.279-0.548,0.594-0.874,0.943c-0.326,0.35-0.682,0.664-1.066,0.943c-0.385,0.279-0.787,0.49-1.206,0.629
					c-0.42,0.141-0.839,0.141-1.259,0c-0.512-0.186-0.81-0.506-0.892-0.961c-0.081-0.453-0.04-0.914,0.123-1.381
					c0.327-1.025,0.81-1.998,1.451-2.918c0.642-0.922,1.288-1.801,1.941-2.641c0.699-0.908,1.416-1.801,2.15-2.674
					c0.734-0.875,1.486-1.742,2.255-2.606c0.699-0.791,1.416-1.566,2.15-2.324c0.734-0.758,1.498-1.473,2.29-2.15
					c0.116-0.092,0.245-0.209,0.385-0.35c0.14-0.139,0.285-0.268,0.436-0.385c0.151-0.115,0.315-0.209,0.49-0.279
					c0.175-0.07,0.344-0.092,0.507-0.07c0.21,0.023,0.372,0.1,0.489,0.229c0.117,0.127,0.192,0.273,0.228,0.438
					c0.035,0.162,0.029,0.326-0.018,0.488C411.407,698.789,411.302,698.928,411.14,699.045z"/>
				<path fill="#5F9EA0" d="M416.767,707.295c0.117,0.047,0.221,0.1,0.315,0.158c0.093,0.059,0.175,0.121,0.245,0.191
					c0.466-0.047,0.932,0.023,1.398,0.211c0.466,0.256,0.71,0.529,0.734,0.82c0.023,0.291-0.059,0.602-0.245,0.926
					c0.512-0.068,1.031-0.186,1.556-0.35c0.524-0.162,1.043-0.35,1.556-0.559c0.513-0.209,1.02-0.42,1.521-0.629
					c0.501-0.209,0.984-0.385,1.451-0.525c0.256-0.068,0.53-0.139,0.821-0.209c0.292-0.07,0.565-0.012,0.822,0.176
					c0.21,0.162,0.337,0.338,0.385,0.523c0.046,0.188,0.035,0.367-0.035,0.541c-0.07,0.176-0.187,0.332-0.35,0.473
					c-0.163,0.141-0.35,0.223-0.56,0.244c-0.746,0.117-1.48,0.332-2.202,0.648c-0.723,0.315-1.434,0.588-2.133,0.82
					c-0.327,0.117-0.676,0.244-1.049,0.385c-0.373,0.141-0.757,0.256-1.153,0.35c-0.396,0.094-0.792,0.145-1.189,0.158
					c-0.397,0.01-0.769-0.041-1.119-0.158c-0.396-0.188-0.646-0.426-0.751-0.717c-0.105-0.291-0.1-0.6,0.018-0.926
					c-0.467,0.07-0.933,0.174-1.398,0.314c-0.606,0.188-1.206,0.396-1.8,0.629c-0.594,0.232-1.195,0.408-1.801,0.525
					c-0.396,0.068-0.804,0.068-1.223,0c-0.42-0.07-0.734-0.305-0.944-0.699c-0.256-0.49-0.273-0.951-0.052-1.381
					c0.222-0.432,0.56-0.805,1.014-1.119c0.455-0.315,0.95-0.572,1.486-0.769c0.536-0.197,0.979-0.32,1.329-0.367
					c0.582-0.07,1.154-0.076,1.713-0.018C415.684,707.021,416.231,707.133,416.767,707.295z M412.152,709.357
					c0.233-0.047,0.466-0.105,0.699-0.174c0.233-0.07,0.466-0.152,0.699-0.246C412.992,709.008,412.525,709.148,412.152,709.357z"/>
				<path fill="#5F9EA0" d="M436.589,709.287c-1.259-0.047-2.517,0.059-3.776,0.315c-1.258,0.258-2.482,0.596-3.67,1.016
					l-0.14,0.314c-0.419,0.908-1.02,1.731-1.8,2.465c-0.781,0.732-1.579,1.391-2.395,1.975c-0.28,0.185-0.641,0.424-1.084,0.717
					c-0.442,0.291-0.903,0.553-1.381,0.787c-0.478,0.232-0.949,0.389-1.416,0.471c-0.466,0.082-0.885,0.018-1.258-0.191
					c-0.396-0.258-0.594-0.613-0.594-1.066c0-0.455,0.105-0.857,0.314-1.207c0.257-0.373,0.565-0.723,0.926-1.049
					c0.362-0.326,0.752-0.629,1.171-0.908c0.419-0.279,0.839-0.543,1.258-0.787c0.42-0.244,0.828-0.471,1.224-0.682
					c0.537-0.303,1.084-0.594,1.643-0.873c0.56-0.281,1.119-0.549,1.678-0.805v-0.07c-0.07-0.139-0.152-0.232-0.245-0.279
					c-0.093-0.047-0.198-0.082-0.314-0.105c-0.117-0.022-0.239-0.045-0.367-0.07c-0.128-0.023-0.262-0.082-0.402-0.178
					c-0.163-0.119-0.273-0.262-0.332-0.428c-0.058-0.166-0.07-0.338-0.035-0.516c0.035-0.178,0.104-0.338,0.21-0.481
					c0.105-0.143,0.251-0.25,0.437-0.32c0.326-0.117,0.688-0.121,1.084-0.016c0.396,0.105,0.722,0.254,0.978,0.443
					c0.233,0.143,0.42,0.32,0.56,0.533c0.14,0.215,0.245,0.451,0.314,0.713l1.154-0.428c0.956-0.332,1.917-0.605,2.884-0.818
					c0.967-0.215,1.952-0.357,2.954-0.428c0.373-0.023,0.682,0.066,0.926,0.268c0.245,0.201,0.39,0.426,0.437,0.676
					c0.046,0.25-0.006,0.481-0.157,0.693C437.224,709.182,436.961,709.287,436.589,709.287z M424.073,713.553
					c0.327-0.256,0.653-0.519,0.979-0.787c0.327-0.268,0.641-0.564,0.944-0.891c-0.932,0.441-1.841,0.949-2.727,1.521
					c-0.885,0.57-1.596,1.252-2.132,2.045c0.257-0.07,0.524-0.188,0.804-0.35c0.28-0.164,0.548-0.346,0.804-0.543
					c0.257-0.197,0.501-0.385,0.734-0.559C423.712,713.815,423.911,713.67,424.073,713.553z M434.282,702.541
					c0,0.094,0,0.18,0,0.262c0,0.082-0.024,0.182-0.07,0.297c-0.186,0.537-0.548,0.922-1.083,1.154
					c-0.537,0.232-1.049,0.361-1.538,0.385c-0.42,0.023-0.921-0.053-1.503-0.228c-0.583-0.174-1.09-0.418-1.521-0.733
					c-0.431-0.316-0.716-0.693-0.856-1.137c-0.14-0.443,0.012-0.92,0.455-1.434c0.303-0.373,0.687-0.641,1.154-0.805
					c0.466-0.162,0.961-0.262,1.486-0.297c0.524-0.035,1.043-0.012,1.556,0.07c0.512,0.082,0.978,0.17,1.398,0.262
					c0.326,0.07,0.682,0.164,1.066,0.279c0.385,0.117,0.693,0.305,0.927,0.56c0.326,0.233,0.454,0.547,0.384,0.943
					c-0.07,0.396-0.303,0.652-0.699,0.77c-0.186,0.07-0.361,0.076-0.524,0.018s-0.327-0.146-0.489-0.262L434.282,702.541z
					 M432.953,702.855c0.28-0.209,0.303-0.396,0.07-0.559c-0.233-0.164-0.489-0.293-0.769-0.385c-0.21,0-0.489,0-0.839,0
					s-0.694,0.012-1.032,0.035c-0.338,0.023-0.618,0.057-0.839,0.103c-0.222,0.047-0.309,0.106-0.262,0.176v0.07
					c0.07,0.303,0.268,0.535,0.594,0.699c0.326,0.162,0.682,0.262,1.066,0.297c0.385,0.035,0.769,0.018,1.154-0.053
					C432.481,703.17,432.766,703.043,432.953,702.855z"/>
				<path fill="#5F9EA0" d="M441.203,707.295c0.117,0.047,0.221,0.1,0.315,0.158c0.093,0.059,0.175,0.121,0.245,0.191
					c0.466-0.047,0.932,0.023,1.398,0.211c0.466,0.256,0.711,0.529,0.734,0.82c0.023,0.291-0.059,0.602-0.245,0.926
					c0.512-0.068,1.031-0.186,1.556-0.35c0.525-0.162,1.043-0.35,1.556-0.559c0.513-0.209,1.02-0.42,1.521-0.629
					c0.5-0.209,0.984-0.385,1.451-0.525c0.256-0.068,0.53-0.139,0.821-0.209c0.291-0.07,0.565-0.012,0.822,0.176
					c0.21,0.162,0.337,0.338,0.385,0.523c0.046,0.188,0.035,0.367-0.035,0.541c-0.07,0.176-0.187,0.332-0.35,0.473
					c-0.163,0.141-0.35,0.223-0.56,0.244c-0.746,0.117-1.48,0.332-2.202,0.648c-0.723,0.315-1.434,0.588-2.133,0.82
					c-0.327,0.117-0.676,0.244-1.049,0.385c-0.373,0.141-0.757,0.256-1.153,0.35c-0.397,0.094-0.793,0.145-1.189,0.158
					c-0.397,0.01-0.769-0.041-1.119-0.158c-0.396-0.188-0.646-0.426-0.751-0.717c-0.105-0.291-0.1-0.6,0.018-0.926
					c-0.467,0.07-0.933,0.174-1.398,0.314c-0.606,0.188-1.206,0.396-1.8,0.629c-0.594,0.232-1.195,0.408-1.801,0.525
					c-0.396,0.068-0.804,0.068-1.223,0c-0.42-0.07-0.734-0.305-0.944-0.699c-0.256-0.49-0.273-0.951-0.052-1.381
					c0.222-0.432,0.56-0.805,1.014-1.119c0.455-0.315,0.95-0.572,1.486-0.769c0.536-0.197,0.979-0.32,1.329-0.367
					c0.582-0.07,1.154-0.076,1.713-0.018C440.12,707.021,440.667,707.133,441.203,707.295z M436.588,709.357
					c0.233-0.047,0.466-0.105,0.699-0.174c0.233-0.07,0.466-0.152,0.699-0.246C437.428,709.008,436.961,709.148,436.588,709.357z"/>
				<path fill="#5F9EA0" d="M450.887,707.33c0.466,0.023,0.769,0.164,0.909,0.42c0.14,0.256,0.186,0.559,0.14,0.908
					c0.605-0.512,1.106-1.096,1.503-1.748c0.093-0.139,0.181-0.291,0.262-0.453c0.081-0.164,0.175-0.316,0.28-0.455
					c0.105-0.141,0.227-0.25,0.367-0.332c0.14-0.082,0.315-0.111,0.525-0.088c0.35,0.047,0.571,0.199,0.664,0.455
					c0.093,0.256,0.14,0.523,0.14,0.803c0.116,0.234,0.419,0.391,0.909,0.473c0.489,0.082,1.031,0.129,1.626,0.141
					c0.595,0.012,1.159,0,1.696-0.035c0.536-0.035,0.909-0.053,1.119-0.053s0.448-0.017,0.717-0.053
					c0.268-0.035,0.542-0.065,0.821-0.088c0.28-0.021,0.547-0.018,0.804,0.018c0.256,0.035,0.477,0.123,0.664,0.264
					c0.187,0.139,0.309,0.309,0.367,0.506c0.058,0.199,0.052,0.391-0.018,0.576c-0.07,0.188-0.181,0.346-0.332,0.473
					c-0.152,0.129-0.344,0.192-0.577,0.192c-0.373,0.094-0.775,0.123-1.206,0.088c-0.432-0.035-0.833-0.039-1.206-0.017
					c-0.629,0-1.259,0-1.888,0c-0.629,0-1.258-0.022-1.888-0.07c-0.443-0.045-0.909-0.127-1.398-0.244
					c-0.489-0.115-0.921-0.303-1.293-0.559c-0.257,0.303-0.524,0.6-0.804,0.891c-0.279,0.293-0.559,0.567-0.839,0.822
					c-0.28,0.256-0.571,0.519-0.874,0.787c-0.303,0.268-0.653,0.447-1.049,0.541c-0.489,0.141-0.909,0.035-1.258-0.314
					c-0.163-0.188-0.256-0.379-0.28-0.576c-0.023-0.199-0.005-0.402,0.052-0.613c0.059-0.209,0.128-0.418,0.21-0.629
					c0.082-0.209,0.157-0.406,0.227-0.594c-0.116-0.303-0.093-0.617,0.07-0.943C450.211,707.494,450.491,707.33,450.887,707.33z"/>
				<path fill="#5F9EA0" d="M463.542,707.33c0.373,0.023,0.641,0.105,0.804,0.244c0.163,0.141,0.25,0.314,0.262,0.525
					c0.012,0.209-0.035,0.438-0.14,0.682c-0.105,0.244-0.216,0.484-0.332,0.717c0.442-0.117,0.891-0.25,1.346-0.402
					c0.455-0.152,0.879-0.285,1.276-0.402c0.35-0.092,0.716-0.215,1.101-0.367c0.384-0.15,0.774-0.291,1.171-0.42
					c0.396-0.127,0.792-0.233,1.189-0.315c0.396-0.08,0.769-0.098,1.119-0.053c0.21,0.023,0.402,0.076,0.577,0.158
					c0.175,0.082,0.32,0.215,0.437,0.402c0.187,0.326,0.198,0.664,0.035,1.014c0.489-0.141,0.984-0.297,1.486-0.473
					c0.5-0.174,0.996-0.338,1.485-0.488c0.49-0.152,0.984-0.267,1.486-0.35c0.501-0.082,1.008-0.111,1.521-0.088
					c0.326,0,0.617,0.082,0.874,0.244c0.396,0.258,0.594,0.525,0.594,0.805s-0.035,0.582-0.105,0.908
					c0.35-0.045,0.717-0.162,1.101-0.35c0.385-0.186,0.705-0.338,0.961-0.453c0.676-0.281,1.346-0.572,2.01-0.875
					c0.664-0.303,1.357-0.512,2.08-0.629c0.21-0.023,0.431-0.012,0.665,0.035c0.232,0.047,0.425,0.135,0.577,0.262
					c0.151,0.129,0.25,0.291,0.297,0.49c0.047,0.197-0.012,0.426-0.175,0.682c-0.117,0.162-0.286,0.285-0.507,0.367
					c-0.222,0.082-0.461,0.145-0.716,0.191c-0.257,0.047-0.513,0.088-0.769,0.123c-0.256,0.035-0.466,0.076-0.629,0.121
					c-0.396,0.141-0.863,0.35-1.398,0.631c-0.537,0.279-1.084,0.541-1.643,0.785c-0.559,0.246-1.119,0.42-1.678,0.525
					c-0.559,0.103-1.049,0.053-1.468-0.158c-0.396-0.209-0.624-0.471-0.682-0.785c-0.059-0.316-0.053-0.649,0.018-0.998
					c-0.467-0.022-0.956,0.035-1.468,0.176c-0.513,0.139-0.991,0.268-1.434,0.385c-0.303,0.094-0.629,0.203-0.979,0.332
					c-0.35,0.129-0.705,0.256-1.066,0.385c-0.362,0.127-0.723,0.232-1.084,0.314c-0.361,0.08-0.705,0.109-1.031,0.088
					c-0.373,0-0.676-0.117-0.909-0.35c-0.373-0.373-0.443-0.793-0.21-1.26c-0.56,0.141-1.107,0.315-1.643,0.525
					c-0.537,0.209-1.072,0.414-1.608,0.611c-0.536,0.197-1.072,0.367-1.608,0.506c-0.537,0.141-1.084,0.211-1.643,0.211
					c-0.186,0-0.373-0.023-0.56-0.07c-0.186-0.047-0.35-0.141-0.489-0.279c-0.21-0.211-0.326-0.438-0.35-0.682
					c-0.023-0.244,0.012-0.49,0.105-0.734c0.093-0.244,0.21-0.484,0.35-0.717c0.14-0.232,0.279-0.455,0.419-0.664
					c-0.023-0.256,0.052-0.502,0.227-0.734C462.965,707.447,463.216,707.33,463.542,707.33z"/>
				<path fill="#5F9EA0" d="M491.124,707.295c0.117,0.047,0.221,0.1,0.315,0.158c0.093,0.059,0.175,0.121,0.245,0.191
					c0.466-0.047,0.932,0.023,1.398,0.211c0.466,0.256,0.711,0.529,0.734,0.82c0.023,0.291-0.059,0.602-0.244,0.926
					c0.512-0.068,1.031-0.186,1.556-0.35c0.524-0.162,1.042-0.35,1.556-0.559c0.512-0.209,1.019-0.42,1.521-0.629
					c0.501-0.209,0.984-0.385,1.45-0.525c0.257-0.068,0.53-0.139,0.822-0.209c0.291-0.07,0.564-0.012,0.821,0.176
					c0.21,0.162,0.338,0.338,0.385,0.523c0.046,0.188,0.035,0.367-0.035,0.541c-0.07,0.176-0.186,0.332-0.35,0.473
					c-0.163,0.141-0.35,0.223-0.559,0.244c-0.746,0.117-1.48,0.332-2.202,0.648c-0.723,0.315-1.434,0.588-2.133,0.82
					c-0.326,0.117-0.676,0.244-1.049,0.385c-0.373,0.141-0.758,0.256-1.153,0.35c-0.396,0.094-0.793,0.145-1.189,0.158
					c-0.396,0.01-0.77-0.041-1.119-0.158c-0.396-0.188-0.646-0.426-0.751-0.717c-0.105-0.291-0.1-0.6,0.018-0.926
					c-0.467,0.07-0.933,0.174-1.398,0.314c-0.606,0.188-1.206,0.396-1.8,0.629c-0.594,0.232-1.195,0.408-1.801,0.525
					c-0.396,0.068-0.804,0.068-1.223,0c-0.42-0.07-0.734-0.305-0.944-0.699c-0.256-0.49-0.273-0.951-0.052-1.381
					c0.222-0.432,0.56-0.805,1.014-1.119c0.455-0.315,0.95-0.572,1.486-0.769c0.536-0.197,0.979-0.32,1.329-0.367
					c0.582-0.07,1.154-0.076,1.713-0.018C490.041,707.021,490.588,707.133,491.124,707.295z M486.51,709.357
					c0.233-0.047,0.466-0.105,0.699-0.174c0.233-0.07,0.466-0.152,0.699-0.246C487.349,709.008,486.882,709.148,486.51,709.357z"/>
				<path fill="#5F9EA0" d="M500.773,707.33c0.186,0,0.366,0.029,0.541,0.088c0.175,0.059,0.32,0.156,0.438,0.297
					c0.21,0.256,0.309,0.496,0.297,0.717c-0.012,0.221-0.076,0.438-0.192,0.647c0.606-0.117,1.212-0.256,1.818-0.42
					c0.605-0.162,1.212-0.326,1.817-0.488c0.28-0.07,0.583-0.152,0.909-0.246c0.326-0.092,0.658-0.162,0.996-0.209
					c0.338-0.047,0.676-0.064,1.015-0.053c0.337,0.012,0.646,0.088,0.926,0.227c0.397,0.188,0.63,0.408,0.699,0.664
					c0.07,0.258,0.047,0.525-0.069,0.805c0.326-0.092,0.651-0.18,0.978-0.262c0.326-0.082,0.652-0.18,0.979-0.297
					c0.63-0.188,1.265-0.379,1.905-0.578c0.641-0.197,1.288-0.389,1.94-0.576c0.303-0.092,0.658-0.191,1.066-0.297
					c0.407-0.106,0.763-0.053,1.066,0.158c0.186,0.139,0.303,0.309,0.35,0.506c0.046,0.199,0.04,0.396-0.018,0.594
					c-0.059,0.199-0.169,0.361-0.332,0.49c-0.163,0.129-0.35,0.191-0.56,0.191c-0.886,0.07-1.783,0.281-2.691,0.631
					c-0.909,0.35-1.783,0.652-2.622,0.908c-0.257,0.07-0.554,0.162-0.892,0.279c-0.338,0.117-0.682,0.221-1.031,0.314
					c-0.35,0.094-0.699,0.152-1.049,0.176c-0.35,0.021-0.664-0.023-0.944-0.141c-0.326-0.139-0.554-0.379-0.682-0.717
					s-0.146-0.682-0.052-1.031c-0.514,0.047-1.015,0.129-1.504,0.244c-0.489,0.117-0.978,0.234-1.468,0.35
					c-0.327,0.094-0.671,0.199-1.031,0.316c-0.362,0.115-0.723,0.232-1.084,0.35c-0.361,0.115-0.723,0.209-1.084,0.279
					c-0.361,0.07-0.717,0.092-1.066,0.07c-0.21-0.023-0.419-0.094-0.629-0.211c-0.28-0.188-0.442-0.385-0.489-0.594
					c-0.047-0.211-0.029-0.42,0.052-0.629c0.082-0.211,0.198-0.42,0.35-0.631c0.152-0.209,0.298-0.406,0.438-0.594
					c-0.093-0.303-0.064-0.6,0.087-0.891C500.103,707.477,500.377,707.33,500.773,707.33z"/>
				<path fill="#5F9EA0" d="M534.788,697.891c-1.072,0.887-2.133,1.789-3.182,2.709c-1.049,0.922-2.074,1.871-3.076,2.85
					c-0.489,0.467-0.997,0.943-1.52,1.434c-0.525,0.49-1.038,0.996-1.539,1.521c-0.501,0.523-0.973,1.072-1.415,1.643
					c-0.443,0.57-0.805,1.16-1.084,1.766c0.815-0.162,1.613-0.432,2.395-0.805c0.78-0.373,1.567-0.699,2.359-0.979
					c0.467-0.162,0.939-0.309,1.416-0.438c0.477-0.127,0.962-0.215,1.451-0.262c0.21-0.023,0.419,0,0.629,0.07
					c0.21,0.07,0.385,0.174,0.524,0.314c0.14,0.141,0.228,0.309,0.263,0.506c0.035,0.199-0.029,0.414-0.192,0.648
					c-0.187,0.256-0.467,0.397-0.839,0.418c-0.373,0.023-0.699,0.07-0.98,0.141c-0.629,0.117-1.241,0.291-1.835,0.523
					c-0.595,0.234-1.194,0.479-1.801,0.734c-0.629,0.258-1.293,0.525-1.992,0.805c-0.699,0.279-1.398,0.408-2.098,0.385
					c-0.746-0.047-1.201-0.258-1.363-0.629c-0.164-0.373-0.152-0.828,0.034-1.363c-0.768,0.326-1.572,0.635-2.412,0.926
					c-0.839,0.291-1.666,0.459-2.481,0.508c-0.257,0-0.49-0.023-0.699-0.07c-0.21-0.047-0.408-0.164-0.595-0.35
					c-0.303-0.303-0.419-0.611-0.35-0.928c0.07-0.315,0.228-0.617,0.472-0.908c0.245-0.291,0.531-0.553,0.856-0.787
					c0.327-0.232,0.606-0.406,0.84-0.523c0.839-0.42,1.735-0.676,2.691-0.77c0.955-0.094,1.888-0.023,2.797,0.209
					c0.023,0.023,0.058,0.035,0.104,0.035c0.093-0.045,0.181-0.074,0.263-0.086c0.081-0.012,0.157-0.029,0.228-0.053
					c0.326-0.42,0.658-0.816,0.996-1.189c0.338-0.373,0.652-0.717,0.943-1.031c0.292-0.314,0.548-0.582,0.77-0.805
					c0.222-0.221,0.379-0.377,0.472-0.471c0.933-0.932,1.882-1.842,2.85-2.727c0.967-0.887,1.951-1.76,2.954-2.623
					c0.303-0.279,0.658-0.635,1.066-1.066c0.407-0.43,0.821-0.705,1.241-0.82c0.232-0.07,0.436-0.064,0.611,0.018
					c0.175,0.082,0.309,0.209,0.402,0.383c0.093,0.176,0.128,0.367,0.104,0.578C535.044,697.541,534.95,697.729,534.788,697.891z"/>
				<path fill="#5F9EA0" d="M547.303,709.252c-0.536,0.049-1.066,0.135-1.59,0.264c-0.524,0.127-1.056,0.25-1.591,0.367
					c-1.398,0.326-2.785,0.635-4.16,0.926c-1.376,0.291-2.774,0.508-4.195,0.646c-0.373,0.047-0.764,0.082-1.171,0.105
					c-0.408,0.023-0.816,0.012-1.224-0.035c-0.408-0.047-0.799-0.135-1.172-0.262c-0.373-0.129-0.711-0.32-1.014-0.578
					c-0.257-0.209-0.46-0.453-0.611-0.734c-0.151-0.279-0.245-0.57-0.28-0.873c-0.034-0.303-0.005-0.6,0.088-0.891
					c0.093-0.293,0.268-0.555,0.524-0.787c0.162-0.164,0.425-0.297,0.786-0.402c0.361-0.105,0.764-0.18,1.206-0.227
					c0.442-0.047,0.886-0.059,1.329-0.035c0.442,0.024,0.827,0.104,1.153,0.244c0.326,0.141,0.554,0.332,0.682,0.576
					c0.128,0.246,0.11,0.555-0.053,0.928c-0.14,0.279-0.35,0.477-0.629,0.594c-0.279,0.117-0.595,0.191-0.944,0.227
					c-0.35,0.035-0.711,0.035-1.083,0c-0.373-0.035-0.699-0.074-0.979-0.121c0.093,0.094,0.28,0.168,0.56,0.227
					c0.28,0.059,0.577,0.1,0.892,0.123c0.314,0.023,0.605,0.035,0.874,0.035c0.268,0,0.437,0,0.507,0
					c1.142-0.094,2.278-0.258,3.408-0.49c1.131-0.232,2.255-0.477,3.374-0.734c0.815-0.186,1.626-0.379,2.43-0.576
					c0.804-0.197,1.613-0.344,2.43-0.438c0.35-0.023,0.641,0.059,0.874,0.244c0.232,0.188,0.385,0.402,0.454,0.646
					c0.07,0.246,0.041,0.473-0.087,0.682C547.961,709.113,547.699,709.23,547.303,709.252z"/>
				<path fill="#5F9EA0" d="M558.49,698.94c-1.072,0.746-2.098,1.545-3.078,2.394c-0.979,0.852-1.922,1.742-2.83,2.676
					c-0.49,0.512-0.969,1.031-1.434,1.555c-0.466,0.525-0.92,1.066-1.363,1.625c-0.094,0.117-0.227,0.275-0.402,0.473
					c-0.175,0.199-0.361,0.42-0.56,0.664c-0.198,0.244-0.379,0.496-0.541,0.752c-0.164,0.256-0.292,0.502-0.385,0.734
					c0.396-0.094,0.786-0.215,1.171-0.367c0.385-0.152,0.774-0.309,1.171-0.473c0.652-0.256,1.311-0.512,1.975-0.768
					c0.664-0.258,1.334-0.467,2.01-0.631c0.303-0.068,0.688-0.15,1.154-0.244c0.465-0.094,0.85-0.035,1.152,0.176
					c0.232,0.162,0.373,0.338,0.42,0.523c0.047,0.188,0.029,0.361-0.053,0.523c-0.082,0.164-0.209,0.316-0.385,0.455
					c-0.174,0.141-0.367,0.234-0.576,0.279c-0.396,0.094-0.799,0.176-1.207,0.246c-0.406,0.068-0.809,0.174-1.205,0.315
					c-0.932,0.326-1.848,0.688-2.744,1.084c-0.897,0.395-1.835,0.686-2.814,0.873c-0.326,0.047-0.658,0.041-0.996-0.018
					s-0.611-0.238-0.821-0.541c-0.326-0.467-0.396-1.008-0.21-1.627c0.187-0.617,0.484-1.228,0.892-1.834
					c0.407-0.606,0.857-1.172,1.346-1.695c0.489-0.525,0.874-0.939,1.154-1.242c0.955-1.049,1.938-2.057,2.952-3.023
					c1.016-0.967,2.068-1.893,3.164-2.779c0.326-0.256,0.693-0.576,1.102-0.961c0.408-0.385,0.811-0.623,1.207-0.717
					c0.232-0.07,0.435-0.053,0.611,0.053c0.174,0.103,0.303,0.244,0.385,0.418c0.082,0.176,0.105,0.367,0.07,0.578
					C558.787,698.625,558.675,698.801,558.49,698.94z"/>
				<path fill="#5F9EA0" d="M560.552,707.295c0.115,0.047,0.221,0.1,0.315,0.158c0.092,0.059,0.174,0.121,0.244,0.191
					c0.467-0.047,0.932,0.023,1.398,0.211c0.465,0.256,0.711,0.529,0.734,0.82c0.023,0.291-0.059,0.602-0.244,0.926
					c0.512-0.068,1.031-0.186,1.555-0.35c0.525-0.162,1.043-0.35,1.557-0.559c0.512-0.209,1.018-0.42,1.52-0.629
					c0.502-0.209,0.984-0.385,1.451-0.525c0.256-0.068,0.529-0.139,0.822-0.209c0.291-0.07,0.565-0.012,0.82,0.176
					c0.211,0.162,0.338,0.338,0.385,0.523c0.047,0.188,0.035,0.367-0.035,0.541c-0.07,0.176-0.186,0.332-0.35,0.473
					c-0.162,0.141-0.35,0.223-0.559,0.244c-0.746,0.117-1.481,0.332-2.203,0.648c-0.723,0.315-1.434,0.588-2.133,0.82
					c-0.326,0.117-0.676,0.244-1.049,0.385c-0.373,0.141-0.758,0.256-1.152,0.35c-0.397,0.094-0.793,0.145-1.189,0.158
					c-0.396,0.01-0.77-0.041-1.119-0.158c-0.397-0.188-0.647-0.426-0.75-0.717c-0.106-0.291-0.1-0.6,0.016-0.926
					c-0.465,0.07-0.932,0.174-1.398,0.314c-0.605,0.188-1.205,0.396-1.799,0.629c-0.596,0.232-1.195,0.408-1.801,0.525
					c-0.396,0.068-0.805,0.068-1.225,0c-0.418-0.07-0.734-0.305-0.943-0.699c-0.256-0.49-0.273-0.951-0.053-1.381
					c0.223-0.432,0.56-0.805,1.014-1.119c0.455-0.315,0.951-0.572,1.486-0.769c0.535-0.197,0.979-0.32,1.328-0.367
					c0.582-0.07,1.154-0.076,1.713-0.018C559.468,707.021,560.015,707.133,560.552,707.295z M555.937,709.357
					c0.232-0.047,0.465-0.105,0.699-0.174c0.232-0.07,0.465-0.152,0.699-0.246C556.775,709.008,556.31,709.148,555.937,709.357z"/>
			</g>
			<g>
				<g>
					<path fill="#5F9EA0" d="M572.232,703.924c-2.914,0-5.283-2.371-5.283-5.285c0-2.912,2.369-5.283,5.283-5.283
						c2.914,0,5.283,2.371,5.283,5.283C577.515,701.553,575.146,703.924,572.232,703.924z M572.232,694.18
						c-2.459,0-4.459,2-4.459,4.459c0,2.459,2,4.459,4.459,4.459c2.459,0,4.459-2,4.459-4.459
						C576.691,696.18,574.691,694.18,572.232,694.18z"/>
					<path fill="#5F9EA0" d="M572.232,693.496c-2.836,0-5.143,2.307-5.143,5.143c0,2.836,2.307,5.145,5.143,5.145
						c2.836,0,5.143-2.309,5.143-5.145C577.374,695.803,575.068,693.496,572.232,693.496z M572.232,703.238
						c-2.539,0-4.598-2.059-4.598-4.6c0-2.539,2.059-4.598,4.598-4.598c2.539,0,4.6,2.059,4.6,4.598
						C576.831,701.18,574.771,703.238,572.232,703.238z"/>
					<g>
						<path fill="#5F9EA0" d="M572.384,701.6c-0.613,0-1.121-0.129-1.512-0.381c-0.389-0.254-0.691-0.625-0.893-1.104
							c-0.199-0.469-0.301-0.978-0.301-1.517c0-0.586,0.115-1.109,0.342-1.551c0.229-0.445,0.561-0.789,0.984-1.021
							c0.422-0.23,0.887-0.348,1.391-0.348c0.572,0,1.066,0.15,1.461,0.445c0.395,0.295,0.674,0.715,0.828,1.246l0.041,0.143
							l-0.98,0.228l-0.041-0.123c-0.115-0.367-0.285-0.635-0.5-0.797c-0.215-0.162-0.492-0.242-0.824-0.242
							c-0.387,0-0.713,0.092-0.969,0.273c-0.256,0.184-0.439,0.432-0.543,0.74c-0.109,0.322-0.164,0.66-0.164,1.004
							c0,0.443,0.066,0.834,0.193,1.164c0.123,0.314,0.316,0.553,0.572,0.705c0.262,0.158,0.551,0.236,0.854,0.236
							c0.371,0,0.686-0.105,0.938-0.316c0.256-0.213,0.43-0.535,0.523-0.959l0.031-0.143l0.998,0.252l-0.035,0.137
							c-0.158,0.621-0.449,1.102-0.865,1.432C573.497,701.434,572.982,701.6,572.384,701.6z"/>
						<path fill="#5F9EA0" d="M573.921,699.455l0.721,0.182c-0.15,0.592-0.422,1.045-0.816,1.357
							c-0.393,0.311-0.873,0.467-1.441,0.467c-0.588,0-1.066-0.121-1.434-0.359c-0.369-0.24-0.65-0.588-0.842-1.041
							c-0.191-0.453-0.289-0.941-0.289-1.463c0-0.568,0.109-1.063,0.326-1.486c0.217-0.422,0.525-0.744,0.928-0.963
							c0.4-0.219,0.842-0.33,1.322-0.33c0.545,0,1.004,0.139,1.377,0.418c0.371,0.277,0.631,0.668,0.777,1.172l-0.711,0.168
							c-0.127-0.398-0.31-0.688-0.551-0.867c-0.24-0.182-0.543-0.271-0.908-0.271c-0.42,0-0.77,0.1-1.051,0.301
							c-0.281,0.201-0.48,0.471-0.594,0.809c-0.115,0.34-0.172,0.689-0.172,1.049c0,0.463,0.068,0.867,0.203,1.215
							c0.135,0.346,0.346,0.604,0.631,0.775c0.285,0.172,0.596,0.256,0.926,0.256c0.406,0,0.748-0.117,1.027-0.35
							C573.632,700.258,573.822,699.914,573.921,699.455z"/>
					</g>
				</g>
			</g>
		</g>
	</g>
</g>
<ellipse transform="matrix(-0.032 0.9995 -0.9995 -0.032 1175.6449 -481.5298)" fill-rule="evenodd" clip-rule="evenodd" fill="#E6E6E6" cx="820.997" cy="328.526" rx="7.548" ry="26.76"/>
<ellipse transform="matrix(0.1229 -0.9924 0.9924 0.1229 61.4102 1010.8864)" fill-rule="evenodd" clip-rule="evenodd" fill="#E6E6E6" cx="602.587" cy="470.702" rx="7.548" ry="88.826"/>
<ellipse transform="matrix(0.2275 -0.9738 0.9738 0.2275 -133.7632 691.9055)" fill-rule="evenodd" clip-rule="evenodd" fill="#E6E6E6" cx="369.226" cy="430.264" rx="7.548" ry="88.826"/>
<path fill-rule="evenodd" clip-rule="evenodd" fill="#E6E6E6" d="M548.326,314.907c19.213-6.175,26.761-12.008,26.075-16.468
	c-0.686-4.46-28.133-5.489-31.564,5.833C539.407,315.594,544.553,316.28,548.326,314.907z"/>
<path fill-rule="evenodd" clip-rule="evenodd" fill="#75B1B3" d="M460.928,372.809c0,0.515,0.49,8.554,0.49,8.554
	s-2.72,28.241-15.758,42.05c-13.038,13.809-23.105,12.603-23.105,12.603l21.258-25.685l4.288-18.698
	C448.103,391.633,454.192,373.879,460.928,372.809z"/>
<path fill-rule="evenodd" clip-rule="evenodd" fill="#5F9EA0" d="M357.507,430.39c20.311,6.862,57.09,6.313,65.05,5.627
	c7.96-0.686,17.84-5.489,22.918-21.134c5.078-15.645,5.489-27.996,9.058-31.427c3.568-3.431,15.096-2.195,25.526-0.137
	c10.43,2.058,15.92,10.292,17.704,16.605c1.784,6.313,5.902,17.704,9.058,26.624c3.156,8.92,9.332,16.88,14.547,22.232
	c5.215,5.352,31.288,14.409,72.322,20.585c41.033,6.175,85.909-3.156,88.516-5.489c2.607-2.333,7.548-4.116,9.607-22.231
	c2.059-18.115,13.93-22.235,16.881-23.539c2.951-1.303,6.656-1.784,6.656-1.784v-30.726c0,0-22.972-2.745-38.925-6.347
	c-15.954-3.602-59.183-13.381-112.361-14.754c-53.178-1.372-69.648,0.856-79.254,1.028c-9.606,0.172-20.76,0.683-27.793-2.576
	c-7.033-3.259-24.192-10.811-39.631-15.1c-15.439-4.288-68.446-13.209-88.516-16.468c-20.07-3.259-32.764-1.715-35.681-1.715
	s-6.005-3.946-6.005-3.946l-3.602,1.201v21.615c0,0,0.343,3.602,5.146,8.577c14.188,14.694,9.742,25.59,16.819,41.767
	C311.415,412.298,344.372,425.952,357.507,430.39z"/>
<path fill-rule="evenodd" clip-rule="evenodd" fill="#FFFFFF" d="M309.47,388.417c1.372,3.773,2.744,9.606,7.89,13.894
	c5.146,4.288,22.643,19.899,53.864,25.046c31.221,5.146,48.375,4.803,55.751,0.515c7.376-4.288,11.836-18.526,14.066-28.647
	c1.446-6.563,3.892-30.433-2.028-34.511c-10.155-9.758-48.825-17.311-59.213-19.355c-21.785-4.288-34.652-7.205-45.974-8.406
	c-7.935-0.841-16.291-1.261-21.348-0.434c-2.158,0.353-3.716,0.935-4.383,1.807c-1.33,1.74-1.504,11.681-1.133,22.293
	C307.387,372.784,308.531,385.833,309.47,388.417z"/>
<path fill-rule="evenodd" clip-rule="evenodd" fill="#FFFFFF" d="M536.359,368.645c-14.581,0.172-31.735,0.858-31.22,14.067
	c0.515,13.209,3.429,24.873,8.576,38.597c5.146,13.724,10.464,23.674,24.702,28.991c14.238,5.317,33.623,9.606,57.81,13.209
	c13.861,2.064,35.241,2.85,51.722,1.733c8.97-0.608,29.63-1.894,32.506-13.398c0.574-2.295,1.839-12.682,1.713-23.849
	c-0.109-9.643-0.757-22.815-2.166-32.515c-0.698-4.8-3.261-7.784-16.015-11.567C627.64,373.129,574.203,368.199,536.359,368.645z"/>
<path fill-rule="evenodd" clip-rule="evenodd" fill="#75B1B3" d="M509.788,373.219c-3.019,2.065-4.821,5.079-4.649,9.493
	c0.515,13.209,3.429,24.873,8.576,38.597c4.466,11.91,9.063,20.977,19.505,26.641c-8.617-9.084-13.153-23.825-15.74-38.566
	c-3.431-19.556-8.234-22.644-9.091-26.589C507.541,378.894,509.737,373.346,509.788,373.219z"/>
<path fill-rule="evenodd" clip-rule="evenodd" fill="#558E90" d="M294.642,325.669l-3.723-4.646c0,0,15.129-4.702,21.991-7.018
	c6.862-2.316,105.84-42.543,123.509-49.405c17.669-6.862,37.909-11.493,70.331-6.346c32.422,5.146,57.982,15.954,59.011,16.125
	c1.029,0.172,5.661,2.316,5.918,6.347c0.186,2.921-5.168,10.37-8.13,14.25c-2.496,3.27-3.841,3.898-8.468,2.09
	c-3.731-1.458-25.346-9.949-35.81-12.522c-10.464-2.573-36.625-8.149-74.022,5.06c-37.396,13.209-104.642,41.256-104.642,41.256
	L294.642,325.669z"/>
<path fill-rule="evenodd" clip-rule="evenodd" fill="#558E90" d="M705.473,380.264l11.665-0.055c0,0,31.907-23.618,51.462-42.487
	c19.556-18.87,44.257-49.748,44.257-49.748s3.687-1.545,3.516,3.087c-0.171,4.632-0.258,22.472-0.258,22.472
	s-0.605,2.058-3.778,7.119c-21.107,33.661-54.654,63.298-85.431,87.83v4.802c0,0-5.89,1.918-11.558,3.037
	c-1.565,0.309-2.637-0.142-4.141,0.136C708.324,416.992,710.714,392.901,705.473,380.264z"/>
<path fill-rule="evenodd" clip-rule="evenodd" fill="#75B1B3" d="M283.578,326.918c0,0,4.8-5.746,8.23-6.089
	c3.431-0.343,8.576,1.716,17.496,2.745c8.92,1.029,82.512,13.209,111.331,21.271c28.819,8.062,40.827,12.694,45.459,15.267
	c4.632,2.573,30.019,2.058,43.228,0.857s74.963-1.2,117.849,4.633s85.256,13.552,88.345,14.238c3.088,0.686,6.519,1.544,6.519,1.544
	l-6.687,4.212c0,0-22.972-2.745-38.925-6.347c-15.954-3.602-59.183-13.381-112.361-14.754c-53.178-1.372-69.648,0.856-79.254,1.028
	c-9.606,0.172-20.76,0.683-27.793-2.576c-7.033-3.259-24.192-10.811-39.631-15.1c-15.439-4.288-68.446-13.209-88.516-16.468
	c-20.07-3.259-32.764-1.715-35.681-1.715s-6.005-3.946-6.005-3.946L283.578,326.918z"/>
<path fill-rule="evenodd" clip-rule="evenodd" fill="#417575" d="M361.944,300.408c-0.719,0.284-1.314,0.653-1.786,1.106
	c-0.459,0.447-0.754,0.948-0.887,1.504c-0.132,0.556-0.09,1.097,0.128,1.625c0.076,0.184,0.175,0.366,0.297,0.545
	c0.266,0.333,0.545,0.62,0.837,0.861c0.195,0.161,0.32,0.308,0.374,0.439c0.076,0.185,0.047,0.426-0.087,0.724
	c-0.67,1.297-0.804,2.764-0.403,4.399c0.055,0.289,0.15,0.598,0.286,0.927c0.495,1.2,1.404,2.06,2.728,2.579
	c0.512,0.188,1.031,0.278,1.558,0.27c0.527-0.008,1.024-0.127,1.492-0.358c0.891-0.49,1.572-0.883,2.045-1.179
	c0.472-0.296,0.928-0.672,1.367-1.125c0.72-0.787,1.211-1.642,1.474-2.563c0.431-1.643,0.709-3.035,0.833-4.175
	c0.007-0.49-0.001-0.839-0.023-1.049c-0.006-0.091-0.019-0.164-0.041-0.217c-0.071-0.172-0.212-0.279-0.423-0.323
	c-0.133-0.049-0.266-0.042-0.401,0.02c-0.135,0.063-0.264,0.177-0.389,0.344c-0.175,0.238-0.295,0.502-0.361,0.79
	c-0.066,0.29-0.107,0.626-0.125,1.012c-0.034,0.502-0.12,1.091-0.259,1.768c-0.051,0.227-0.114,0.562-0.188,1.005
	c-0.099,0.658-0.333,1.248-0.703,1.772c-0.37,0.524-0.852,1.001-1.446,1.433c-0.243,0.19-0.459,0.329-0.648,0.416
	c-0.472,0.218-0.953,0.271-1.442,0.159c-0.488-0.112-0.937-0.372-1.346-0.78c-0.325-0.321-0.569-0.679-0.732-1.074
	c-0.153-0.369-0.248-0.765-0.285-1.187c-0.038-0.422-0.051-0.91-0.038-1.465c0.02-0.888,0.426-1.578,1.22-2.07
	c0.505-0.295,0.835-0.487,0.992-0.576c0.283-0.208,0.49-0.43,0.619-0.662c0.13-0.232,0.156-0.44,0.079-0.625
	c-0.101-0.205-0.248-0.349-0.443-0.431c-0.195-0.083-0.435-0.137-0.719-0.163c-0.097-0.003-0.295,0.006-0.592,0.026
	c-0.297,0.02-0.565,0.014-0.803-0.018c-0.2-0.017-0.38-0.083-0.54-0.198c-0.16-0.115-0.275-0.258-0.346-0.429
	c-0.049-0.119-0.072-0.234-0.07-0.345c-0.025-0.491,0.198-0.884,0.67-1.181c0.219-0.132,0.442-0.196,0.669-0.19
	c0.227,0.005,0.431,0.091,0.612,0.258c0.06,0.067,0.13,0.148,0.21,0.245s0.154,0.169,0.222,0.216
	c0.271,0.189,0.535,0.224,0.791,0.106c0.203-0.094,0.346-0.27,0.433-0.529c0.194-0.388,0.214-0.766,0.062-1.135
	c-0.103-0.251-0.269-0.457-0.496-0.619c-0.414-0.264-0.893-0.412-1.437-0.444C363.653,299.776,362.806,299.963,361.944,300.408
	L361.944,300.408z M377.253,305.021c-0.036-0.046-0.13-0.207-0.283-0.482c-0.154-0.275-0.333-0.545-0.54-0.81
	c-0.228-0.319-0.515-0.519-0.863-0.602c-0.347-0.083-0.704-0.04-1.069,0.128c-0.108,0.05-0.259,0.151-0.453,0.303
	c-0.362,0.292-0.627,0.643-0.796,1.05c-0.242,0.661-0.427,1.284-0.555,1.869c-0.129,0.584-0.173,1.159-0.133,1.721
	c0.031,0.425,0.125,0.829,0.282,1.212c0.24,0.58,0.543,0.974,0.91,1.181c0.366,0.208,0.825,0.239,1.377,0.095
	c0.059-0.012,0.132-0.03,0.219-0.054c0.087-0.024,0.184-0.061,0.291-0.11c0.162-0.075,0.311-0.183,0.446-0.323
	c0.151-0.18,0.307-0.307,0.469-0.382c0.256-0.118,0.583-0.104,0.982,0.042c0.573,0.221,1.131,0.208,1.671-0.042
	c0.486-0.224,0.87-0.598,1.153-1.12c0.485-0.851,0.649-1.853,0.495-3.007l-0.012-0.088c-0.049-0.119-0.154-0.18-0.316-0.183
	c-0.033-0.001-0.082,0.014-0.15,0.045c-0.081,0.037-0.155,0.111-0.222,0.22c-0.067,0.11-0.109,0.223-0.125,0.34l-0.124,0.693
	c-0.063,0.469-0.151,0.901-0.26,1.297c-0.054,0.181-0.104,0.323-0.151,0.422c-0.047,0.1-0.124,0.175-0.232,0.225
	c-0.189,0.087-0.343,0.084-0.463-0.011c-0.119-0.094-0.226-0.236-0.322-0.428c-0.067-0.125-0.162-0.334-0.281-0.623l-0.592-1.61
	L377.253,305.021L377.253,305.021z M375.079,305.246c0.176-0.003,0.277,0.069,0.305,0.212c0.24,0.893,0.414,1.567,0.52,2.02
	c0.129,0.585,0.07,1.122-0.178,1.613c-0.097,0.155-0.219,0.25-0.364,0.286c-0.194,0.074-0.343-0.014-0.447-0.264l-0.107-0.257
	c-0.07-0.172-0.109-0.303-0.115-0.394C374.584,307.492,374.712,306.421,375.079,305.246L375.079,305.246z M383.885,307.07
	c-0.7,0.213-1.27,0.291-1.711,0.236c-0.44-0.056-0.821-0.316-1.141-0.78c-0.065-0.08-0.133-0.205-0.203-0.377
	c-0.093-0.224-0.142-0.5-0.149-0.826c0.01-0.444,0.038-1.116,0.085-2.016c-0.004-0.203-0.016-0.33-0.038-0.383
	c-0.022-0.053-0.072-0.096-0.15-0.131c-0.079-0.034-0.179-0.063-0.301-0.085c-0.487-0.089-0.809-0.325-0.967-0.707
	c-0.081-0.198-0.127-0.388-0.139-0.572c-0.022-0.209,0.009-0.397,0.095-0.561c0.084-0.165,0.201-0.281,0.35-0.35
	c0.054-0.024,0.127-0.043,0.219-0.054c0.362-0.057,0.609,0.072,0.739,0.389c0.043,0.106,0.07,0.227,0.078,0.365
	c0.014,0.072,0.014,0.15,0,0.235c-0.014,0.084-0.016,0.156-0.008,0.216c0.016,0.118,0.105,0.155,0.264,0.113
	c0.108-0.05,0.199-0.131,0.273-0.244c0.074-0.112,0.122-0.181,0.143-0.207c0.051-0.071,0.129-0.193,0.235-0.367
	c0.105-0.174,0.207-0.315,0.307-0.424c0.072-0.096,0.163-0.169,0.271-0.219c0.163-0.075,0.361-0.08,0.596-0.016
	c0.171,0.063,0.292,0.18,0.362,0.351c0.054,0.132,0.076,0.263,0.066,0.394c-0.01,0.287-0.042,0.561-0.095,0.821
	c-0.125,0.905-0.152,2.086-0.08,3.544c0.008,0.059,0.01,0.161,0.005,0.304c-0.005,0.144,0.011,0.262,0.05,0.354
	c0.065,0.158,0.2,0.252,0.406,0.283c0.097,0.002,0.186-0.015,0.267-0.052c0.122-0.056,0.22-0.138,0.297-0.243
	c0.077-0.107,0.174-0.249,0.293-0.429c0.142-0.239,0.277-0.536,0.403-0.893l0.721-2.286c0.123-0.402,0.232-0.704,0.326-0.904
	c0.067-0.11,0.142-0.183,0.222-0.22c0.094-0.044,0.187-0.055,0.276-0.034c0.127,0.036,0.21,0.099,0.248,0.192
	c0.028,0.066,0.037,0.148,0.029,0.246c0.003,0.046-0.006,0.121-0.028,0.224c-0.185,0.76-0.366,1.412-0.543,1.957
	c-0.177,0.545-0.389,1.063-0.637,1.553c-0.172,0.362-0.389,0.686-0.649,0.97C384.412,306.72,384.149,306.932,383.885,307.07
	L383.885,307.07z M391.182,300.503c0.177-0.506,0.212-0.891,0.102-1.154c-0.043-0.106-0.095-0.144-0.156-0.116
	c-0.061,0.028-0.11,0.114-0.147,0.256c-0.059,0.247-0.22,0.647-0.482,1.199c-0.263,0.553-0.538,1.064-0.826,1.534
	c-0.288,0.47-0.514,0.743-0.676,0.818c-0.095,0.044-0.195-0.016-0.302-0.178c-0.107-0.163-0.229-0.409-0.365-0.738
	c-0.239-0.58-0.456-1.203-0.649-1.866l-0.159-0.444c-0.237-0.691-0.453-1.392-0.65-2.102c0.428-2.394,0.312-4.311-0.345-5.749
	c-0.09-0.178-0.208-0.289-0.354-0.331c-0.146-0.043-0.301-0.026-0.462,0.048c-0.162,0.074-0.309,0.205-0.441,0.392
	c-0.272,0.392-0.433,0.851-0.481,1.375c-0.049,0.525-0.049,1.121,0.001,1.788c0.201,2.748,0.684,5.264,1.449,7.548
	c0.095,0.269,0.284,0.582,0.568,0.938c0.283,0.356,0.606,0.642,0.969,0.859c0.363,0.218,0.7,0.294,1.011,0.229
	C389.421,304.672,390.22,303.238,391.182,300.503L391.182,300.503z M386.157,294.863c-0.186-0.919-0.291-1.6-0.313-2.044
	l0.015-0.431c0.019-0.15,0.048-0.234,0.089-0.253c0.067-0.031,0.166,0.151,0.297,0.546c0.12,0.368,0.225,0.72,0.315,1.055
	c0.133,0.519,0.207,1.058,0.22,1.617c0.013,0.558,0.003,1.207-0.03,1.944C386.456,296.193,386.258,295.381,386.157,294.863
	L386.157,294.863z M396.775,304.196c-0.751,0.399-1.436,0.437-2.055,0.114c-0.394-0.209-0.663-0.485-0.806-0.826
	c-0.133-0.316-0.148-0.678-0.046-1.087c0.097-0.345,0.207-0.64,0.329-0.886c0.143-0.35,0.236-0.606,0.281-0.768
	c0.045-0.163,0.047-0.29,0.009-0.382c-0.044-0.105-0.142-0.174-0.292-0.205c-0.151-0.032-0.417-0.061-0.798-0.087
	c-0.032-0.001-0.177-0.02-0.435-0.056c-0.064-0.001-0.307-0.021-0.727-0.06c0,0-0.067-0.024-0.2-0.072
	c-0.942-0.172-1.552-0.587-1.828-1.244c-0.204-0.487-0.235-1.078-0.092-1.775c0.176-0.963,0.763-1.773,1.76-2.429
	c0.24-0.16,0.541-0.229,0.903-0.21c0.498,0.034,0.805,0.189,0.92,0.465c0.094,0.224,0.057,0.5-0.11,0.831l-0.464,0.854
	c-0.173,0.318-0.279,0.603-0.317,0.857c-0.069,0.488-0.057,0.845,0.037,1.068c0.066,0.158,0.184,0.284,0.352,0.378
	c0.168,0.094,0.419,0.174,0.753,0.238c0.222,0.069,0.408,0.108,0.557,0.117c0.238,0.03,0.431,0.066,0.577,0.107
	c0.249,0.057,0.446,0.082,0.589,0.078c0.144-0.004,0.31-0.05,0.498-0.138c0.216-0.101,0.486-0.283,0.811-0.545l0.334-0.298
	c0.03-0.045,0.167-0.141,0.411-0.287l0.235-0.133c0.256-0.12,0.516-0.171,0.781-0.154c0.195,0.003,0.317,0.064,0.367,0.182
	c0.066,0.158,0.023,0.305-0.131,0.439c-0.105,0.096-0.293,0.224-0.565,0.382L398,298.879l0.242-0.114
	c0.148-0.07,0.096-0.022-0.158,0.144c-0.252,0.165-0.434,0.29-0.544,0.373c-0.175,0.161-0.29,0.289-0.346,0.386
	c-0.056,0.098-0.062,0.198-0.018,0.304c0.038,0.092,0.112,0.207,0.218,0.346c0.066,0.079,0.146,0.164,0.24,0.254
	c0.094,0.089,0.192,0.197,0.293,0.322c0.136,0.172,0.248,0.363,0.337,0.574c0.216,0.513,0.209,0.996-0.02,1.449
	c-0.228,0.453-0.598,0.822-1.106,1.108c-0.062,0.045-0.125,0.078-0.188,0.1C396.888,304.147,396.829,304.171,396.775,304.196
	L396.775,304.196z M395.029,303.032c0.039,0.092,0.104,0.16,0.195,0.205c0.091,0.043,0.177,0.046,0.257,0.009l0.073-0.058
	c0.175-0.16,0.283-0.372,0.326-0.636c0.043-0.264,0.007-0.511-0.106-0.741c-0.066-0.079-0.163-0.119-0.293-0.122
	c-0.137,0.017-0.258,0.133-0.362,0.346c-0.103,0.214-0.153,0.461-0.148,0.742C394.971,302.855,394.99,302.939,395.029,303.032
	L395.029,303.032z M398.349,296.887c0.282,0.686,0.692,1.235,1.23,1.646c0.417,0.31,0.844,0.49,1.282,0.539
	c0.438,0.05,0.86-0.019,1.265-0.205c0.351-0.161,0.657-0.397,0.915-0.704c1.531-1.786,2.165-3.881,1.899-6.285
	c-0.003-0.046-0.018-0.102-0.045-0.168c-0.076-0.184-0.207-0.289-0.394-0.313c-0.097-0.002-0.186,0.015-0.267,0.053
	c-0.135,0.062-0.247,0.16-0.336,0.295c-0.186,0.368-0.355,0.916-0.505,1.644c-0.161,0.858-0.35,1.651-0.565,2.378
	c-0.156,0.558-0.364,0.991-0.623,1.298c-0.008,0.019-0.039,0.041-0.094,0.067c-0.081,0.037-0.163,0.043-0.245,0.019
	c-0.083-0.025-0.131-0.073-0.145-0.145c-0.087-0.212-0.153-0.432-0.199-0.662c-0.392-2.204-0.672-3.863-0.841-4.978
	c-0.033-0.236-0.062-0.403-0.086-0.502c-0.057-0.334-0.076-0.585-0.055-0.751c0.02-0.166,0.116-0.323,0.287-0.474
	c0.172-0.149,0.473-0.323,0.906-0.522l0.264-0.121c0.176-0.081,0.298-0.153,0.368-0.217c0.243-0.19,0.423-0.359,0.539-0.507
	c0.284-0.287,0.367-0.592,0.251-0.915c-0.109-0.264-0.371-0.433-0.788-0.508c-0.368-0.035-0.691,0.02-0.969,0.163
	c-0.427,0.212-0.754,0.327-0.979,0.344c-0.225,0.017-0.409-0.047-0.549-0.194c-0.141-0.147-0.28-0.408-0.419-0.784
	c-0.028-0.066-0.076-0.146-0.146-0.238c-0.157-0.226-0.361-0.371-0.613-0.436c-0.252-0.065-0.512-0.035-0.783,0.089
	c-0.446,0.205-0.737,0.551-0.875,1.037c-0.102,0.533-0.157,1.006-0.165,1.417c-0.004,0.301-0.075,0.549-0.212,0.744
	c-0.137,0.197-0.346,0.36-0.63,0.49c-0.47,0.185-0.857,0.378-1.159,0.58c-0.287,0.163-0.687,0.441-1.199,0.834
	c-0.097,0.076-0.167,0.171-0.209,0.284c-0.042,0.113-0.045,0.232-0.009,0.357c0.087,0.211,0.275,0.32,0.567,0.327
	c0.265,0.019,0.557-0.013,0.876-0.098c0.319-0.083,0.538-0.137,0.657-0.16c0.073-0.018,0.184-0.061,0.332-0.13l0.446-0.204
	c0.228-0.073,0.419-0.075,0.576-0.006c0.157,0.069,0.268,0.183,0.333,0.341c0.048,0.119,0.081,0.316,0.098,0.59l0.061,0.442
	L398.349,296.887L398.349,296.887z M410.125,293.997c0.428-0.211,0.782-0.541,1.064-0.991c0.282-0.45,0.422-0.989,0.423-1.616
	c0-0.079-0.003-0.195-0.01-0.349c-0.006-0.153-0.022-0.28-0.046-0.378c-0.099-0.361-0.098-0.664,0.004-0.906
	c0.102-0.243,0.335-0.447,0.7-0.614c0.265-0.137,0.494-0.332,0.688-0.585c0.194-0.253,0.323-0.535,0.389-0.847
	c0.056-0.214,0.05-0.407-0.02-0.579c-0.054-0.132-0.139-0.242-0.255-0.33c-0.116-0.088-0.256-0.134-0.418-0.138
	c-0.108-0.029-0.23-0.012-0.365,0.05c-0.271,0.124-0.446,0.361-0.528,0.711c-0.028,0.091-0.044,0.208-0.049,0.352
	c-0.005,0.143-0.012,0.264-0.02,0.362c-0.049,0.195-0.168,0.335-0.357,0.422c-0.135,0.062-0.26,0.071-0.374,0.029l-0.717-0.4
	c-0.413-0.266-0.808-0.367-1.184-0.305c-0.673,0.119-1.305,0.165-1.894,0.137c-0.154-0.023-0.299-0.004-0.434,0.057
	c-0.23,0.105-0.41,0.313-0.54,0.623c-0.187,0.446-0.295,0.927-0.326,1.442c-0.032,0.391-0.023,0.77,0.031,1.138
	c0.054,0.367,0.14,0.814,0.258,1.34c0.048,0.197,0.091,0.342,0.129,0.435c0.28,0.687,0.777,1.118,1.491,1.293
	c0.713,0.176,1.439,0.086,2.178-0.267L410.125,293.997L410.125,293.997z M410.025,289.388c0.219,0.573,0.262,1.161,0.13,1.762
	c-0.132,0.601-0.407,1.076-0.827,1.424c-0.098,0.076-0.174,0.126-0.228,0.151c-0.216,0.098-0.395,0.016-0.535-0.25
	c-0.291-0.713-0.443-1.458-0.455-2.236c-0.008-0.451,0.232-0.905,0.719-1.363c0.07-0.063,0.132-0.107,0.186-0.132
	c0.122-0.055,0.255-0.065,0.397-0.029c0.143,0.036,0.256,0.115,0.336,0.234c0.059,0.067,0.116,0.147,0.17,0.239
	C409.974,289.283,410.009,289.349,410.025,289.388L410.025,289.388z M421.306,287.865c0.113-0.169,0.184-0.345,0.214-0.526
	c0.03-0.182,0.047-0.397,0.053-0.646c-0.009-0.336,0.005-0.627,0.043-0.874c0.026-0.149,0.1-0.249,0.224-0.299
	c0.041-0.017,0.094-0.023,0.159-0.019c0.184-0.013,0.314,0.088,0.39,0.303l0.065,0.182c-0.064,0.705-0.148,1.286-0.253,1.746
	c-0.104,0.458-0.276,0.906-0.514,1.342c-0.13,0.253-0.34,0.438-0.628,0.556c-0.289,0.118-0.59,0.145-0.904,0.079
	c-0.314-0.065-0.544-0.214-0.69-0.448c-0.123-0.212-0.216-0.406-0.278-0.58c-0.072-0.203-0.123-0.413-0.154-0.632
	c-0.1-0.545-0.291-1.215-0.574-2.009l-0.352-0.99c-0.034-0.095-0.072-0.179-0.114-0.255c-0.043-0.075-0.082-0.144-0.12-0.206
	c-0.028-0.035-0.068-0.057-0.119-0.067c-0.05-0.01-0.096-0.007-0.137,0.01c-0.055,0.022-0.096,0.063-0.123,0.12
	c-0.041,0.017-0.064,0.041-0.068,0.074c-0.137,0.765-0.21,1.442-0.22,2.032c-0.011,0.59,0.082,1.162,0.279,1.714
	c0.091,0.256,0.298,0.549,0.62,0.88c0.2,0.165,0.329,0.328,0.387,0.49c0.043,0.121,0.034,0.271-0.028,0.451
	c-0.112,0.262-0.291,0.442-0.539,0.543c-0.082,0.033-0.16,0.058-0.234,0.072c-0.074,0.015-0.14,0.026-0.2,0.035
	c-0.685,0.11-1.215-0.052-1.589-0.486c-1.103-1.154-1.842-2.256-2.216-3.307c-0.23-0.647-0.352-1.298-0.365-1.956
	c0.002-0.217,0.019-0.432,0.054-0.646c0.047-0.266,0.18-0.444,0.4-0.533c0.206-0.084,0.41-0.066,0.609,0.053
	c0.232,0.122,0.403,0.291,0.512,0.509c0.142,0.22,0.258,0.415,0.35,0.586c0.092,0.171,0.166,0.314,0.224,0.429l0.212,0.399
	c0.01,0.027,0.029,0.05,0.06,0.068c0.03,0.019,0.062,0.029,0.094,0.031c0.134,0.022,0.214-0.041,0.239-0.19
	c0.025-0.195,0.082-0.388,0.173-0.578c0.089-0.191,0.201-0.394,0.337-0.611c0.135-0.217,0.239-0.379,0.311-0.486
	c0.212-0.333,0.421-0.542,0.627-0.625c0.247-0.101,0.575-0.064,0.983,0.109c0.738,0.347,1.27,0.848,1.597,1.501
	c0.046,0.089,0.165,0.31,0.354,0.665c0.189,0.354,0.341,0.693,0.456,1.017c0.086,0.242,0.157,0.507,0.212,0.793
	c0.009,0.027,0.031,0.053,0.063,0.078C421.219,287.788,421.259,287.822,421.306,287.865z"/>
</svg>
