<?xml version="1.0" encoding="utf-8"?>
<!-- Generator: Adobe Illustrator 19.0.0, SVG Export Plug-In . SVG Version: 6.00 Build 0)  -->
<svg version="1.1" id="Layer_1" xmlns="http://www.w3.org/2000/svg" xmlns:xlink="http://www.w3.org/1999/xlink" x="0px" y="0px"
	 viewBox="0 0 16 16" enable-background="new 0 0 16 16" xml:space="preserve">
<rect id="XMLID_1_" fill="#FFFFFF" width="16" height="16"/>
<g id="XMLID_27_">
	
		<ellipse id="XMLID_25_" transform="matrix(-0.032 0.9995 -0.9995 -0.032 22.5328 -8.0456)" fill-rule="evenodd" clip-rule="evenodd" fill="#E6E6E6" cx="15.162" cy="6.888" rx="0.198" ry="0.702"/>
	
		<ellipse id="XMLID_24_" transform="matrix(0.1229 -0.9924 0.9924 0.1229 -2.2595 18.676)" fill-rule="evenodd" clip-rule="evenodd" fill="#E6E6E6" cx="9.436" cy="10.616" rx="0.198" ry="2.329"/>
	
		<ellipse id="XMLID_23_" transform="matrix(0.2275 -0.9738 0.9738 0.2275 -6.743 10.6117)" fill-rule="evenodd" clip-rule="evenodd" fill="#E6E6E6" cx="3.317" cy="9.556" rx="0.198" ry="2.329"/>
	<path id="XMLID_22_" fill-rule="evenodd" clip-rule="evenodd" fill="#E6E6E6" d="M8.013,6.531C8.517,6.369,8.715,6.217,8.697,6.1
		C8.679,5.983,7.959,5.956,7.869,6.252C7.779,6.549,7.914,6.567,8.013,6.531z"/>
	<path id="XMLID_21_" fill-rule="evenodd" clip-rule="evenodd" fill="#75B1B3" d="M5.721,8.05c0,0.013,0.013,0.224,0.013,0.224
		s-0.071,0.74-0.413,1.103c-0.342,0.362-0.606,0.33-0.606,0.33l0.557-0.673l0.112-0.49C5.385,8.543,5.545,8.078,5.721,8.05z"/>
	<path id="XMLID_20_" fill-rule="evenodd" clip-rule="evenodd" fill="#5F9EA0" d="M3.01,9.559c0.533,0.18,1.497,0.166,1.706,0.148
		c0.209-0.018,0.468-0.144,0.601-0.554c0.133-0.41,0.144-0.734,0.237-0.824c0.094-0.09,0.396-0.058,0.669-0.004
		C6.496,8.379,6.64,8.595,6.687,8.76c0.047,0.166,0.155,0.464,0.237,0.698c0.083,0.234,0.245,0.443,0.381,0.583
		c0.137,0.14,0.82,0.378,1.896,0.54c1.076,0.162,2.253-0.083,2.321-0.144c0.068-0.061,0.198-0.108,0.252-0.583
		c0.054-0.475,0.365-0.583,0.443-0.617c0.077-0.034,0.175-0.047,0.175-0.047V8.385c0,0-0.602-0.072-1.021-0.166
		C10.953,8.124,9.82,7.868,8.426,7.832C7.031,7.796,6.599,7.854,6.348,7.858C6.096,7.863,5.803,7.876,5.619,7.791
		C5.434,7.705,4.984,7.507,4.58,7.395C4.175,7.283,2.785,7.049,2.259,6.963C1.733,6.878,1.4,6.918,1.323,6.918
		c-0.076,0-0.157-0.103-0.157-0.103L1.071,6.846v0.567c0,0,0.009,0.094,0.135,0.225c0.372,0.385,0.255,0.671,0.441,1.095
		C1.801,9.085,2.665,9.443,3.01,9.559z"/>
	<path id="XMLID_19_" fill-rule="evenodd" clip-rule="evenodd" fill="#FFFFFF" d="M1.75,8.459c0.036,0.099,0.072,0.252,0.207,0.364
		C2.092,8.936,2.551,9.345,3.369,9.48c0.819,0.135,1.268,0.126,1.462,0.013C5.025,9.381,5.142,9.007,5.2,8.742
		C5.238,8.57,5.302,7.944,5.147,7.837C4.881,7.581,3.867,7.383,3.594,7.33c-0.571-0.112-0.909-0.189-1.205-0.22
		c-0.208-0.022-0.427-0.033-0.56-0.011C1.773,7.107,1.732,7.122,1.714,7.145C1.679,7.191,1.675,7.452,1.684,7.73
		C1.696,8.049,1.726,8.391,1.75,8.459z"/>
	<path id="XMLID_18_" fill-rule="evenodd" clip-rule="evenodd" fill="#FFFFFF" d="M7.699,7.94C7.317,7.945,6.867,7.963,6.881,8.309
		s0.09,0.652,0.225,1.012c0.135,0.36,0.274,0.621,0.648,0.76c0.373,0.139,0.882,0.252,1.516,0.346
		c0.363,0.054,0.924,0.075,1.356,0.045c0.235-0.016,0.777-0.05,0.852-0.351c0.015-0.06,0.048-0.333,0.045-0.625
		c-0.003-0.253-0.02-0.598-0.057-0.853c-0.018-0.126-0.086-0.204-0.42-0.303C10.093,8.058,8.691,7.929,7.699,7.94z"/>
	<path id="XMLID_17_" fill-rule="evenodd" clip-rule="evenodd" fill="#75B1B3" d="M7.003,8.06C6.923,8.114,6.876,8.193,6.881,8.309
		c0.013,0.346,0.09,0.652,0.225,1.012c0.117,0.312,0.238,0.55,0.511,0.699C7.391,9.782,7.272,9.395,7.204,9.008
		c-0.09-0.513-0.216-0.594-0.238-0.697C6.944,8.209,7.001,8.064,7.003,8.06z"/>
	<path id="XMLID_16_" fill-rule="evenodd" clip-rule="evenodd" fill="#558E90" d="M1.361,6.814L1.264,6.692
		c0,0,0.397-0.123,0.577-0.184c0.18-0.061,2.775-1.115,3.238-1.295c0.463-0.18,0.994-0.301,1.844-0.166
		c0.85,0.135,1.52,0.418,1.547,0.423s0.148,0.061,0.155,0.166C8.63,5.712,8.49,5.907,8.412,6.009
		C8.347,6.094,8.311,6.111,8.19,6.064C8.092,6.025,7.526,5.803,7.251,5.735C6.977,5.668,6.291,5.522,5.31,5.868
		C4.33,6.214,2.567,6.95,2.567,6.95L1.361,6.814z"/>
	<path id="XMLID_15_" fill-rule="evenodd" clip-rule="evenodd" fill="#558E90" d="M12.133,8.245l0.306-0.001
		c0,0,0.837-0.619,1.349-1.114c0.513-0.495,1.16-1.304,1.16-1.304s0.097-0.041,0.092,0.081c-0.004,0.121-0.007,0.589-0.007,0.589
		s-0.016,0.054-0.099,0.187c-0.553,0.883-1.433,1.66-2.24,2.303v0.126c0,0-0.154,0.05-0.303,0.08
		c-0.041,0.008-0.069-0.004-0.109,0.004C12.208,9.208,12.271,8.576,12.133,8.245z"/>
	<path id="XMLID_14_" fill-rule="evenodd" clip-rule="evenodd" fill="#75B1B3" d="M1.071,6.846c0,0,0.126-0.151,0.216-0.16
		c0.09-0.009,0.225,0.045,0.459,0.072C1.98,6.786,3.909,7.105,4.665,7.316c0.756,0.211,1.07,0.333,1.192,0.4
		C5.978,7.784,6.644,7.771,6.99,7.739c0.346-0.031,1.966-0.031,3.09,0.121s2.235,0.355,2.316,0.373
		c0.081,0.018,0.171,0.04,0.171,0.04l-0.175,0.11c0,0-0.602-0.072-1.021-0.166C10.953,8.124,9.82,7.868,8.426,7.832
		C7.031,7.796,6.599,7.854,6.348,7.858C6.096,7.863,5.803,7.876,5.619,7.791C5.434,7.705,4.984,7.507,4.58,7.395
		C4.175,7.283,2.785,7.049,2.259,6.963C1.733,6.878,1.4,6.918,1.323,6.918c-0.076,0-0.157-0.103-0.157-0.103L1.071,6.846z"/>
	<path id="XMLID_28_" fill-rule="evenodd" clip-rule="evenodd" fill="#417575" d="M3.126,6.151C3.107,6.159,3.092,6.168,3.079,6.18
		C3.067,6.192,3.06,6.205,3.056,6.22C3.053,6.234,3.054,6.248,3.059,6.262c0.002,0.005,0.005,0.01,0.008,0.014
		c0.007,0.009,0.014,0.016,0.022,0.023c0.005,0.004,0.008,0.008,0.01,0.012C3.101,6.315,3.1,6.322,3.097,6.33
		C3.079,6.364,3.076,6.402,3.086,6.445C3.088,6.453,3.09,6.461,3.094,6.469C3.107,6.501,3.13,6.523,3.165,6.537
		c0.013,0.005,0.027,0.007,0.041,0.007c0.014,0,0.027-0.003,0.039-0.009c0.023-0.013,0.041-0.023,0.054-0.031
		c0.012-0.008,0.024-0.018,0.036-0.03c0.019-0.021,0.032-0.043,0.039-0.067c0.011-0.043,0.019-0.08,0.022-0.109
		c0-0.013,0-0.022-0.001-0.028c0-0.002-0.001-0.004-0.001-0.006C3.392,6.26,3.388,6.257,3.382,6.256
		C3.379,6.255,3.375,6.255,3.372,6.256c-0.004,0.002-0.007,0.005-0.01,0.009C3.357,6.272,3.354,6.278,3.352,6.286
		C3.35,6.294,3.349,6.302,3.349,6.313C3.348,6.326,3.346,6.341,3.342,6.359C3.341,6.365,3.339,6.374,3.337,6.385
		C3.335,6.403,3.328,6.418,3.319,6.432c-0.01,0.014-0.022,0.026-0.038,0.038C3.274,6.474,3.269,6.478,3.264,6.48
		C3.251,6.486,3.239,6.487,3.226,6.484c-0.013-0.003-0.025-0.01-0.035-0.02C3.182,6.456,3.176,6.446,3.171,6.436
		c-0.004-0.01-0.007-0.02-0.007-0.031C3.163,6.394,3.163,6.381,3.163,6.366c0.001-0.023,0.011-0.041,0.032-0.054
		c0.013-0.008,0.022-0.013,0.026-0.015C3.228,6.291,3.234,6.286,3.237,6.28c0.003-0.006,0.004-0.012,0.002-0.016
		C3.237,6.258,3.233,6.254,3.228,6.252C3.223,6.25,3.216,6.248,3.209,6.248c-0.003,0-0.008,0-0.016,0.001
		c-0.008,0.001-0.015,0-0.021,0c-0.005,0-0.01-0.002-0.014-0.005C3.154,6.24,3.151,6.236,3.149,6.231
		C3.148,6.228,3.147,6.225,3.147,6.222C3.147,6.209,3.152,6.199,3.165,6.191c0.006-0.003,0.012-0.005,0.018-0.005
		c0.006,0,0.011,0.002,0.016,0.007C3.2,6.195,3.202,6.197,3.204,6.2C3.206,6.202,3.208,6.204,3.21,6.205
		C3.217,6.21,3.224,6.211,3.23,6.208C3.236,6.206,3.24,6.201,3.242,6.194c0.005-0.01,0.006-0.02,0.002-0.03
		C3.241,6.158,3.236,6.152,3.23,6.148C3.22,6.141,3.207,6.137,3.193,6.136C3.171,6.135,3.149,6.14,3.126,6.151L3.126,6.151z
		 M3.527,6.272C3.527,6.271,3.524,6.267,3.52,6.259C3.516,6.252,3.511,6.245,3.506,6.238C3.5,6.23,3.492,6.225,3.483,6.222
		C3.474,6.22,3.465,6.221,3.455,6.226C3.452,6.227,3.448,6.23,3.443,6.234C3.434,6.241,3.427,6.251,3.423,6.261
		C3.416,6.279,3.411,6.295,3.408,6.31c-0.003,0.015-0.005,0.03-0.003,0.045c0.001,0.011,0.003,0.022,0.007,0.032
		c0.006,0.015,0.014,0.026,0.024,0.031c0.01,0.005,0.022,0.006,0.036,0.002c0.002,0,0.003-0.001,0.006-0.001
		C3.48,6.419,3.482,6.418,3.485,6.416c0.004-0.002,0.008-0.005,0.012-0.008C3.501,6.403,3.505,6.4,3.509,6.398
		c0.007-0.003,0.015-0.003,0.026,0.001c0.015,0.006,0.03,0.005,0.044-0.001c0.013-0.006,0.023-0.016,0.03-0.029
		C3.622,6.346,3.626,6.32,3.622,6.29l0-0.002C3.62,6.284,3.618,6.283,3.613,6.283c-0.001,0-0.002,0-0.004,0.001
		C3.607,6.285,3.605,6.287,3.604,6.289C3.602,6.292,3.601,6.295,3.6,6.298L3.597,6.317C3.595,6.329,3.593,6.34,3.59,6.351
		C3.589,6.355,3.587,6.359,3.586,6.362C3.585,6.364,3.583,6.366,3.58,6.368c-0.005,0.002-0.009,0.002-0.012,0
		C3.565,6.365,3.562,6.361,3.56,6.356C3.558,6.353,3.555,6.347,3.552,6.34L3.537,6.298L3.527,6.272L3.527,6.272z M3.47,6.278
		c0.005,0,0.007,0.002,0.008,0.006c0.006,0.023,0.011,0.041,0.014,0.053c0.003,0.015,0.002,0.029-0.005,0.042
		c-0.003,0.004-0.006,0.007-0.01,0.007c-0.005,0.002-0.009,0-0.012-0.007L3.463,6.373C3.462,6.368,3.461,6.365,3.46,6.362
		C3.458,6.337,3.461,6.309,3.47,6.278L3.47,6.278z M3.701,6.326C3.683,6.331,3.668,6.333,3.657,6.332
		c-0.012-0.001-0.022-0.008-0.03-0.02c-0.002-0.002-0.003-0.005-0.005-0.01C3.619,6.296,3.618,6.289,3.617,6.28
		c0-0.012,0.001-0.029,0.002-0.053c0-0.005,0-0.009-0.001-0.01C3.618,6.216,3.617,6.215,3.615,6.214
		C3.613,6.213,3.61,6.212,3.607,6.211C3.594,6.209,3.586,6.203,3.581,6.193c-0.002-0.005-0.003-0.01-0.004-0.015
		c-0.001-0.005,0-0.01,0.002-0.015c0.002-0.004,0.005-0.007,0.009-0.009c0.001-0.001,0.003-0.001,0.006-0.001
		c0.009-0.001,0.016,0.002,0.019,0.01c0.001,0.003,0.002,0.006,0.002,0.01c0,0.002,0,0.004,0,0.006c0,0.002,0,0.004,0,0.006
		c0,0.003,0.003,0.004,0.007,0.003C3.626,6.186,3.629,6.184,3.63,6.181c0.002-0.003,0.003-0.005,0.004-0.005
		C3.636,6.173,3.638,6.17,3.64,6.166c0.003-0.005,0.005-0.008,0.008-0.011C3.65,6.152,3.653,6.15,3.656,6.149
		c0.004-0.002,0.009-0.002,0.016,0C3.676,6.15,3.679,6.153,3.681,6.158c0.001,0.003,0.002,0.007,0.002,0.01
		c0,0.008-0.001,0.015-0.002,0.022C3.677,6.213,3.676,6.244,3.678,6.282c0,0.002,0,0.004,0,0.008c0,0.004,0,0.007,0.001,0.009
		C3.681,6.304,3.684,6.306,3.69,6.307c0.003,0,0.005,0,0.007-0.001C3.7,6.304,3.703,6.302,3.705,6.299
		c0.002-0.003,0.005-0.007,0.008-0.011C3.716,6.282,3.72,6.274,3.723,6.265l0.019-0.06C3.745,6.194,3.748,6.186,3.75,6.181
		c0.002-0.003,0.004-0.005,0.006-0.006c0.002-0.001,0.005-0.001,0.007-0.001C3.767,6.175,3.769,6.177,3.77,6.179
		c0.001,0.002,0.001,0.004,0.001,0.006c0,0.001,0,0.003-0.001,0.006c-0.005,0.02-0.01,0.037-0.014,0.051
		c-0.005,0.014-0.01,0.028-0.017,0.041c-0.005,0.009-0.01,0.018-0.017,0.025C3.715,6.317,3.708,6.322,3.701,6.326L3.701,6.326z
		 M3.893,6.154C3.897,6.14,3.898,6.13,3.895,6.123C3.894,6.121,3.893,6.12,3.891,6.12C3.89,6.121,3.888,6.123,3.887,6.127
		C3.886,6.134,3.882,6.144,3.875,6.159c-0.007,0.014-0.014,0.028-0.022,0.04C3.846,6.211,3.84,6.218,3.835,6.22
		c-0.002,0.001-0.005,0-0.008-0.005c-0.003-0.004-0.006-0.011-0.01-0.019C3.812,6.181,3.806,6.165,3.801,6.147L3.797,6.136
		C3.791,6.117,3.785,6.099,3.78,6.08C3.791,6.018,3.788,5.967,3.771,5.93C3.768,5.925,3.765,5.922,3.761,5.921
		C3.758,5.92,3.754,5.92,3.749,5.922c-0.004,0.002-0.008,0.005-0.012,0.01c-0.007,0.01-0.011,0.022-0.013,0.036
		c-0.001,0.014-0.001,0.029,0,0.047C3.73,6.088,3.743,6.154,3.763,6.213C3.766,6.22,3.771,6.229,3.778,6.238
		c0.007,0.009,0.016,0.017,0.025,0.023c0.01,0.006,0.018,0.008,0.026,0.006C3.847,6.263,3.867,6.225,3.893,6.154L3.893,6.154z
		 M3.761,6.006C3.756,5.982,3.753,5.964,3.753,5.952l0-0.011c0-0.004,0.001-0.006,0.002-0.007C3.757,5.933,3.76,5.938,3.763,5.949
		c0.003,0.01,0.006,0.019,0.008,0.028C3.775,5.99,3.777,6.004,3.777,6.019c0,0.015,0,0.032-0.001,0.051
		C3.769,6.041,3.764,6.019,3.761,6.006L3.761,6.006z M4.039,6.251c-0.02,0.01-0.038,0.011-0.054,0.003
		c-0.01-0.005-0.017-0.013-0.021-0.022C3.961,6.224,3.96,6.214,3.963,6.203C3.966,6.194,3.969,6.187,3.972,6.18
		c0.004-0.009,0.006-0.016,0.007-0.02c0.001-0.004,0.001-0.008,0-0.01C3.978,6.147,3.976,6.145,3.972,6.145
		C3.968,6.144,3.961,6.143,3.951,6.142c-0.001,0-0.005-0.001-0.011-0.001c-0.002,0-0.008-0.001-0.019-0.002
		c0,0-0.002-0.001-0.005-0.002C3.89,6.133,3.874,6.122,3.867,6.105C3.862,6.092,3.861,6.076,3.865,6.058
		c0.005-0.025,0.02-0.046,0.046-0.064C3.917,5.99,3.925,5.988,3.935,5.989C3.948,5.99,3.956,5.994,3.959,6.001
		C3.961,6.007,3.96,6.014,3.956,6.023L3.944,6.045C3.939,6.054,3.936,6.061,3.935,6.068C3.934,6.081,3.934,6.09,3.936,6.096
		C3.938,6.1,3.941,6.103,3.946,6.106C3.95,6.108,3.957,6.11,3.965,6.112C3.971,6.114,3.976,6.115,3.98,6.115
		c0.006,0.001,0.011,0.002,0.015,0.003C4.002,6.119,4.007,6.12,4.01,6.12c0.004,0,0.008-0.001,0.013-0.004
		c0.006-0.003,0.013-0.007,0.021-0.014l0.009-0.008C4.054,6.093,4.058,6.09,4.064,6.087L4.07,6.083
		c0.007-0.003,0.014-0.004,0.02-0.004c0.005,0,0.008,0.002,0.01,0.005c0.002,0.004,0.001,0.008-0.003,0.012
		C4.094,6.098,4.09,6.101,4.082,6.105L4.071,6.111l0.006-0.003C4.082,6.106,4.08,6.108,4.074,6.112
		C4.067,6.116,4.062,6.12,4.059,6.122C4.055,6.126,4.052,6.129,4.05,6.132c-0.001,0.003-0.002,0.005,0,0.008
		c0.001,0.002,0.003,0.005,0.006,0.009c0.002,0.002,0.004,0.004,0.006,0.007C4.064,6.158,4.067,6.161,4.07,6.164
		c0.004,0.005,0.007,0.01,0.009,0.015c0.006,0.013,0.005,0.026-0.001,0.038C4.072,6.229,4.062,6.239,4.049,6.246
		C4.047,6.247,4.046,6.248,4.044,6.249C4.042,6.249,4.041,6.25,4.039,6.251L4.039,6.251z M3.994,6.22
		c0.001,0.002,0.003,0.004,0.005,0.005c0.002,0.001,0.005,0.001,0.007,0l0.002-0.002c0.005-0.004,0.007-0.01,0.009-0.017
		c0.001-0.007,0-0.013-0.003-0.019C4.011,6.186,4.009,6.185,4.005,6.185c-0.004,0-0.007,0.003-0.009,0.009
		C3.993,6.199,3.992,6.206,3.992,6.213C3.992,6.215,3.993,6.218,3.994,6.22L3.994,6.22z M4.081,6.059
		c0.007,0.018,0.018,0.032,0.032,0.043C4.124,6.11,4.135,6.115,4.146,6.116c0.011,0.001,0.023,0,0.033-0.005
		C4.189,6.107,4.197,6.1,4.204,6.092c0.04-0.047,0.057-0.102,0.05-0.165c0-0.001,0-0.003-0.001-0.004
		C4.25,5.918,4.247,5.916,4.242,5.915c-0.003,0-0.005,0-0.007,0.001C4.231,5.918,4.228,5.921,4.226,5.924
		c-0.005,0.01-0.009,0.024-0.013,0.043C4.209,5.99,4.204,6.01,4.198,6.03c-0.004,0.015-0.01,0.026-0.016,0.034
		c0,0.001-0.001,0.001-0.002,0.002c-0.002,0.001-0.004,0.001-0.006,0C4.171,6.065,4.169,6.064,4.169,6.062
		C4.167,6.056,4.165,6.051,4.164,6.045c-0.01-0.058-0.018-0.101-0.022-0.131C4.141,5.908,4.14,5.904,4.14,5.901
		c-0.001-0.009-0.002-0.015-0.001-0.02c0.001-0.004,0.003-0.008,0.008-0.012C4.15,5.865,4.158,5.86,4.169,5.855l0.007-0.003
		c0.005-0.002,0.008-0.004,0.01-0.006C4.192,5.841,4.197,5.837,4.2,5.833c0.007-0.008,0.01-0.016,0.007-0.024
		c-0.003-0.007-0.01-0.011-0.021-0.013C4.176,5.795,4.168,5.796,4.161,5.8c-0.011,0.006-0.02,0.009-0.026,0.009
		c-0.006,0-0.011-0.001-0.014-0.005C4.117,5.8,4.113,5.793,4.11,5.783C4.109,5.782,4.108,5.78,4.106,5.777
		C4.102,5.771,4.096,5.767,4.09,5.766C4.083,5.764,4.076,5.765,4.069,5.768C4.057,5.773,4.05,5.782,4.046,5.795
		C4.044,5.809,4.042,5.822,4.042,5.832c0,0.008-0.002,0.014-0.006,0.02C4.033,5.857,4.027,5.861,4.02,5.865
		C4.007,5.87,3.997,5.875,3.989,5.88C3.982,5.884,3.971,5.892,3.958,5.902C3.955,5.904,3.954,5.906,3.952,5.909
		c-0.001,0.003-0.001,0.006,0,0.009c0.002,0.006,0.007,0.008,0.015,0.009c0.007,0.001,0.015,0,0.023-0.003
		C3.998,5.922,4.004,5.921,4.007,5.92c0.002,0,0.005-0.002,0.009-0.003l0.012-0.005c0.006-0.002,0.011-0.002,0.015,0
		C4.047,5.913,4.05,5.916,4.052,5.92c0.001,0.003,0.002,0.008,0.003,0.015l0.002,0.012L4.081,6.059L4.081,6.059z M4.389,5.983
		C4.401,5.978,4.41,5.969,4.417,5.957c0.007-0.012,0.011-0.026,0.011-0.042c0-0.002,0-0.005,0-0.009c0-0.004-0.001-0.007-0.001-0.01
		c-0.003-0.009-0.003-0.017,0-0.024C4.43,5.866,4.436,5.86,4.445,5.856C4.452,5.852,4.458,5.847,4.463,5.84
		c0.005-0.007,0.008-0.014,0.01-0.022c0.001-0.006,0.001-0.011-0.001-0.015C4.472,5.8,4.469,5.797,4.466,5.794
		C4.463,5.792,4.46,5.791,4.455,5.791c-0.003-0.001-0.006,0-0.01,0.001C4.439,5.795,4.434,5.802,4.432,5.811
		C4.431,5.813,4.431,5.816,4.431,5.82c0,0.004,0,0.007-0.001,0.009C4.429,5.835,4.426,5.838,4.421,5.841
		c-0.004,0.002-0.007,0.002-0.01,0.001l-0.019-0.01c-0.011-0.007-0.021-0.01-0.031-0.008c-0.018,0.003-0.034,0.004-0.05,0.004
		c-0.004-0.001-0.008,0-0.011,0.002C4.294,5.831,4.289,5.836,4.286,5.844C4.281,5.856,4.278,5.868,4.277,5.882
		c-0.001,0.01-0.001,0.02,0.001,0.03c0.001,0.01,0.004,0.021,0.007,0.035c0.001,0.005,0.002,0.009,0.003,0.011
		c0.007,0.018,0.02,0.029,0.039,0.034c0.019,0.005,0.038,0.002,0.057-0.007L4.389,5.983L4.389,5.983z M4.387,5.862
		c0.006,0.015,0.007,0.03,0.003,0.046C4.387,5.924,4.379,5.937,4.368,5.946C4.366,5.948,4.364,5.949,4.363,5.95
		c-0.006,0.003-0.01,0-0.014-0.007C4.341,5.925,4.337,5.905,4.337,5.885c0-0.012,0.006-0.024,0.019-0.036
		C4.357,5.847,4.359,5.846,4.36,5.845c0.003-0.001,0.007-0.002,0.01-0.001C4.374,5.846,4.377,5.848,4.38,5.851
		c0.002,0.002,0.003,0.004,0.004,0.006C4.385,5.859,4.386,5.861,4.387,5.862L4.387,5.862z M4.683,5.822
		c0.003-0.004,0.005-0.009,0.006-0.014c0.001-0.005,0.001-0.01,0.001-0.017c0-0.009,0-0.016,0.001-0.023
		c0.001-0.004,0.003-0.007,0.006-0.008c0.001,0,0.002-0.001,0.004,0c0.005,0,0.008,0.002,0.01,0.008l0.002,0.005
		C4.711,5.792,4.709,5.807,4.706,5.819C4.703,5.831,4.699,5.843,4.693,5.854C4.689,5.861,4.684,5.865,4.676,5.869
		C4.669,5.872,4.661,5.872,4.652,5.871C4.644,5.869,4.638,5.865,4.634,5.859C4.631,5.853,4.629,5.848,4.627,5.844
		C4.625,5.838,4.624,5.833,4.623,5.827C4.62,5.813,4.615,5.795,4.608,5.774L4.599,5.749C4.598,5.746,4.597,5.744,4.596,5.742
		C4.595,5.74,4.594,5.738,4.593,5.736C4.592,5.736,4.591,5.735,4.589,5.735c-0.001,0-0.003,0-0.004,0
		C4.584,5.736,4.583,5.737,4.583,5.738c-0.001,0-0.002,0.001-0.002,0.002C4.577,5.76,4.575,5.778,4.575,5.793
		c0,0.015,0.002,0.03,0.007,0.045C4.585,5.845,4.59,5.853,4.599,5.861c0.005,0.004,0.009,0.009,0.01,0.013
		C4.61,5.877,4.61,5.881,4.608,5.886C4.605,5.893,4.6,5.898,4.594,5.9C4.592,5.901,4.59,5.902,4.588,5.902
		c-0.002,0-0.004,0.001-0.005,0.001C4.565,5.906,4.551,5.902,4.541,5.89C4.512,5.86,4.493,5.831,4.483,5.804
		C4.477,5.787,4.474,5.77,4.473,5.752c0-0.006,0.001-0.011,0.001-0.017c0.001-0.007,0.005-0.012,0.01-0.014
		C4.49,5.719,4.496,5.72,4.501,5.723C4.507,5.726,4.512,5.73,4.514,5.736c0.004,0.006,0.007,0.011,0.009,0.015
		C4.526,5.756,4.528,5.76,4.53,5.763l0.006,0.01c0,0.001,0.001,0.001,0.002,0.002c0.001,0,0.002,0.001,0.002,0.001
		c0.004,0.001,0.006-0.001,0.006-0.005c0.001-0.005,0.002-0.01,0.005-0.015c0.002-0.005,0.005-0.01,0.009-0.016
		c0.004-0.006,0.006-0.01,0.008-0.013c0.006-0.009,0.011-0.014,0.016-0.016C4.59,5.708,4.598,5.709,4.609,5.713
		c0.019,0.009,0.033,0.022,0.042,0.039C4.652,5.755,4.655,5.761,4.66,5.77c0.005,0.009,0.009,0.018,0.012,0.027
		C4.674,5.803,4.676,5.81,4.678,5.818c0,0.001,0.001,0.001,0.002,0.002C4.68,5.82,4.681,5.821,4.683,5.822z"/>
</g>
</svg>
