<?xml version="1.0" encoding="utf-8"?>
<!-- Generator: Adobe Illustrator 19.0.0, SVG Export Plug-In . SVG Version: 6.00 Build 0)  -->
<svg version="1.1" id="Layer_1" xmlns="http://www.w3.org/2000/svg" xmlns:xlink="http://www.w3.org/1999/xlink" x="0px" y="0px"
	 viewBox="0 0 32 32" enable-background="new 0 0 32 32" xml:space="preserve">
<g id="XMLID_26_">
	<rect id="XMLID_1_" fill="#FFFFFF" width="32" height="32"/>
	<g id="XMLID_27_">
		
			<ellipse id="XMLID_25_" transform="matrix(-0.032 0.9995 -0.9995 -0.032 45.0656 -16.0912)" fill-rule="evenodd" clip-rule="evenodd" fill="#E6E6E6" cx="30.325" cy="13.777" rx="0.396" ry="1.403"/>
		
			<ellipse id="XMLID_24_" transform="matrix(0.1229 -0.9924 0.9924 0.1229 -4.519 37.352)" fill-rule="evenodd" clip-rule="evenodd" fill="#E6E6E6" cx="18.871" cy="21.233" rx="0.396" ry="4.658"/>
		
			<ellipse id="XMLID_23_" transform="matrix(0.2275 -0.9738 0.9738 0.2275 -13.4861 21.2234)" fill-rule="evenodd" clip-rule="evenodd" fill="#E6E6E6" cx="6.634" cy="19.112" rx="0.396" ry="4.658"/>
		<path id="XMLID_22_" fill-rule="evenodd" clip-rule="evenodd" fill="#E6E6E6" d="M16.026,13.063
			c1.008-0.324,1.403-0.63,1.367-0.864c-0.036-0.234-1.475-0.288-1.655,0.306C15.558,13.099,15.828,13.135,16.026,13.063z"/>
		<path id="XMLID_21_" fill-rule="evenodd" clip-rule="evenodd" fill="#75B1B3" d="M11.443,16.099c0,0.027,0.026,0.449,0.026,0.449
			s-0.143,1.481-0.826,2.205c-0.684,0.724-1.212,0.661-1.212,0.661l1.115-1.347l0.225-0.981
			C10.77,17.086,11.09,16.155,11.443,16.099z"/>
		<path id="XMLID_20_" fill-rule="evenodd" clip-rule="evenodd" fill="#5F9EA0" d="M6.019,19.119
			c1.065,0.36,2.994,0.331,3.411,0.295c0.417-0.036,0.936-0.288,1.202-1.108c0.266-0.82,0.288-1.468,0.475-1.648
			c0.187-0.18,0.792-0.115,1.339-0.007c0.547,0.108,0.835,0.54,0.928,0.871c0.094,0.331,0.309,0.928,0.475,1.396
			c0.166,0.468,0.489,0.885,0.763,1.166c0.273,0.281,1.641,0.756,3.793,1.079c2.152,0.324,4.505-0.166,4.642-0.288
			c0.137-0.122,0.396-0.216,0.504-1.166c0.108-0.95,0.73-1.166,0.885-1.234c0.155-0.068,0.349-0.094,0.349-0.094V16.77
			c0,0-1.205-0.144-2.041-0.333c-0.837-0.189-3.104-0.702-5.892-0.774c-2.789-0.072-3.652,0.045-4.156,0.054
			c-0.504,0.009-1.089,0.036-1.457-0.135c-0.369-0.171-1.269-0.567-2.078-0.792c-0.81-0.225-3.589-0.693-4.642-0.864
			c-1.052-0.171-1.718-0.09-1.871-0.09c-0.153,0-0.315-0.207-0.315-0.207l-0.189,0.063v1.133c0,0,0.018,0.189,0.27,0.45
			c0.744,0.771,0.511,1.342,0.882,2.19C3.602,18.17,5.331,18.886,6.019,19.119z"/>
		<path id="XMLID_19_" fill-rule="evenodd" clip-rule="evenodd" fill="#FFFFFF" d="M3.5,16.918c0.072,0.198,0.144,0.504,0.414,0.729
			c0.27,0.225,1.187,1.044,2.825,1.313c1.637,0.27,2.537,0.252,2.924,0.027c0.387-0.225,0.621-0.972,0.738-1.502
			c0.076-0.344,0.204-1.596-0.106-1.81c-0.533-0.512-2.56-0.908-3.105-1.015c-1.142-0.225-1.817-0.378-2.411-0.441
			c-0.416-0.044-0.854-0.066-1.119-0.023c-0.113,0.019-0.195,0.049-0.23,0.095c-0.07,0.091-0.079,0.613-0.059,1.169
			C3.391,16.098,3.451,16.782,3.5,16.918z"/>
		<path id="XMLID_18_" fill-rule="evenodd" clip-rule="evenodd" fill="#FFFFFF" d="M15.398,15.881
			c-0.765,0.009-1.664,0.045-1.637,0.738s0.18,1.304,0.45,2.024c0.27,0.72,0.549,1.241,1.295,1.52
			c0.747,0.279,1.763,0.504,3.032,0.693c0.727,0.108,1.848,0.149,2.712,0.091c0.47-0.032,1.554-0.099,1.705-0.703
			c0.03-0.12,0.096-0.665,0.09-1.251c-0.006-0.506-0.04-1.196-0.114-1.705c-0.037-0.252-0.171-0.408-0.84-0.607
			C20.185,16.116,17.383,15.857,15.398,15.881z"/>
		<path id="XMLID_17_" fill-rule="evenodd" clip-rule="evenodd" fill="#75B1B3" d="M14.005,16.121
			c-0.158,0.108-0.253,0.266-0.244,0.498c0.027,0.693,0.18,1.304,0.45,2.024c0.234,0.625,0.475,1.1,1.023,1.397
			c-0.452-0.476-0.69-1.249-0.825-2.022c-0.18-1.026-0.432-1.187-0.477-1.394C13.887,16.418,14.002,16.127,14.005,16.121z"/>
		<path id="XMLID_16_" fill-rule="evenodd" clip-rule="evenodd" fill="#558E90" d="M2.723,13.627l-0.195-0.244
			c0,0,0.793-0.247,1.153-0.368c0.36-0.121,5.55-2.231,6.477-2.591c0.927-0.36,1.988-0.603,3.688-0.333
			c1.7,0.27,3.041,0.837,3.095,0.846s0.297,0.121,0.31,0.333c0.01,0.153-0.271,0.544-0.426,0.747
			c-0.131,0.171-0.201,0.204-0.444,0.11c-0.196-0.076-1.329-0.522-1.878-0.657c-0.549-0.135-1.921-0.427-3.882,0.265
			c-1.961,0.693-5.487,2.163-5.487,2.163L2.723,13.627z"/>
		<path id="XMLID_15_" fill-rule="evenodd" clip-rule="evenodd" fill="#558E90" d="M24.267,16.49l0.612-0.003
			c0,0,1.673-1.239,2.699-2.228c1.025-0.99,2.321-2.609,2.321-2.609s0.193-0.081,0.184,0.162c-0.009,0.243-0.014,1.178-0.014,1.178
			s-0.032,0.108-0.198,0.373c-1.107,1.765-2.866,3.319-4.48,4.606v0.252c0,0-0.309,0.101-0.606,0.159
			c-0.082,0.016-0.138-0.007-0.217,0.007C24.416,18.416,24.542,17.153,24.267,16.49z"/>
		<path id="XMLID_14_" fill-rule="evenodd" clip-rule="evenodd" fill="#75B1B3" d="M2.143,13.693c0,0,0.252-0.301,0.432-0.319
			c0.18-0.018,0.45,0.09,0.917,0.144c0.468,0.054,4.327,0.693,5.838,1.115c1.511,0.423,2.141,0.666,2.384,0.801
			c0.243,0.135,1.574,0.108,2.267,0.045c0.693-0.063,3.931-0.063,6.18,0.243s4.471,0.711,4.633,0.747
			c0.162,0.036,0.342,0.081,0.342,0.081l-0.351,0.221c0,0-1.205-0.144-2.041-0.333c-0.837-0.189-3.104-0.702-5.892-0.774
			c-2.789-0.072-3.652,0.045-4.156,0.054c-0.504,0.009-1.089,0.036-1.457-0.135c-0.369-0.171-1.269-0.567-2.078-0.792
			c-0.81-0.225-3.589-0.693-4.642-0.864c-1.052-0.171-1.718-0.09-1.871-0.09c-0.153,0-0.315-0.207-0.315-0.207L2.143,13.693z"/>
		<path id="XMLID_28_" fill-rule="evenodd" clip-rule="evenodd" fill="#417575" d="M6.252,12.302
			c-0.038,0.015-0.069,0.034-0.094,0.058c-0.024,0.023-0.04,0.05-0.047,0.079c-0.007,0.029-0.005,0.058,0.007,0.085
			c0.004,0.01,0.009,0.019,0.016,0.029c0.014,0.017,0.029,0.032,0.044,0.045c0.01,0.008,0.017,0.016,0.02,0.023
			c0.004,0.01,0.002,0.022-0.005,0.038c-0.035,0.068-0.042,0.145-0.021,0.231c0.003,0.015,0.008,0.031,0.015,0.049
			c0.026,0.063,0.074,0.108,0.143,0.135c0.027,0.01,0.054,0.015,0.082,0.014c0.028,0,0.054-0.007,0.078-0.019
			c0.047-0.026,0.082-0.046,0.107-0.062c0.025-0.016,0.049-0.035,0.072-0.059c0.038-0.041,0.064-0.086,0.077-0.134
			c0.023-0.086,0.037-0.159,0.044-0.219c0-0.026,0-0.044-0.001-0.055c0-0.005-0.001-0.009-0.002-0.011
			c-0.004-0.009-0.011-0.015-0.022-0.017c-0.007-0.003-0.014-0.002-0.021,0.001c-0.007,0.003-0.014,0.009-0.02,0.018
			c-0.009,0.012-0.015,0.026-0.019,0.041c-0.003,0.015-0.006,0.033-0.007,0.053c-0.002,0.026-0.006,0.057-0.014,0.093
			c-0.003,0.012-0.006,0.029-0.01,0.053c-0.005,0.034-0.017,0.065-0.037,0.093c-0.019,0.027-0.045,0.053-0.076,0.075
			c-0.013,0.01-0.024,0.017-0.034,0.022c-0.025,0.011-0.05,0.014-0.076,0.008c-0.026-0.006-0.049-0.019-0.071-0.041
			c-0.017-0.017-0.03-0.036-0.038-0.056c-0.008-0.019-0.013-0.04-0.015-0.062c-0.002-0.022-0.003-0.048-0.002-0.077
			c0.001-0.047,0.022-0.083,0.064-0.109c0.026-0.015,0.044-0.026,0.052-0.03c0.015-0.011,0.026-0.023,0.032-0.035
			c0.007-0.012,0.008-0.023,0.004-0.033c-0.005-0.011-0.013-0.018-0.023-0.023c-0.01-0.004-0.023-0.007-0.038-0.009
			c-0.005,0-0.015,0-0.031,0.001c-0.016,0.001-0.03,0.001-0.042-0.001c-0.01-0.001-0.02-0.004-0.028-0.01
			c-0.008-0.006-0.014-0.014-0.018-0.022c-0.003-0.006-0.004-0.012-0.004-0.018c-0.001-0.026,0.01-0.046,0.035-0.062
			c0.011-0.007,0.023-0.01,0.035-0.01c0.012,0,0.023,0.005,0.032,0.014c0.003,0.004,0.007,0.008,0.011,0.013
			c0.004,0.005,0.008,0.009,0.012,0.011c0.014,0.01,0.028,0.012,0.041,0.006c0.011-0.005,0.018-0.014,0.023-0.028
			c0.01-0.02,0.011-0.04,0.003-0.06c-0.005-0.013-0.014-0.024-0.026-0.032c-0.022-0.014-0.047-0.022-0.075-0.023
			C6.342,12.269,6.297,12.279,6.252,12.302L6.252,12.302z M7.055,12.544c-0.002-0.002-0.007-0.011-0.015-0.025
			c-0.008-0.014-0.017-0.029-0.028-0.042C7,12.46,6.985,12.449,6.967,12.445c-0.018-0.004-0.037-0.002-0.056,0.007
			c-0.006,0.003-0.014,0.008-0.024,0.016c-0.019,0.015-0.033,0.034-0.042,0.055c-0.013,0.035-0.022,0.067-0.029,0.098
			c-0.007,0.031-0.009,0.061-0.007,0.09c0.002,0.022,0.007,0.043,0.015,0.064c0.013,0.03,0.028,0.051,0.048,0.062
			c0.019,0.011,0.043,0.013,0.072,0.005c0.003-0.001,0.007-0.002,0.011-0.003c0.005-0.001,0.01-0.003,0.015-0.006
			c0.009-0.004,0.016-0.01,0.023-0.017c0.008-0.009,0.016-0.016,0.025-0.02c0.013-0.006,0.031-0.005,0.051,0.002
			c0.03,0.012,0.059,0.011,0.088-0.002c0.025-0.012,0.046-0.031,0.06-0.059c0.025-0.045,0.034-0.097,0.026-0.158l-0.001-0.005
			c-0.003-0.006-0.008-0.009-0.017-0.01c-0.002,0-0.004,0.001-0.008,0.002c-0.004,0.002-0.008,0.006-0.012,0.012
			c-0.004,0.006-0.006,0.012-0.007,0.018l-0.006,0.036c-0.003,0.025-0.008,0.047-0.014,0.068c-0.003,0.01-0.005,0.017-0.008,0.022
			c-0.002,0.005-0.007,0.009-0.012,0.012c-0.01,0.005-0.018,0.004-0.024-0.001c-0.006-0.005-0.012-0.012-0.017-0.022
			c-0.004-0.007-0.008-0.017-0.015-0.033l-0.031-0.084L7.055,12.544L7.055,12.544z M6.941,12.556c0.009,0,0.015,0.004,0.016,0.011
			c0.013,0.047,0.022,0.082,0.027,0.106c0.007,0.031,0.004,0.059-0.009,0.085c-0.005,0.008-0.011,0.013-0.019,0.015
			c-0.01,0.004-0.018-0.001-0.023-0.014l-0.006-0.013c-0.004-0.009-0.006-0.016-0.006-0.021C6.915,12.674,6.922,12.618,6.941,12.556
			L6.941,12.556z M7.403,12.652c-0.037,0.011-0.067,0.015-0.09,0.012c-0.023-0.003-0.043-0.017-0.06-0.041
			c-0.003-0.004-0.007-0.011-0.011-0.02c-0.005-0.012-0.007-0.026-0.008-0.043c0.001-0.023,0.002-0.059,0.004-0.106
			c0-0.011-0.001-0.017-0.002-0.02c-0.001-0.003-0.004-0.005-0.008-0.007c-0.004-0.002-0.009-0.003-0.016-0.004
			c-0.026-0.005-0.042-0.017-0.051-0.037c-0.004-0.01-0.007-0.02-0.007-0.03c-0.001-0.011,0-0.021,0.005-0.029
			c0.004-0.009,0.011-0.015,0.018-0.018c0.003-0.001,0.007-0.002,0.011-0.003c0.019-0.003,0.032,0.004,0.039,0.02
			c0.002,0.006,0.004,0.012,0.004,0.019c0.001,0.004,0.001,0.008,0,0.012c-0.001,0.004-0.001,0.008,0,0.011
			c0.001,0.006,0.005,0.008,0.014,0.006c0.006-0.003,0.01-0.007,0.014-0.013c0.004-0.006,0.006-0.01,0.008-0.011
			c0.003-0.004,0.007-0.01,0.012-0.019c0.005-0.009,0.011-0.017,0.016-0.022c0.004-0.005,0.009-0.009,0.014-0.011
			c0.009-0.004,0.019-0.004,0.031-0.001c0.009,0.003,0.015,0.009,0.019,0.018c0.003,0.007,0.004,0.014,0.003,0.021
			c-0.001,0.015-0.002,0.029-0.005,0.043c-0.007,0.047-0.008,0.109-0.004,0.186c0,0.003,0.001,0.008,0,0.016
			c0,0.008,0.001,0.014,0.003,0.019c0.003,0.008,0.011,0.013,0.021,0.015c0.005,0,0.01-0.001,0.014-0.003
			c0.006-0.003,0.012-0.007,0.016-0.013c0.004-0.006,0.009-0.013,0.015-0.023c0.007-0.013,0.015-0.028,0.021-0.047l0.038-0.12
			c0.006-0.021,0.012-0.037,0.017-0.047c0.004-0.006,0.007-0.01,0.012-0.012c0.005-0.002,0.01-0.003,0.014-0.002
			c0.007,0.002,0.011,0.005,0.013,0.01c0.001,0.003,0.002,0.008,0.002,0.013c0,0.002,0,0.006-0.001,0.012
			c-0.01,0.04-0.019,0.074-0.028,0.103c-0.009,0.029-0.02,0.056-0.033,0.081c-0.009,0.019-0.02,0.036-0.034,0.051
			C7.43,12.633,7.417,12.644,7.403,12.652L7.403,12.652z M7.785,12.307c0.009-0.027,0.011-0.047,0.005-0.061
			c-0.002-0.006-0.005-0.008-0.008-0.006c-0.003,0.001-0.006,0.006-0.008,0.013c-0.003,0.013-0.012,0.034-0.025,0.063
			c-0.014,0.029-0.028,0.056-0.043,0.08c-0.015,0.025-0.027,0.039-0.035,0.043c-0.005,0.002-0.01-0.001-0.016-0.009
			c-0.006-0.009-0.012-0.021-0.019-0.039c-0.013-0.03-0.024-0.063-0.034-0.098l-0.008-0.023c-0.012-0.036-0.024-0.073-0.034-0.11
			c0.022-0.126,0.016-0.226-0.018-0.301c-0.005-0.009-0.011-0.015-0.019-0.017c-0.008-0.002-0.016-0.001-0.024,0.003
			c-0.009,0.004-0.016,0.011-0.023,0.021c-0.014,0.021-0.023,0.045-0.025,0.072c-0.003,0.028-0.003,0.059,0,0.094
			c0.011,0.144,0.036,0.276,0.076,0.396c0.005,0.014,0.015,0.031,0.03,0.049c0.015,0.019,0.032,0.034,0.051,0.045
			c0.019,0.011,0.037,0.015,0.053,0.012C7.693,12.526,7.735,12.451,7.785,12.307L7.785,12.307z M7.522,12.012
			c-0.01-0.048-0.015-0.084-0.016-0.107l0.001-0.023c0.001-0.008,0.003-0.012,0.005-0.013c0.004-0.002,0.009,0.008,0.016,0.029
			c0.006,0.019,0.012,0.038,0.017,0.055c0.007,0.027,0.011,0.055,0.012,0.085c0.001,0.029,0,0.063-0.002,0.102
			C7.538,12.081,7.527,12.039,7.522,12.012L7.522,12.012z M8.079,12.501c-0.039,0.021-0.075,0.023-0.108,0.006
			c-0.021-0.011-0.035-0.025-0.042-0.043c-0.007-0.017-0.008-0.036-0.002-0.057c0.005-0.018,0.011-0.034,0.017-0.046
			c0.007-0.018,0.012-0.032,0.015-0.04c0.002-0.009,0.002-0.015,0-0.02c-0.002-0.006-0.007-0.009-0.015-0.011
			c-0.008-0.002-0.022-0.003-0.042-0.005c-0.002,0-0.009-0.001-0.023-0.003c-0.003,0-0.016-0.001-0.038-0.003
			c0,0-0.003-0.001-0.01-0.004c-0.049-0.009-0.081-0.031-0.096-0.065c-0.011-0.026-0.012-0.057-0.005-0.093
			c0.009-0.051,0.04-0.093,0.092-0.127c0.013-0.008,0.028-0.012,0.047-0.011c0.026,0.002,0.042,0.01,0.048,0.024
			c0.005,0.012,0.003,0.026-0.006,0.044l-0.024,0.045c-0.009,0.017-0.015,0.032-0.017,0.045c-0.004,0.026-0.003,0.044,0.002,0.056
			c0.003,0.008,0.01,0.015,0.018,0.02c0.009,0.005,0.022,0.009,0.039,0.012c0.012,0.004,0.021,0.006,0.029,0.006
			c0.012,0.002,0.023,0.003,0.03,0.006c0.013,0.003,0.023,0.004,0.031,0.004c0.008,0,0.016-0.003,0.026-0.007
			c0.011-0.005,0.025-0.015,0.043-0.029l0.017-0.016c0.002-0.002,0.009-0.007,0.022-0.015l0.012-0.007
			c0.013-0.006,0.027-0.009,0.041-0.008c0.01,0,0.017,0.003,0.019,0.01c0.003,0.008,0.001,0.016-0.007,0.023
			c-0.005,0.005-0.015,0.012-0.03,0.02l-0.022,0.011l0.013-0.006c0.008-0.004,0.005-0.001-0.008,0.008
			c-0.013,0.009-0.023,0.015-0.029,0.02c-0.009,0.008-0.015,0.015-0.018,0.02c-0.003,0.005-0.003,0.01-0.001,0.016
			c0.002,0.005,0.006,0.011,0.011,0.018c0.003,0.004,0.008,0.009,0.013,0.013c0.005,0.005,0.01,0.01,0.015,0.017
			c0.007,0.009,0.013,0.019,0.018,0.03c0.011,0.027,0.011,0.052-0.001,0.076c-0.012,0.024-0.031,0.043-0.058,0.058
			c-0.003,0.002-0.007,0.004-0.01,0.005C8.085,12.498,8.082,12.5,8.079,12.501L8.079,12.501z M7.987,12.44
			c0.002,0.005,0.005,0.008,0.01,0.011c0.005,0.002,0.009,0.002,0.013,0l0.004-0.003c0.009-0.008,0.015-0.02,0.017-0.033
			c0.002-0.014,0-0.027-0.006-0.039c-0.003-0.004-0.009-0.006-0.015-0.006c-0.007,0.001-0.014,0.007-0.019,0.018
			c-0.005,0.011-0.008,0.024-0.008,0.039C7.984,12.431,7.985,12.435,7.987,12.44L7.987,12.44z M8.161,12.118
			c0.015,0.036,0.036,0.065,0.065,0.086c0.022,0.016,0.044,0.026,0.067,0.028c0.023,0.003,0.045-0.001,0.066-0.011
			c0.018-0.008,0.034-0.021,0.048-0.037c0.08-0.094,0.114-0.204,0.1-0.33c0-0.002-0.001-0.005-0.002-0.009
			c-0.004-0.01-0.011-0.015-0.021-0.016c-0.005,0-0.01,0.001-0.014,0.003c-0.007,0.003-0.013,0.008-0.018,0.015
			c-0.01,0.019-0.019,0.048-0.026,0.086c-0.008,0.045-0.018,0.087-0.03,0.125c-0.008,0.029-0.019,0.052-0.033,0.068
			c0,0.001-0.002,0.002-0.005,0.003c-0.004,0.002-0.009,0.002-0.013,0.001c-0.004-0.001-0.007-0.004-0.008-0.008
			c-0.005-0.011-0.008-0.023-0.01-0.035c-0.021-0.116-0.035-0.203-0.044-0.261c-0.002-0.012-0.003-0.021-0.005-0.026
			c-0.003-0.018-0.004-0.031-0.003-0.039c0.001-0.009,0.006-0.017,0.015-0.025C8.3,11.73,8.316,11.721,8.339,11.71l0.014-0.006
			c0.009-0.004,0.016-0.008,0.019-0.011c0.013-0.01,0.022-0.019,0.028-0.027c0.015-0.015,0.019-0.031,0.013-0.048
			c-0.006-0.014-0.019-0.023-0.041-0.027C8.353,11.59,8.336,11.592,8.321,11.6c-0.022,0.011-0.04,0.017-0.051,0.018
			c-0.012,0.001-0.021-0.002-0.029-0.01c-0.007-0.008-0.015-0.021-0.022-0.041c-0.001-0.003-0.004-0.008-0.008-0.012
			c-0.008-0.012-0.019-0.019-0.032-0.023c-0.013-0.003-0.027-0.002-0.041,0.005C8.115,11.547,8.1,11.565,8.092,11.59
			c-0.005,0.028-0.008,0.053-0.009,0.074c0,0.016-0.004,0.029-0.011,0.039c-0.007,0.01-0.018,0.019-0.033,0.026
			c-0.025,0.01-0.045,0.02-0.061,0.03c-0.015,0.009-0.036,0.023-0.063,0.044c-0.005,0.004-0.009,0.009-0.011,0.015
			c-0.002,0.006-0.002,0.012,0,0.019c0.005,0.011,0.014,0.017,0.03,0.017c0.014,0.001,0.029-0.001,0.046-0.005
			c0.017-0.004,0.028-0.007,0.034-0.008c0.004-0.001,0.01-0.003,0.017-0.007l0.023-0.011c0.012-0.004,0.022-0.004,0.03,0
			c0.008,0.004,0.014,0.01,0.017,0.018c0.003,0.006,0.004,0.017,0.005,0.031l0.003,0.023L8.161,12.118L8.161,12.118z M8.779,11.966
			c0.022-0.011,0.041-0.028,0.056-0.052c0.015-0.024,0.022-0.052,0.022-0.085c0-0.004,0-0.01-0.001-0.018
			c0-0.008-0.001-0.015-0.002-0.02c-0.005-0.019-0.005-0.035,0-0.048c0.005-0.013,0.018-0.023,0.037-0.032
			c0.014-0.007,0.026-0.017,0.036-0.031c0.01-0.013,0.017-0.028,0.02-0.044c0.003-0.011,0.003-0.021-0.001-0.03
			c-0.003-0.007-0.007-0.013-0.013-0.017c-0.006-0.005-0.013-0.007-0.022-0.007c-0.006-0.002-0.012-0.001-0.019,0.003
			c-0.014,0.006-0.023,0.019-0.028,0.037c-0.001,0.005-0.002,0.011-0.003,0.018c0,0.008-0.001,0.014-0.001,0.019
			c-0.003,0.01-0.009,0.018-0.019,0.022c-0.007,0.003-0.014,0.004-0.02,0.002l-0.038-0.021c-0.022-0.014-0.042-0.019-0.062-0.016
			c-0.035,0.006-0.068,0.009-0.099,0.007c-0.008-0.001-0.016,0-0.023,0.003c-0.012,0.006-0.022,0.016-0.028,0.033
			c-0.01,0.023-0.015,0.049-0.017,0.076c-0.002,0.021-0.001,0.04,0.002,0.06c0.003,0.019,0.007,0.043,0.014,0.07
			c0.003,0.01,0.005,0.018,0.007,0.023c0.015,0.036,0.041,0.059,0.078,0.068c0.037,0.009,0.075,0.005,0.114-0.014L8.779,11.966
			L8.779,11.966z M8.774,11.724c0.011,0.03,0.014,0.061,0.007,0.092c-0.007,0.032-0.021,0.056-0.043,0.075
			c-0.005,0.004-0.009,0.007-0.012,0.008c-0.011,0.005-0.021,0.001-0.028-0.013c-0.015-0.037-0.023-0.076-0.024-0.117
			c0-0.024,0.012-0.047,0.038-0.071c0.004-0.003,0.007-0.006,0.01-0.007c0.006-0.003,0.013-0.003,0.021-0.002
			c0.008,0.002,0.013,0.006,0.018,0.012c0.003,0.004,0.006,0.008,0.009,0.013C8.771,11.719,8.773,11.722,8.774,11.724L8.774,11.724z
			 M9.365,11.645c0.006-0.009,0.01-0.018,0.011-0.028c0.002-0.01,0.002-0.021,0.003-0.034c0-0.018,0-0.033,0.002-0.046
			c0.001-0.008,0.005-0.013,0.012-0.016c0.002-0.001,0.005-0.001,0.008-0.001c0.01-0.001,0.016,0.005,0.02,0.016l0.003,0.01
			c-0.003,0.037-0.008,0.067-0.013,0.092c-0.005,0.024-0.014,0.047-0.027,0.07c-0.007,0.013-0.018,0.023-0.033,0.029
			c-0.015,0.006-0.031,0.008-0.047,0.004c-0.016-0.003-0.029-0.011-0.036-0.023c-0.006-0.011-0.011-0.021-0.015-0.03
			c-0.004-0.011-0.006-0.022-0.008-0.033c-0.005-0.029-0.015-0.064-0.03-0.105l-0.018-0.052c-0.002-0.005-0.004-0.009-0.006-0.013
			c-0.002-0.004-0.004-0.008-0.006-0.011c-0.001-0.002-0.004-0.003-0.006-0.004c-0.003-0.001-0.005,0-0.007,0.001
			c-0.003,0.001-0.005,0.003-0.006,0.006c-0.002,0.001-0.003,0.002-0.004,0.004c-0.007,0.04-0.011,0.076-0.012,0.107
			c-0.001,0.031,0.004,0.061,0.015,0.09c0.005,0.013,0.016,0.029,0.033,0.046c0.011,0.009,0.017,0.017,0.02,0.026
			c0.002,0.006,0.002,0.014-0.001,0.024C9.21,11.786,9.201,11.795,9.188,11.8c-0.004,0.002-0.008,0.003-0.012,0.004
			c-0.004,0.001-0.007,0.001-0.01,0.002c-0.036,0.006-0.064-0.003-0.083-0.025c-0.058-0.061-0.097-0.118-0.116-0.173
			c-0.012-0.034-0.018-0.068-0.019-0.103c0-0.011,0.001-0.023,0.003-0.034c0.002-0.014,0.009-0.023,0.021-0.028
			c0.011-0.004,0.021-0.003,0.032,0.003c0.012,0.006,0.021,0.015,0.027,0.027c0.007,0.012,0.014,0.022,0.018,0.031
			c0.005,0.009,0.009,0.016,0.012,0.023l0.011,0.021c0.001,0.001,0.002,0.003,0.003,0.004c0.002,0.001,0.003,0.002,0.005,0.002
			c0.007,0.001,0.011-0.002,0.013-0.01c0.001-0.01,0.004-0.02,0.009-0.03c0.005-0.01,0.011-0.021,0.018-0.032
			c0.007-0.011,0.013-0.02,0.016-0.025c0.011-0.017,0.022-0.028,0.033-0.033c0.013-0.005,0.03-0.003,0.052,0.006
			c0.039,0.018,0.067,0.044,0.084,0.079c0.002,0.005,0.009,0.016,0.019,0.035c0.01,0.019,0.018,0.036,0.024,0.053
			c0.005,0.013,0.008,0.027,0.011,0.042c0,0.001,0.002,0.003,0.003,0.004C9.361,11.641,9.363,11.642,9.365,11.645z"/>
	</g>
</g>
</svg>
