<?xml version="1.0" encoding="utf-8"?>
<!-- Generator: Adobe Illustrator 19.0.0, SVG Export Plug-In . SVG Version: 6.00 Build 0)  -->
<svg version="1.1" id="Layer_1" xmlns="http://www.w3.org/2000/svg" xmlns:xlink="http://www.w3.org/1999/xlink" x="0px" y="0px"
	 viewBox="0 0 1024 1024" enable-background="new 0 0 1024 1024" xml:space="preserve">
<g id="XMLID_3_">
	<path id="XMLID_43_" fill-rule="evenodd" clip-rule="evenodd" fill="#FFFFFF" d="M738.037,625.505
		c-4.372,4.267-8.938,8.102-13.952,10.821c-5.51,10.698-13.404,21.92-20.171,31.742c-10.557,15.313-21.508,30.399-32.604,45.334
		c-15.447,41.563-41.341,85.884-67.942,120.675c-33.898,44.341-83.752,92.223-142.592,95.835
		c-29.096,1.787-55.494-7.61-78.463-24.41c-29.354,2.297-58.472-2.86-81.502-23.152c-32.468-28.607-40.293-77.016-43.289-117.942
		c-1.424-19.46-1.915-38.996-2.034-58.559c-1.485,3.879-3.098,7.703-4.853,11.464c-13.177,28.242-33.882,55.37-61.499,70.744
		c-22.628,12.598-53.127,17.564-73.817-1.714c-4.702-4.378-8.373-9.679-10.879-15.587c-9.985-23.537-0.058-59.768,4.382-84.324
		c1.968-10.888,6.342-35.923,1.834-46.284c-4.999-11.499-15.273-24.367-23.004-34.237c-12.424-15.868-25.118-31.374-36.403-48.109
		c-35.105-52.077-48.353-106.34-13.954-163.669c8.36-13.935,16.822-27.807,25.411-41.599c12.331-19.798,24.921-39.54,38.136-58.76
		c9.277-13.491,20.494-29.832,32.173-41.27c7.803-7.646,16.348-13.264,26.343-17.603c2.698-1.172,7.06-2.559,10.077-3.96
		c12.098-30.36,28.406-55.83,64.108-60.933c5.496-0.787,10.886-1.116,16.429-1.187c1.935-0.022,4.388,0.085,6.396-0.164
		c5.692-2.51,21.776-20.557,25.712-24.982c38.069-42.802,99.801-60.077,155.145-47.053c10.799,2.54,21.172,5.916,31.313,10.422
		c2.191,0.972,4.681,2.278,7.129,3.474c1.398-0.921,2.804-1.838,4.242-2.674c7.561-4.413,15.493-7.838,23.842-10.465
		c28.017-8.821,60.657-8.9,89.647-6.634c33.736,2.639,69.724,9.34,99.426,26.373c17.814,10.217,26.943,20.23,40.905,34.192
		c12.105,12.105,32.374,43.744,47.361,49.929c19.575,8.076,42.285-2.503,63.487,9.515c22.318,12.647,28.79,45.876,37.335,68.518
		c3.442,5.244,14.601,14.879,19.126,18.942c12.903,11.583,25.96,22.884,38.327,35.063c15.725,15.484,31.573,33.344,41.365,53.267
		c20.788,42.289,54.429,84.661,35.45,134.227c-13.851,36.166-30.407,70.37-52.335,102.349
		c-12.309,17.955-27.238,34.903-38.757,53.047c-15.733,24.783-19.222,50.655-20.338,79.587
		c-1.116,28.956-25.53,53.895-51.904,62.682c-16.808,5.6-36.49,0.929-51.02-8.48c-21.762-14.094-33.418-37.945-38.594-62.675
		c-4.665-22.298-10.376-44.279-15.587-66.441C743.407,662.823,739.315,644.065,738.037,625.505z"/>
	<g id="XMLID_24_">
		<path id="XMLID_42_" fill-rule="evenodd" clip-rule="evenodd" fill="#333333" d="M390.434,877.187
			C254.202,896.643,289.406,724.284,281.79,583.384c-1.53-28.31,10.71-45.91-10.712-82.638c-21.424-36.726-32.9-59.681-32.9-72.687
			c0-13.005,0-13.005,0-13.005s-18.368,11.476-6.888,66.564c11.479,55.086,25.254,158.373-5.351,224.173
			c-30.607,65.798-85.694,79.568-96.407,54.319c-10.71-25.247,21.424-95.638,6.121-130.832
			C112.349,575.687,4.19,502.284,60.669,408.155c30.987-51.645,72.673-117.82,91.419-136.183
			c18.745-18.364,35.194-11.86,42.082-29.457c6.886-17.597,16.451-41.698,43.23-45.523c26.779-3.828,26.021,8.671,65.043-35.202
			c39.02-43.87,96.02-46.29,128.538-38.639c32.517,7.652,39.4,18.749,49.347,16.071c9.949-2.681,24.481-28.063,110.943-21.302
			c86.459,6.758,107.117,36.597,123.184,52.664c16.067,16.067,32.135,45.906,56.24,55.851c24.103,9.945,48.969,1.531,60.443,8.033
			c11.476,6.503,18.013,35.568,25.665,55.458c7.651,19.891,77.28,63.507,99.467,108.646c22.186,45.139,48.228,76.495,34.454,112.454
			c-57.121,149.148-108.606,124.211-113.211,243.679c-0.767,19.894-21.811,34.052-33.287,37.875
			c-11.476,3.824-43.989-1.531-54.319-50.882c-10.331-49.351-23.337-89.14-24.867-121.274
			c-1.531-32.137,18.36-87.221,21.421-103.291c3.06-16.071,1.53-91.814,1.53-91.814s-29.831,45.127-32.892,87.209
			c-3.06,42.082-17.593,74.982-35.194,92.579c-17.601,17.597-9.647-2.059-19.588,17.826
			c-16.576,33.162-163.44,227.837-192.694,236.564C456.364,874.793,419.634,903.104,390.434,877.187z"/>
		<path id="XMLID_41_" fill-rule="evenodd" clip-rule="evenodd" fill="#FF9338" d="M299.653,782.908
			c0.383-3.06,19.291-21.75,19.291-21.75s36.181-2.731,54.926,2.242c18.747,4.971,22.951,8.032,22.951,8.032
			s10.332-5.739,24.485-5.739c14.155,0,47.825,9.559,57.003,16.067c9.178,6.506,16.449,8.036,16.449,8.036l-15.074-24.439
			c0,0-17.058-14.963-40.396-14.582c-23.335,0.383-40.55,8.415-40.55,8.415s-14.922-10.712-58.533-16.834
			c-43.612-6.122-40.935,9.949-40.935,9.949L299.653,782.908z"/>
		<path id="XMLID_38_" fill-rule="evenodd" clip-rule="evenodd" fill="#FF9338" d="M390.434,877.187
			c-136.02,19.429-100.561-144.214-108.644-293.803c-0.296-5.425-0.085-10.452,0.302-15.303c0,0,47.334-25.014,64.168-18.893
			c16.833,6.122,21.424,39.012,6.125,98.69c-15.299,59.677-38.251,105.583-35.189,139.25c3.06,33.665,17.596,55.857,31.369,66.566
			c13.771,10.708,42.848,13.005,46.671,13.005c3.824,0,22.951,7.652,33.663,4.591c10.712-3.06,38.262-24.098,49.355-48.584
			c11.095-24.485,7.269-42.086-6.502-81.869c-13.773-39.784-16.07-129.681,26.012-162.58c42.08-32.9,66.566,6.885,94.875,9.945
			c28.31,3.061,58.15-20.657,62.74-9.945c4.587,10.712,4.589,43.611-4.591,55.087c-9.183,11.475-13.01,16.066-13.01,16.066
			s7.652,2.294,15.303,17.597C666.319,693.492,520.675,992.788,390.434,877.187L390.434,877.187z M244.149,619.488
			c-0.613,13.677-1.97,27.209-4.289,40.205L244.149,619.488z"/>
		<path id="XMLID_37_" fill-rule="evenodd" clip-rule="evenodd" fill="#FF9338" d="M196.644,524.738
			c-0.767-13.773-20.658-95.642-37.492-129.305c-16.832-33.664-6.886-81.865,0.765-94.87c7.65-13.006,6.89-16.067,13.008-9.946
			c6.117,6.119,6.889,17.595,23.719,0c16.829-17.596,19.89-19.13,19.89-5.358s-19.127,42.08-14.536,81.102
			C206.589,405.383,220.362,494.134,196.644,524.738z"/>
		<path id="XMLID_35_" fill-rule="evenodd" clip-rule="evenodd" fill="#FF9338" d="M798.785,579.045c0,0-6.888-50.878,8.033-88.368
			c14.921-37.491,21.803-53.942,20.658-62.357c-1.146-8.415-16.057-21.809-26.767-34.434c-10.712-12.624-8.419-30.224,1.911-40.169
			c10.33-9.945,23.34-15.684,39.406-6.121c16.067,9.565,51.264,42.082,56.618,68.861c5.354,26.779,2.3,50.872-26.008,70.001
			C844.326,505.588,815.25,541.544,798.785,579.045z"/>
		<path id="XMLID_34_" fill-rule="evenodd" clip-rule="evenodd" fill="#FF9338" d="M365.469,402.645
			c8.415-3.447,22.951-43.995,16.83-63.887c-6.119-19.894-6.502-28.309-15.684-28.309c-9.182,0-14.152-9.569-18.932-9.377
			c-4.782,0.191-7.847,3.443-5.74,8.034c2.106,4.591-0.381,6.698-6.885,5.739c-6.502-0.959-17.978,3.443-14.153,6.313
			c3.824,2.869,10.901,4.204,10.901,4.204s0.383,4.019-7.269,3.636c-7.651-0.381-11.856-0.189-9.562,2.872
			c2.293,3.06,6.886,3.248,10.33,4.204c3.443,0.959,3.636,3.447-6.313,3.828c-9.949,0.383-17.409-0.381-9.567,6.121
			c7.843,6.503,18.555,15.112,28.502,22.383c9.949,7.269,9.569,15.108,11.48,23.527C351.319,400.35,354.571,404.556,365.469,402.645
			z"/>
		<path id="XMLID_33_" fill-rule="evenodd" clip-rule="evenodd" fill="#FF9338" d="M544.922,327.097
			c-5.358,2.104-16.07,14.727-19.703,35.96c-3.634,21.234-0.574,44.376,2.107,50.306c2.678,5.93,13.386,20.47,17.596,22.955
			c4.208,2.484,11.86,4.204,15.301-4.019c3.443-8.224,1.15-14.729,4.019-23.336c2.87-8.606,14.341-28.5,22.571-37.873
			c8.227-9.371,6.515-15.112,3.838-15.684c-2.68-0.572-8.995,3.443-8.419-1.148s6.506-9.756,5.358-14.727
			c-1.15-4.974-4.023-6.697-11.289-3.828c-7.267,2.87-6.695,0.576-5.354-0.954c1.339-1.531,9.754-11.476,6.122-13.962
			c-3.635-2.489-15.686,1.335-20.277,7.074c-4.591,5.74-4.971,8.227-7.461,8.227C546.843,336.088,550.094,323.845,544.922,327.097z"
			/>
		<path id="XMLID_32_" fill-rule="evenodd" clip-rule="evenodd" fill="#FF9338" d="M616.798,400.756
			c21.675-6.585,47.285,6.652,62.353,21.911l5.11,5.175l-5.772,4.329c-4.94,3.988-10.939,15.544-13.489,21.066
			c-8.713,18.877-29.79,27.134-49.505,27.134c-11.334,0-26.004-3.268-36.849-6.575l-4.847-1.479l0.365-5.05
			C576.214,438.982,587.16,409.761,616.798,400.756z"/>
		<path id="XMLID_31_" fill-rule="evenodd" clip-rule="evenodd" fill="#FF9338" d="M575.974,470.335c0,0,22.573,6.884,38.259,6.884
			c15.684,0,38.635-5.735,47.816-25.629c9.182-19.894,16.834-25.633,16.834-25.633s-30.983-31.37-61.209-22.188
			C587.449,412.951,577.887,443.939,575.974,470.335z"/>
		<path id="XMLID_30_" fill-rule="evenodd" clip-rule="evenodd" fill="#030303" d="M614.233,477.219
			c15.684,0,38.635-5.735,47.816-25.629c0.73-1.579,1.452-3.07,2.156-4.476c0,0,4.313-21.202-16.132-41.264
			c-9.342-3.569-19.916-5.267-30.4-2.08c-18.439,5.6-29.187,19.32-35.2,35.158C582.492,439.261,584.178,469.609,614.233,477.219z"/>
		<path id="XMLID_29_" fill-rule="evenodd" clip-rule="evenodd" fill="#FFFFFF" d="M592.063,442.213
			c5.93,3.634,13.962,3.443,18.553,3.443c4.591,0,9.373-6.885,11.286-13.773c1.91-6.889-2.294-12.628-9.565-14.921
			C605.068,414.669,586.489,430.069,592.063,442.213z"/>
		<path id="XMLID_28_" fill-rule="evenodd" clip-rule="evenodd" fill="#FF9338" d="M357.198,433.372
			c-0.637,1.27-1.731,2.372-3.311,3.055c-11.814,10.657-29.321,22.322-44.533,26.189c-24.002,6.103-60.407-27.668-64.112-49.897
			l-0.454-2.728l1.652-2.217c10.575-14.179,29.716-24.913,47.555-24.408C333.338,385.204,342.827,412.695,357.198,433.372z"/>
		<path id="XMLID_27_" fill-rule="evenodd" clip-rule="evenodd" fill="#FF9338" d="M248.172,410.829
			c0,0,17.974-24.103,45.137-23.335c27.166,0.767,31.37,8.036,40.171,24.485c8.799,16.446,2.678,21.042,13.771,19.894
			c11.095-1.149,6.887-0.767,6.887-0.767s-23.337,21.809-45.906,27.546C285.661,464.387,251.231,429.193,248.172,410.829z"/>
		<path id="XMLID_26_" fill-rule="evenodd" clip-rule="evenodd" fill="#030303" d="M262.738,397.297
			c7.732-5.341,18.198-10.155,30.571-9.803c27.166,0.767,31.37,8.036,40.171,24.485c1.526,2.851,2.601,5.35,3.4,7.519v0.004
			c-3.414,28.295-17.704,35.235-18.354,35.537l-0.014,0.006l-0.01,0.003c-3.382,1.485-6.835,2.728-10.271,3.603
			c-13.85,3.518-32.16-8.374-44.955-22.33c-5.177-25.759-0.538-39.021-0.538-39.021V397.297z"/>
		<path id="XMLID_25_" fill-rule="evenodd" clip-rule="evenodd" fill="#FFFFFF" d="M298.369,387.731
			c15.408,1.033,22.288,4.764,27.698,11.868c-0.621,1.814-1.347,3.601-2.142,5.287c-4.971,10.521-15.493,17.217-19.32,16.834
			c-3.828-0.381-9.373-5.358-8.797-11.289C296.239,406.017,297.405,395.031,298.369,387.731z"/>
	</g>
</g>
</svg>
